<?xml version="1.0" encoding="UTF-8"?>
<svg version="1.1" xmlns="http://www.w3.org/2000/svg" width="512" height="512">
<path d="M0 0 C1.49325791 -0.00302479 2.98651427 -0.00691591 4.47976792 -0.01159257 C8.56140375 -0.02183902 12.64295141 -0.01969934 16.72459435 -0.01541197 C21.13506015 -0.01293865 25.54550506 -0.02196641 29.95596313 -0.02944946 C38.58805404 -0.04218151 47.22011382 -0.04399203 55.85221253 -0.0416492 C62.87037223 -0.03986426 69.88852249 -0.04161945 76.90668106 -0.04587364 C78.40647285 -0.04676643 78.40647285 -0.04676643 79.93656347 -0.04767724 C81.96795336 -0.04888903 83.99934324 -0.05010316 86.03073312 -0.05131962 C105.069669 -0.06218934 124.10858715 -0.06003532 143.14752401 -0.05393478 C160.55315957 -0.04876576 177.95873917 -0.06002168 195.36436366 -0.07903299 C213.25057976 -0.09841899 231.13676939 -0.10666608 249.02299607 -0.10290974 C259.05910022 -0.10099891 269.09515673 -0.10347388 279.13125229 -0.11762428 C287.67481492 -0.12954872 296.21830058 -0.13093101 304.76186429 -0.11883412 C309.11779361 -0.112953 313.47358223 -0.11182473 317.82950211 -0.12383652 C321.82303359 -0.13472071 325.81630731 -0.13156203 329.80982687 -0.11757483 C331.2484936 -0.11493487 332.68718071 -0.11727225 334.12582742 -0.1253107 C351.87425977 -0.21753575 367.92955177 4.23447178 380.95169067 16.80757141 C393.48811339 30.89142376 396.44876058 45.83246471 396.39598083 64.12541199 C396.39900563 65.6186699 396.40289675 67.11192626 396.4075734 68.60517991 C396.41781986 72.68681573 396.41568017 76.76836339 396.41139281 80.85000634 C396.40891948 85.26047214 396.41794725 89.67091704 396.4254303 94.08137512 C396.43816235 102.71346603 396.43997286 111.34552581 396.43763003 119.97762452 C396.4358451 126.99578422 396.43760029 134.01393448 396.44185448 141.03209305 C396.44244967 142.03195424 396.44304485 143.03181544 396.44365808 144.06197546 C396.44486986 146.09336534 396.446084 148.12475523 396.44730046 150.15614511 C396.45817018 169.19508098 396.45601615 188.23399913 396.44991561 207.272936 C396.44474659 224.67857156 396.45600252 242.08415115 396.47501383 259.48977564 C396.49439983 277.37599175 396.50264691 295.26218138 396.49889058 313.14840806 C396.49697974 323.1845122 396.49945471 333.22056871 396.51360512 343.25666428 C396.52552956 351.8002269 396.52691184 360.34371257 396.51481495 368.88727628 C396.50893384 373.2432056 396.50780557 377.59899421 396.51981735 381.95491409 C396.53070154 385.94844558 396.52754286 389.9417193 396.51355567 393.93523885 C396.51091571 395.37390559 396.51325309 396.8125927 396.52129153 398.2512394 C396.61341774 415.98064909 392.17479543 432.09582865 379.57278442 445.08100891 C368.82559049 454.69148041 355.21059982 460.37563171 340.77702904 460.39212418 C339.51149393 460.39596532 338.24595883 460.39980647 336.94207418 460.40376401 C335.54524503 460.40298386 334.14841594 460.40210509 332.75158691 460.40113831 C331.26178238 460.40372343 329.77197854 460.406737 328.28217566 460.41014171 C324.19152591 460.41819767 320.10089372 460.4200005 316.01023698 460.42073917 C311.59697898 460.42259218 307.18373004 460.43014078 302.77047729 460.43687439 C293.12157551 460.45044838 283.47267788 460.45648101 273.82376814 460.46088505 C267.79697678 460.46364911 261.77018703 460.46788678 255.74339676 460.47238922 C239.05140725 460.48458079 222.35941902 460.49488025 205.66742516 460.49826431 C204.59937935 460.49848388 203.53133355 460.49870344 202.43092272 460.49892966 C201.36034566 460.49914794 200.2897686 460.49936622 199.18674982 460.49959111 C197.0174137 460.50003458 194.84807757 460.50048114 192.67874146 460.50093079 C191.06464874 460.50126293 191.06464874 460.50126293 189.41794808 460.50160179 C171.98619514 460.50554888 154.55448402 460.5230007 137.12274723 460.54629031 C119.21858119 460.57001768 101.31443613 460.5824668 83.41025412 460.58363223 C73.36067211 460.58454822 63.31114459 460.59028146 53.26157761 460.60845184 C44.70328416 460.62387154 36.14506205 460.62896227 27.58675735 460.62071374 C23.22275103 460.61681383 18.85888829 460.61770454 14.49489975 460.63177109 C10.49381318 460.64454956 6.49297752 460.64327809 2.4918911 460.63118038 C1.0504105 460.62923019 -0.39108811 460.63227023 -1.83254345 460.64102474 C-19.57206789 460.74187555 -35.69192861 456.30789294 -48.68502808 443.69819641 C-58.29549958 432.95100247 -63.97965088 419.33601181 -63.99614334 404.90244102 C-63.99998449 403.63690592 -64.00382563 402.37137082 -64.00778317 401.06748617 C-64.00700303 399.67065702 -64.00612426 398.27382793 -64.00515747 396.8769989 C-64.0077426 395.38719437 -64.01075617 393.89739053 -64.01416087 392.40758765 C-64.02221684 388.3169379 -64.02401966 384.22630571 -64.02475834 380.13564897 C-64.02661135 375.72239097 -64.03415994 371.30914203 -64.04089355 366.89588928 C-64.05446755 357.2469875 -64.06050017 347.59808987 -64.06490421 337.94918013 C-64.06766828 331.92238877 -64.07190594 325.89559902 -64.07640839 319.86880875 C-64.08859996 303.17681924 -64.09889941 286.48483101 -64.10228348 269.79283714 C-64.10250304 268.72479134 -64.10272261 267.65674554 -64.10294883 266.55633471 C-64.10316711 265.48575765 -64.10338538 264.41518059 -64.10361028 263.3121618 C-64.10405374 261.14282568 -64.1045003 258.97348956 -64.10494995 256.80415344 C-64.10517138 255.72809163 -64.10539281 254.65202982 -64.10562095 253.54336007 C-64.10956804 236.11160712 -64.12701986 218.67989601 -64.15030947 201.24815921 C-64.17403685 183.34399318 -64.18648596 165.43984812 -64.1876514 147.53566611 C-64.18856739 137.48608409 -64.19430063 127.43655658 -64.21247101 117.38698959 C-64.2278907 108.82869614 -64.23298143 100.27047404 -64.22473291 91.71216933 C-64.220833 87.34816301 -64.22172371 82.98430028 -64.23579025 78.62031174 C-64.24856873 74.61922517 -64.24729726 70.61838951 -64.23519954 66.61730309 C-64.23324935 65.17582249 -64.23628939 63.73432387 -64.2450439 62.29286854 C-64.34600304 44.53428932 -59.89860963 28.47437239 -47.31784058 15.44429016 C-33.23398823 2.90786745 -18.29294727 -0.05277974 0 0 Z " fill="#EE4035" transform="translate(89.86471557617188,25.739303588867188)"/>
<path d="M0 0 C62.04 0 124.08 0 188 0 C188.1209091 59.44249736 188.1209091 59.44249736 188.14648438 84.30859375 C188.15235801 89.99072292 188.15841946 95.67285184 188.16479492 101.35498047 C188.16558617 102.0671445 188.16637741 102.77930854 188.16719264 103.5130533 C188.1802412 115.01098287 188.20389301 126.50886744 188.23145839 138.00677033 C188.25951121 149.80638598 188.276176 161.60597807 188.28226548 173.4056257 C188.28601275 180.03345208 188.29539889 186.66119474 188.31719017 193.28899002 C188.33752849 199.52530154 188.34383911 205.76146883 188.33932304 211.99781036 C188.34014943 214.28835458 188.34613074 216.57890353 188.35761642 218.8694191 C188.3725187 221.99414818 188.36896158 225.11833107 188.36076355 228.24307251 C188.36950207 229.15164116 188.3782406 230.0602098 188.38724393 230.99631083 C188.35151349 236.02701028 188.03610757 239.77524863 185 244 C180.61756728 246.96104962 177.04570494 247.37751659 171.82702637 247.38768005 C171.12784576 247.39306559 170.42866515 247.39845113 169.70829725 247.40399987 C167.37761537 247.41824815 165.04750396 247.4111838 162.71679688 247.40405273 C161.0409347 247.4097579 159.36507642 247.41672273 157.68922424 247.42485046 C153.14587701 247.44277937 148.60272294 247.44161418 144.05935097 247.43590808 C140.26450509 247.4328163 136.46969631 247.43890846 132.67485571 247.44494683 C123.72249606 247.45898913 114.77023185 247.45743279 105.81787109 247.44604492 C96.58487859 247.43455956 87.35217642 247.44864704 78.11922216 247.4754414 C70.18784207 247.49759598 62.25655313 247.50423645 54.32514429 247.49836498 C49.58985598 247.49499416 44.85475384 247.49741902 40.11949158 247.51461601 C35.66735612 247.53007958 31.21565106 247.52613627 26.76353264 247.50731087 C25.13091553 247.50362356 23.49826656 247.50673762 21.86567879 247.51719666 C19.63428122 247.53039923 17.40431018 247.51886769 15.17297363 247.50120544 C13.9252845 247.50099616 12.67759537 247.50078688 11.39209747 247.50057125 C7.27458762 246.89295102 5.15673523 245.6902879 2 243 C-0.80043855 238.57745234 -0.2728981 233.43089265 -0.24050903 228.36332703 C-0.24221788 227.38716944 -0.24392673 226.41101185 -0.24568737 225.40527374 C-0.24898375 222.13168027 -0.23797598 218.8582914 -0.22705078 215.5847168 C-0.2264867 213.23918157 -0.22680317 210.89364599 -0.22793579 208.54811096 C-0.22851042 202.17667857 -0.21673815 195.80532124 -0.20278788 189.43390632 C-0.19156401 183.45111703 -0.18954215 177.46832768 -0.18748413 171.48552988 C-0.18310824 159.63641655 -0.16980202 147.78733079 -0.15087891 135.93823242 C-0.13251736 124.4287937 -0.11838514 112.9193625 -0.10986328 101.40991211 C-0.10932729 100.69308638 -0.10879129 99.97626064 -0.10823905 99.23771292 C-0.10361328 93.00223783 -0.09930772 86.76676253 -0.09503365 80.53128719 C-0.07621857 53.68749886 -0.03637643 26.84378358 0 0 Z " fill="#F0F1F1" transform="translate(162,163)"/>
<path d="M0 0 C0.65941589 -0.00511093 1.31883179 -0.01022186 1.99822998 -0.01548767 C4.16256982 -0.02930505 6.32658828 -0.02843251 8.4909668 -0.02612305 C10.00782894 -0.03001509 11.52469001 -0.0343508 13.04154968 -0.03910828 C16.21637508 -0.0465542 19.39108926 -0.04629165 22.56591797 -0.04101562 C26.61409948 -0.03523164 30.66182186 -0.05213366 34.70992756 -0.0753603 C37.842266 -0.09016804 40.97449577 -0.09095968 44.10686302 -0.08785057 C45.59824722 -0.08836053 47.08963802 -0.09353659 48.58098793 -0.10366249 C60.49112632 -0.17459503 70.90174772 0.98168038 80.12768555 9.2746582 C83.94358724 14.17408754 86.29394161 18.00973837 86.12768555 24.2746582 C87.01852089 24.25800362 87.01852089 24.25800362 87.92735291 24.24101257 C94.14086785 24.12989861 100.35409794 24.0547763 106.56835938 24 C108.88358027 23.97494525 111.19872278 23.94089184 113.51367188 23.89746094 C116.85265509 23.83641263 120.19058738 23.80835695 123.5300293 23.78637695 C124.55539291 23.76057053 125.58075653 23.7347641 126.63719177 23.70817566 C134.23519378 23.70524868 140.02901816 25.46309057 145.67955017 30.71781921 C150.86007903 36.56866894 152.72896823 41.75884477 152.4675293 49.46606445 C151.52727917 57.23663732 148.06376758 61.96027793 142.12768555 66.86450195 C138.49047854 69.42901705 136.6974914 70.2746582 132.12768555 70.2746582 C132.13137272 71.50841155 132.13505989 72.7421649 132.1388588 74.01330471 C132.22553491 103.3158465 132.29146995 132.61835912 132.33194686 161.92099738 C132.33694955 165.52952582 132.34212685 169.13805399 132.34741211 172.74658203 C132.34846135 173.4649594 132.34951059 174.18333676 132.35059163 174.92348314 C132.36798552 186.547493 132.39951758 198.17142353 132.43629673 209.79538637 C132.47373449 221.72722581 132.49592738 233.65902378 132.50403953 245.59091955 C132.50903019 252.29098543 132.52150768 258.99086042 132.55060577 265.69087029 C132.57777808 271.99862748 132.5861267 278.30613103 132.58011627 284.61394119 C132.58121568 286.9274197 132.58915846 289.24090679 132.60450745 291.55433464 C132.62446316 294.71755821 132.61960374 297.87982909 132.60870361 301.04307556 C132.62035498 301.95457853 132.63200634 302.86608149 132.64401078 303.80520576 C132.58012016 310.68361143 131.15445486 316.95416108 126.40690827 322.16242546 C120.88525408 327.33530102 115.3112308 328.52237494 107.8163147 328.54208374 C106.74515917 328.54888041 106.74515917 328.54888041 105.65236413 328.55581439 C103.27118713 328.56842528 100.89023981 328.56684019 98.5090332 328.56518555 C96.79700935 328.57117283 95.0849882 328.57797884 93.37297058 328.58554077 C88.73036033 328.60318661 84.08782383 328.60789553 79.44518328 328.60917234 C76.54280743 328.61059518 73.64045027 328.61486728 70.73807907 328.62016678 C60.60751914 328.63866164 50.4770118 328.64683798 40.34643555 328.64526367 C30.91127559 328.64406208 21.47634433 328.66516921 12.04124224 328.696751 C3.93319679 328.72292126 -4.174774 328.73363067 -12.28286135 328.73235285 C-17.12218243 328.73184349 -21.96130016 328.73751289 -26.80057907 328.75870895 C-31.3528339 328.77810423 -35.90469166 328.77820704 -40.45696068 328.76367569 C-42.12422072 328.76158816 -43.79150571 328.76628516 -45.45872307 328.77839661 C-62.40981618 328.8935274 -62.40981618 328.8935274 -69.89575195 322.5637207 C-70.56477539 321.74000977 -70.56477539 321.74000977 -71.24731445 320.8996582 C-71.70879883 320.35567383 -72.1702832 319.81168945 -72.64575195 319.2512207 C-76.18554687 313.5469652 -76.15386881 307.88747558 -76.11282349 301.40383911 C-76.11453234 300.41457644 -76.11624119 299.42531378 -76.11800182 298.40607345 C-76.12129378 295.09412807 -76.11029771 291.78238568 -76.09936523 288.47045898 C-76.09880106 286.09521998 -76.09911781 283.71998062 -76.10025024 281.34474182 C-76.10076489 275.56629417 -76.09209547 269.78791291 -76.07937492 264.00948043 C-76.06506587 257.28430034 -76.06208355 250.55912962 -76.05979858 243.83393644 C-76.05542403 231.84118124 -76.04212144 219.8484533 -76.02319336 207.85571289 C-76.00482835 196.2076023 -75.99067489 184.55949911 -75.98217773 172.91137695 C-75.98165229 172.19308736 -75.98112684 171.47479777 -75.98058547 170.73474182 C-75.97797535 167.1312045 -75.97544794 163.52766713 -75.97296166 159.92412972 C-75.95223663 130.04095346 -75.9168687 100.15780902 -75.87231445 70.2746582 C-76.97027344 70.14647705 -78.06823242 70.0182959 -79.19946289 69.88623047 C-85.33818333 68.86406251 -88.84946442 64.80937625 -92.87231445 60.2746582 C-96.53954029 54.6859817 -96.8409128 47.75043002 -95.87231445 41.2746582 C-93.62219174 34.89431024 -89.54496649 29.94024903 -83.87231445 26.2746582 C-80.37202959 24.66010728 -77.65277284 24.02773077 -73.80664062 24.04760742 C-72.82600143 24.04775848 -71.84536224 24.04790955 -70.83500671 24.04806519 C-69.78899796 24.05838776 -68.7429892 24.06871033 -67.6652832 24.0793457 C-66.04448601 24.08359055 -66.04448601 24.08359055 -64.39094543 24.08792114 C-60.94712145 24.09909688 -57.50355956 24.12419702 -54.05981445 24.1496582 C-51.72192759 24.15969136 -49.38403664 24.16881662 -47.04614258 24.17700195 C-41.3214441 24.1990277 -35.59689801 24.23247953 -29.87231445 24.2746582 C-29.72914795 23.17001221 -29.58598145 22.06536621 -29.43847656 20.92724609 C-28.47859053 14.73455315 -25.44469656 10.23417132 -20.4621582 6.4387207 C-13.79412082 2.31519834 -7.91933348 0.03078311 0 0 Z M-65.87231445 71.2746582 C-65.95968581 113.42894665 -65.95968581 113.42894665 -66.01879883 155.58325195 C-66.02467246 161.26538112 -66.03073391 166.94751004 -66.03710938 172.62963867 C-66.03790062 173.34180271 -66.03869187 174.05396674 -66.03950709 174.7877115 C-66.05255566 186.28564107 -66.07620746 197.78352564 -66.10377284 209.28142853 C-66.13182566 221.08104418 -66.14849045 232.88063627 -66.15457994 244.6802839 C-66.15832721 251.30811028 -66.16771334 257.93585294 -66.18950462 264.56364822 C-66.20984294 270.79995974 -66.21615357 277.03612703 -66.2116375 283.27246857 C-66.21246388 285.56301278 -66.2184452 287.85356174 -66.22993088 290.1440773 C-66.24483316 293.26880638 -66.24127603 296.39298927 -66.233078 299.51773071 C-66.24181653 300.42629936 -66.25055505 301.334868 -66.25955838 302.27096903 C-66.22369892 307.31983422 -65.84619739 310.99199969 -62.87231445 315.2746582 C-58.97914087 318.48246966 -55.77164549 318.65112323 -50.81959534 318.65560913 C-49.77210606 318.66262909 -49.77210606 318.66262909 -48.70345539 318.66979086 C-46.36965446 318.68173163 -44.03644174 318.67228755 -41.70263672 318.6628418 C-40.0269232 318.66690796 -38.35121236 318.67225009 -36.67550659 318.67877197 C-32.1279573 318.69244719 -27.58061222 318.6871458 -23.03305936 318.67763472 C-18.27259856 318.67003794 -13.51215521 318.6770839 -8.75169373 318.68179321 C-0.75630557 318.68725124 7.23899946 318.68005846 15.234375 318.66577148 C24.47468942 318.64945046 33.71480519 318.6547293 42.95511478 318.6712507 C50.89071744 318.68487088 58.82626035 318.68678246 66.76187092 318.67893469 C71.50048996 318.67426039 76.23901568 318.67362656 80.97762871 318.68354416 C85.43380007 318.69221906 89.88971575 318.68618234 94.34585953 318.66886139 C95.98008487 318.66489911 97.61433178 318.66602618 99.24854851 318.67264938 C101.48198242 318.68086557 103.71460063 318.67054322 105.94798279 318.65560913 C107.19697074 318.65447805 108.44595869 318.65334698 109.73279476 318.65218163 C113.60089124 318.22203612 115.90183428 317.45507807 119.12768555 315.2746582 C122.71813338 310.27854096 122.54528314 305.42692367 122.4884491 299.51773071 C122.49101237 298.5407187 122.49357565 297.56370669 122.4962166 296.55708826 C122.50115414 293.28650697 122.48466168 290.0163883 122.46826172 286.74584961 C122.46741544 284.40016694 122.4678906 282.05448348 122.46958923 279.70880127 C122.47045058 273.3415215 122.45280197 266.97441099 122.43186736 260.60717058 C122.41502295 254.62693552 122.41199799 248.64670028 122.40891174 242.66644602 C122.40235007 230.82341581 122.38239662 218.98044768 122.35400391 207.13745117 C122.32645598 195.63485011 122.30526041 184.13226601 122.29248047 172.62963867 C122.29167648 171.91308094 122.29087248 171.1965232 122.29004413 170.4582516 C122.28310535 164.2249776 122.27664706 157.99170313 122.27023602 151.75842857 C122.24202013 124.93044668 122.18225502 98.1026294 122.12768555 71.2746582 C60.08768555 71.2746582 -1.95231445 71.2746582 -65.87231445 71.2746582 Z " fill="#050404" transform="translate(227.872314453125,91.725341796875)"/>
<path d="M0 0 C1.49325791 -0.00302479 2.98651427 -0.00691591 4.47976792 -0.01159257 C8.56140375 -0.02183902 12.64295141 -0.01969934 16.72459435 -0.01541197 C21.13506015 -0.01293865 25.54550506 -0.02196641 29.95596313 -0.02944946 C38.58805404 -0.04218151 47.22011382 -0.04399203 55.85221253 -0.0416492 C62.87037223 -0.03986426 69.88852249 -0.04161945 76.90668106 -0.04587364 C78.40647285 -0.04676643 78.40647285 -0.04676643 79.93656347 -0.04767724 C81.96795336 -0.04888903 83.99934324 -0.05010316 86.03073312 -0.05131962 C105.069669 -0.06218934 124.10858715 -0.06003532 143.14752401 -0.05393478 C160.55315957 -0.04876576 177.95873917 -0.06002168 195.36436366 -0.07903299 C213.25057976 -0.09841899 231.13676939 -0.10666608 249.02299607 -0.10290974 C259.05910022 -0.10099891 269.09515673 -0.10347388 279.13125229 -0.11762428 C287.67481492 -0.12954872 296.21830058 -0.13093101 304.76186429 -0.11883412 C309.11779361 -0.112953 313.47358223 -0.11182473 317.82950211 -0.12383652 C321.82303359 -0.13472071 325.81630731 -0.13156203 329.80982687 -0.11757483 C331.2484936 -0.11493487 332.68718071 -0.11727225 334.12582742 -0.1253107 C351.87425977 -0.21753575 367.92955177 4.23447178 380.95169067 16.80757141 C393.48811339 30.89142376 396.44876058 45.83246471 396.39598083 64.12541199 C396.39900563 65.6186699 396.40289675 67.11192626 396.4075734 68.60517991 C396.41781986 72.68681573 396.41568017 76.76836339 396.41139281 80.85000634 C396.40891948 85.26047214 396.41794725 89.67091704 396.4254303 94.08137512 C396.43816235 102.71346603 396.43997286 111.34552581 396.43763003 119.97762452 C396.4358451 126.99578422 396.43760029 134.01393448 396.44185448 141.03209305 C396.44244967 142.03195424 396.44304485 143.03181544 396.44365808 144.06197546 C396.44486986 146.09336534 396.446084 148.12475523 396.44730046 150.15614511 C396.45817018 169.19508098 396.45601615 188.23399913 396.44991561 207.272936 C396.44474659 224.67857156 396.45600252 242.08415115 396.47501383 259.48977564 C396.49439983 277.37599175 396.50264691 295.26218138 396.49889058 313.14840806 C396.49697974 323.1845122 396.49945471 333.22056871 396.51360512 343.25666428 C396.52552956 351.8002269 396.52691184 360.34371257 396.51481495 368.88727628 C396.50893384 373.2432056 396.50780557 377.59899421 396.51981735 381.95491409 C396.53070154 385.94844558 396.52754286 389.9417193 396.51355567 393.93523885 C396.51091571 395.37390559 396.51325309 396.8125927 396.52129153 398.2512394 C396.61341774 415.98064909 392.17479543 432.09582865 379.57278442 445.08100891 C368.82559049 454.69148041 355.21059982 460.37563171 340.77702904 460.39212418 C339.51149393 460.39596532 338.24595883 460.39980647 336.94207418 460.40376401 C335.54524503 460.40298386 334.14841594 460.40210509 332.75158691 460.40113831 C331.26178238 460.40372343 329.77197854 460.406737 328.28217566 460.41014171 C324.19152591 460.41819767 320.10089372 460.4200005 316.01023698 460.42073917 C311.59697898 460.42259218 307.18373004 460.43014078 302.77047729 460.43687439 C293.12157551 460.45044838 283.47267788 460.45648101 273.82376814 460.46088505 C267.79697678 460.46364911 261.77018703 460.46788678 255.74339676 460.47238922 C239.05140725 460.48458079 222.35941902 460.49488025 205.66742516 460.49826431 C204.59937935 460.49848388 203.53133355 460.49870344 202.43092272 460.49892966 C201.36034566 460.49914794 200.2897686 460.49936622 199.18674982 460.49959111 C197.0174137 460.50003458 194.84807757 460.50048114 192.67874146 460.50093079 C191.06464874 460.50126293 191.06464874 460.50126293 189.41794808 460.50160179 C171.98619514 460.50554888 154.55448402 460.5230007 137.12274723 460.54629031 C119.21858119 460.57001768 101.31443613 460.5824668 83.41025412 460.58363223 C73.36067211 460.58454822 63.31114459 460.59028146 53.26157761 460.60845184 C44.70328416 460.62387154 36.14506205 460.62896227 27.58675735 460.62071374 C23.22275103 460.61681383 18.85888829 460.61770454 14.49489975 460.63177109 C10.49381318 460.64454956 6.49297752 460.64327809 2.4918911 460.63118038 C1.0504105 460.62923019 -0.39108811 460.63227023 -1.83254345 460.64102474 C-19.57206789 460.74187555 -35.69192861 456.30789294 -48.68502808 443.69819641 C-58.29549958 432.95100247 -63.97965088 419.33601181 -63.99614334 404.90244102 C-63.99998449 403.63690592 -64.00382563 402.37137082 -64.00778317 401.06748617 C-64.00700303 399.67065702 -64.00612426 398.27382793 -64.00515747 396.8769989 C-64.0077426 395.38719437 -64.01075617 393.89739053 -64.01416087 392.40758765 C-64.02221684 388.3169379 -64.02401966 384.22630571 -64.02475834 380.13564897 C-64.02661135 375.72239097 -64.03415994 371.30914203 -64.04089355 366.89588928 C-64.05446755 357.2469875 -64.06050017 347.59808987 -64.06490421 337.94918013 C-64.06766828 331.92238877 -64.07190594 325.89559902 -64.07640839 319.86880875 C-64.08859996 303.17681924 -64.09889941 286.48483101 -64.10228348 269.79283714 C-64.10250304 268.72479134 -64.10272261 267.65674554 -64.10294883 266.55633471 C-64.10316711 265.48575765 -64.10338538 264.41518059 -64.10361028 263.3121618 C-64.10405374 261.14282568 -64.1045003 258.97348956 -64.10494995 256.80415344 C-64.10517138 255.72809163 -64.10539281 254.65202982 -64.10562095 253.54336007 C-64.10956804 236.11160712 -64.12701986 218.67989601 -64.15030947 201.24815921 C-64.17403685 183.34399318 -64.18648596 165.43984812 -64.1876514 147.53566611 C-64.18856739 137.48608409 -64.19430063 127.43655658 -64.21247101 117.38698959 C-64.2278907 108.82869614 -64.23298143 100.27047404 -64.22473291 91.71216933 C-64.220833 87.34816301 -64.22172371 82.98430028 -64.23579025 78.62031174 C-64.24856873 74.61922517 -64.24729726 70.61838951 -64.23519954 66.61730309 C-64.23324935 65.17582249 -64.23628939 63.73432387 -64.2450439 62.29286854 C-64.34600304 44.53428932 -59.89860963 28.47437239 -47.31784058 15.44429016 C-33.23398823 2.90786745 -18.29294727 -0.05277974 0 0 Z M-44.67721558 28.44819641 C-52.01984076 38.80986881 -53.602981 49.28693619 -53.49290466 61.72068787 C-53.49796072 63.24200298 -53.50519767 64.76331211 -53.51440281 66.28460777 C-53.53320136 70.42998249 -53.52116225 74.57476125 -53.50367987 78.72012019 C-53.49024231 83.20415549 -53.50576565 87.68810723 -53.51750183 92.1721344 C-53.53583443 100.94191255 -53.52739584 109.71146718 -53.50941361 118.48123826 C-53.49536218 125.61042661 -53.49150027 132.73955447 -53.49485588 139.86875534 C-53.49533332 140.88515096 -53.49581077 141.90154657 -53.49630268 142.94874205 C-53.49732905 145.01379508 -53.49838441 147.0788481 -53.49946844 149.14390109 C-53.50802642 167.38388659 -53.49138886 185.62376445 -53.4616394 203.86372375 C-53.43279573 221.54866555 -53.42572367 239.23345238 -53.44113159 256.91841125 C-53.45790394 276.19573463 -53.46191806 295.47298452 -53.44442123 314.75030982 C-53.44257692 316.80696288 -53.44074219 318.86361594 -53.43891716 320.92026901 C-53.43800507 321.93207892 -53.43709298 322.94388882 -53.43615325 323.98635963 C-53.43055495 331.10522392 -53.43384837 338.22405225 -53.44046211 345.34291458 C-53.44820452 354.02078273 -53.44140975 362.6984985 -53.41628707 371.37633599 C-53.4038141 375.80104731 -53.39761878 380.22552166 -53.40882874 384.65024185 C-53.41890817 388.70536835 -53.41033329 392.7600234 -53.38724755 396.81509279 C-53.38211076 398.27719727 -53.38360926 399.73934438 -53.39264221 401.20142998 C-53.4726156 415.32779419 -50.23211349 425.56205651 -40.86471558 436.26069641 C-31.2661989 445.89202853 -20.08125365 449.79775659 -6.62308431 449.92008924 C-5.22512871 449.90790355 -3.82717719 449.89524261 -2.42922974 449.88215637 C-0.910615 449.88649474 0.60799476 449.89301918 2.12659192 449.90151644 C6.26443725 449.91838862 10.40167072 449.90441114 14.53948331 449.88500166 C19.01529239 449.86949538 23.49103032 449.88299672 27.96684265 449.89274597 C36.71991547 449.90723345 45.47275544 449.89507893 54.22580615 449.87363273 C64.42521669 449.84956402 74.62457455 449.85134062 84.82400718 449.85393864 C103.02302934 449.85762443 121.22194208 449.83683907 139.42092896 449.8026886 C157.07102217 449.76958056 174.72100063 449.75543412 192.37112427 449.76167297 C211.60813713 449.76843933 230.845102 449.76597124 250.08210778 449.74631357 C251.09956931 449.74527409 252.11703083 449.7442346 253.16532452 449.74316362 C255.20866999 449.74107277 257.25201543 449.7389618 259.29536085 449.73683044 C266.40163083 449.72994084 273.50788601 449.72926451 280.61415863 449.73071289 C289.27339955 449.7321536 297.93254703 449.72244299 306.59175697 449.69876653 C311.00808172 449.68692014 315.42427635 449.67977243 319.84061623 449.6856041 C323.88570011 449.6907877 327.93050942 449.68204632 331.97554639 449.66232949 C333.43626975 449.65760224 334.89701995 449.65787372 336.35773918 449.66373986 C344.14730525 449.69199205 350.95213662 449.45586451 358.13528442 446.26069641 C358.98219849 445.88429016 359.82911255 445.50788391 360.70169067 445.12007141 C370.02270127 439.93970545 376.42672539 433.92359092 381.13528442 424.26069641 C381.46388566 423.61980381 381.7924869 422.97891121 382.13104576 422.31859761 C385.65919151 414.67856614 385.70104403 407.46321691 385.64994812 399.17492676 C385.65528036 397.65762783 385.66234993 396.14033418 385.67099518 394.62305051 C385.68956017 390.4748482 385.68333885 386.32700441 385.67284214 382.17878759 C385.66583251 377.69670562 385.68186154 373.21469599 385.69483948 368.7326355 C385.7164562 359.95980924 385.71635839 351.18711282 385.70821393 342.41426869 C385.70190752 335.28121515 385.70305686 328.1481994 385.70948601 321.01514626 C385.71083849 319.4908093 385.71083849 319.4908093 385.7122183 317.93567765 C385.71406955 315.87103149 385.71593211 313.80638533 385.71780585 311.74173919 C385.73437663 292.389911 385.7256717 273.03815576 385.70882028 253.68633197 C385.69412846 235.99680321 385.70874573 218.30744439 385.73759044 200.61793753 C385.76701157 182.43903015 385.77794851 164.26020113 385.76840824 146.08127099 C385.76738573 144.02341196 385.76639111 141.96555292 385.76542473 139.90769386 C385.76471014 138.3890737 385.76471014 138.3890737 385.76398112 136.83977434 C385.76182034 129.72036395 385.77160335 122.60102802 385.78619576 115.48163414 C385.80374673 106.79788086 385.80356227 98.11434406 385.7808441 89.43059918 C385.76972625 85.00357908 385.76648332 80.57694 385.78514481 76.14993668 C385.8020373 72.09019233 385.79548123 68.0311587 385.77092802 63.97145966 C385.76607284 62.50989801 385.769483 61.04827805 385.78241546 59.58676555 C385.90042843 45.20165473 382.30908836 33.68079355 372.13528442 23.26069641 C364.18802106 16.00102324 354.7409124 11.1463905 343.93221378 11.12368202 C342.6503771 11.11860748 341.36854042 11.11353294 340.04786021 11.10830462 C338.62225413 11.10770296 337.19664801 11.10720387 335.77104187 11.10679626 C334.25892697 11.1027809 332.74681315 11.09834255 331.23470062 11.09351671 C327.0730576 11.08155334 322.91142617 11.07590329 318.74976933 11.07133555 C314.26351545 11.06537846 309.77727542 11.05376877 305.29103088 11.04304504 C294.45235256 11.01852183 283.61366964 11.00389313 272.77497211 10.99098498 C269.71306995 10.98727271 266.65116825 10.98329949 263.58926654 10.97923231 C244.5717128 10.95399327 225.55415833 10.93194201 206.53659153 10.91950417 C202.13141947 10.9165745 197.72624744 10.91361284 193.32107544 10.91059875 C192.22620125 10.9098527 191.13132705 10.90910665 190.00327485 10.908338 C172.27458032 10.89568959 154.5459862 10.86247357 136.81733859 10.82079692 C118.61151873 10.77834982 100.40575023 10.75480584 82.19988102 10.7495836 C71.97972338 10.74617243 61.7597226 10.73445198 51.53961372 10.70148087 C42.83378215 10.67344094 34.12813959 10.66249829 25.42226637 10.67367633 C20.98311786 10.67885306 16.54436491 10.67604059 12.1052742 10.65121078 C8.03421821 10.62863049 3.96383992 10.62952552 -0.10722864 10.64841466 C-1.57301972 10.65120246 -3.03885763 10.64568451 -4.50457375 10.63060172 C-21.11811905 10.47021807 -33.8261297 15.73025705 -44.67721558 28.44819641 Z " fill="#060101" transform="translate(89.86471557617188,25.739303588867188)"/>
<path d="M0 0 C1.28025176 -0.00701996 1.28025176 -0.00701996 2.58636719 -0.01418173 C5.445274 -0.02614423 8.30370257 -0.01666953 11.16261292 -0.00723267 C13.21270528 -0.01129784 15.26279545 -0.01663941 17.31288147 -0.02316284 C22.88104704 -0.03684954 28.44904602 -0.03153192 34.01721454 -0.02202559 C39.84270858 -0.01443502 45.66818827 -0.02147302 51.49368286 -0.02618408 C61.27804629 -0.03164382 71.06234182 -0.02444473 80.84669495 -0.01016235 C92.15919676 0.00615998 103.47153632 0.0008795 114.78403419 -0.01564157 C124.49456593 -0.02925564 134.20504881 -0.03117633 143.91558701 -0.02332556 C149.71613573 -0.01864804 155.5166082 -0.01802633 161.31715202 -0.02793503 C166.7713696 -0.03660104 172.22537807 -0.03058928 177.67957306 -0.01325226 C179.68146225 -0.00928529 181.68336904 -0.01042504 183.68525124 -0.01704025 C186.41784652 -0.02523754 189.14977163 -0.01495597 191.88232422 0 C192.67464477 -0.00669217 193.46696531 -0.01338433 194.28329557 -0.02027929 C199.07909829 0.0306355 202.34212545 0.7520911 206.50465393 3.38095093 C209.30634351 6.62501255 210.40902143 8.61589093 210.94215393 12.88095093 C210.29254766 18.07780106 208.84123191 21.1747708 204.94215393 24.69345093 C200.700551 27.62994526 197.43700209 27.52928176 192.40803528 27.52812195 C191.56118093 27.53179864 190.71432659 27.53547532 189.84180999 27.53926343 C186.98755662 27.55032784 184.13333963 27.55414877 181.27906799 27.55795288 C179.23927189 27.56421544 177.19947693 27.57086206 175.15968323 27.5778656 C169.60586088 27.59529447 164.05204716 27.60583248 158.49820423 27.61407113 C155.03035901 27.61921722 151.56251648 27.62529312 148.09467316 27.63158226 C137.25043019 27.65063948 126.40619407 27.66486956 115.56193757 27.67319423 C103.03326556 27.68297001 90.50477008 27.7092963 77.97616029 27.74969512 C68.29967161 27.77982922 58.6232336 27.79466053 48.9466989 27.79797524 C43.16393827 27.8003288 37.38136611 27.80932897 31.5986557 27.83443642 C26.15841617 27.85767475 20.71848975 27.86196737 15.2782135 27.85167503 C13.28115041 27.85117853 11.28407214 27.85753248 9.28705597 27.87123108 C6.5607293 27.88888634 3.83553404 27.88187529 1.10920715 27.86869812 C0.3187312 27.87966737 -0.47174476 27.89063661 -1.28617454 27.90193826 C-6.46863017 27.84145606 -9.35485208 26.7544765 -13.49534607 23.38095093 C-16.39160642 20.08520639 -17.39194905 17.47695938 -17.80784607 13.06845093 C-17.43325461 8.64827172 -16.3314862 6.75365811 -13.49534607 3.38095093 C-9.20780576 0.03772574 -5.23684313 -0.04410769 0 0 Z " fill="#CFD1D2" transform="translate(159.49534606933594,125.61904907226563)"/>
<path d="M0 0 C2.5625 0.3125 2.5625 0.3125 4.19884682 1.42398834 C6.21399918 4.21475566 5.94021612 6.42254309 5.94345093 9.84118652 C5.9481309 10.50725214 5.95281087 11.17331775 5.95763266 11.85956717 C5.96961843 14.09603255 5.96011195 16.33188921 5.95068359 18.56835938 C5.95474772 20.16982888 5.96008871 21.77129559 5.96661377 23.37275696 C5.98031212 27.72601738 5.97497839 32.07906495 5.96547651 36.43232918 C5.95789293 40.98333443 5.9649219 45.53432119 5.96963501 50.08532715 C5.97509637 57.72863037 5.967891 65.37184669 5.95361328 73.01513672 C5.93728603 81.85784605 5.94257427 90.70034789 5.9590925 99.5430522 C5.97269656 107.1286775 5.97463232 114.71424027 5.96677649 122.29987383 C5.96209402 126.83330723 5.96149084 131.36664302 5.97138596 135.90007019 C5.98003767 140.16168644 5.97406677 144.42303459 5.95670319 148.68462181 C5.9527287 150.2507654 5.95388878 151.81693146 5.96049118 153.38306618 C5.96865922 155.51695555 5.95844387 157.64997962 5.94345093 159.78381348 C5.94231985 160.97916969 5.94118877 162.17452591 5.94002342 163.40610504 C5.5625 166.3125 5.5625 166.3125 4.19884682 168.20101166 C1.88692852 169.77138183 0.29305692 169.6625714 -2.4375 169.3125 C-5.24492258 166.50507742 -4.68901974 164.75645071 -4.69146729 160.82141113 C-4.69458727 160.14732728 -4.69770725 159.47324342 -4.70092177 158.77873278 C-4.70892923 156.50930185 -4.7025676 154.24013627 -4.69628906 151.97070312 C-4.69899771 150.34805646 -4.70255793 148.72541103 -4.70690918 147.10276794 C-4.71605049 142.68757315 -4.71248178 138.2724715 -4.70615101 133.85727501 C-4.7011 129.2444063 -4.70577995 124.63154576 -4.70892334 120.01867676 C-4.71256562 112.27106285 -4.70775704 104.52348703 -4.69824219 96.77587891 C-4.68735713 87.80881018 -4.69088253 78.84183239 -4.701895 69.87476587 C-4.71096044 62.18642728 -4.7122568 54.49811613 -4.70701766 46.80977392 C-4.70389386 42.21321973 -4.70349982 37.61670833 -4.71009064 33.02015686 C-4.71585269 28.6995167 -4.71188824 24.37899418 -4.70030212 20.05836678 C-4.69764941 18.46922565 -4.698431 16.88007468 -4.70282745 15.29093742 C-4.7082604 13.12835258 -4.70147664 10.96614915 -4.69146729 8.80358887 C-4.69071323 7.59126335 -4.68995918 6.37893784 -4.68918228 5.12987518 C-4.36512524 1.50232436 -3.66054321 0.46930041 0 0 Z " fill="#0A0A0A" transform="translate(309.4375,197.6875)"/>
<path d="M0 0 C2.80742258 2.80742258 2.25151974 4.55604929 2.25396729 8.49108887 C2.25864726 9.50221465 2.25864726 9.50221465 2.26342177 10.53376722 C2.27142923 12.80319815 2.2650676 15.07236373 2.25878906 17.34179688 C2.26149771 18.96444354 2.26505793 20.58708897 2.26940918 22.20973206 C2.27855049 26.62492685 2.27498178 31.0400285 2.26865101 35.45522499 C2.2636 40.0680937 2.26827995 44.68095424 2.27142334 49.29382324 C2.27506562 57.04143715 2.27025704 64.78901297 2.26074219 72.53662109 C2.24985713 81.50368982 2.25338253 90.47066761 2.264395 99.43773413 C2.27346044 107.12607272 2.2747568 114.81438387 2.26951766 122.50272608 C2.26639386 127.09928027 2.26599982 131.69579167 2.27259064 136.29234314 C2.27835269 140.6129833 2.27438824 144.93350582 2.26280212 149.25413322 C2.26014941 150.84327435 2.260931 152.43242532 2.26532745 154.02156258 C2.2707604 156.18414742 2.26397664 158.34635085 2.25396729 160.50891113 C2.25321323 161.72123665 2.25245918 162.93356216 2.25168228 164.18262482 C2 167 2 167 0 169 C-2.73055692 169.3500714 -4.32442852 169.45888183 -6.63634682 167.88851166 C-8.65149918 165.09774434 -8.37771612 162.88995691 -8.38095093 159.47131348 C-8.3856309 158.80524786 -8.39031087 158.13918225 -8.39513266 157.45293283 C-8.40711843 155.21646745 -8.39761195 152.98061079 -8.38818359 150.74414062 C-8.39224772 149.14267112 -8.39758871 147.54120441 -8.40411377 145.93974304 C-8.41781212 141.58648262 -8.41247839 137.23343505 -8.40297651 132.88017082 C-8.39539293 128.32916557 -8.4024219 123.77817881 -8.40713501 119.22717285 C-8.41259637 111.58386963 -8.405391 103.94065331 -8.39111328 96.29736328 C-8.37478603 87.45465395 -8.38007427 78.61215211 -8.3965925 69.7694478 C-8.41019656 62.1838225 -8.41213232 54.59825973 -8.40427649 47.01262617 C-8.39959402 42.47919277 -8.39899084 37.94585698 -8.40888596 33.41242981 C-8.41753767 29.15081356 -8.41156677 24.88946541 -8.39420319 20.62787819 C-8.3902287 19.0617346 -8.39138878 17.49556854 -8.39799118 15.92943382 C-8.40615922 13.79554445 -8.39594387 11.66252038 -8.38095093 9.52868652 C-8.37981985 8.33333031 -8.37868877 7.13797409 -8.37752342 5.90639496 C-8 3 -8 3 -6.63634682 1.11148834 C-4.32442852 -0.45888183 -2.73055692 -0.3500714 0 0 Z " fill="#0A0A0A" transform="translate(205,198)"/>
<path d="M0 0 C1.423125 0.4021875 1.423125 0.4021875 2.875 0.8125 C4.2947622 3.6520244 4.0075438 6.04466879 4.01544189 9.22093201 C4.01989858 10.21874879 4.01989858 10.21874879 4.0244453 11.23672348 C4.03314919 13.47610623 4.03464195 15.71543564 4.03613281 17.95483398 C4.04075973 19.55615351 4.04578422 21.15747193 4.05117798 22.75878906 C4.06431465 27.11617069 4.07074919 31.4735369 4.07518864 35.83093524 C4.07811682 38.5509943 4.0822211 41.27104911 4.08669281 43.99110603 C4.10036997 52.49510346 4.11003603 60.99909123 4.1138947 69.50309891 C4.11837865 79.33202749 4.13594121 89.16081724 4.1648953 98.9897036 C4.1864805 106.57953982 4.19659726 114.16933689 4.19793582 121.75920349 C4.19898596 126.29602487 4.20493812 130.83271577 4.22275543 135.36950493 C4.239182 139.63518245 4.24141817 143.90063064 4.23261642 148.16632843 C4.23184318 149.73409449 4.23622642 151.30187261 4.24607468 152.86960793 C4.25870909 155.0057099 4.25296487 157.14098912 4.24249268 159.27708435 C4.24395924 160.47373939 4.2454258 161.67039442 4.2469368 162.90331173 C3.875 165.8125 3.875 165.8125 2.51218796 167.69752598 C0.1773016 169.2876535 -1.36911369 169.23648251 -4.125 168.8125 C-6.53083664 165.20374503 -6.3783237 163.57683627 -6.38569641 159.28381348 C-6.38952196 158.61774786 -6.39334751 157.95168225 -6.39728898 157.26543283 C-6.40762437 155.02908895 -6.40362591 152.79300155 -6.3996582 150.55664062 C-6.40400435 148.95517234 -6.40918717 147.35370614 -6.41514587 145.75224304 C-6.4285566 141.39902895 -6.42911232 137.04590156 -6.42658257 132.69267082 C-6.42551442 129.06173135 -6.43039215 125.43080953 -6.435188 121.79987383 C-6.44629002 113.2365236 -6.44671646 104.67321723 -6.44067383 96.10986328 C-6.43463019 87.26716276 -6.44695334 78.4246212 -6.4682439 69.5819478 C-6.4858382 61.99633025 -6.49186476 54.41076339 -6.48860615 46.82512617 C-6.48678992 42.29168344 -6.48946331 37.75835413 -6.50332069 33.22492981 C-6.51585945 28.96332841 -6.51399268 24.7019756 -6.50090981 20.44037819 C-6.49853594 18.87422923 -6.50130756 17.30806298 -6.50953293 15.74193382 C-6.51993414 13.60805954 -6.51195442 11.47502971 -6.4992218 9.34118652 C-6.49938954 8.14583031 -6.49955729 6.95047409 -6.49973011 5.71889496 C-6.125 2.8125 -6.125 2.8125 -4.79692364 0.89273834 C-3.125 -0.1875 -3.125 -0.1875 0 0 Z " fill="#000000" transform="translate(257.125,198.1875)"/>
<path d="M0 0 C1.96794525 -0.01913956 1.96794525 -0.01913956 3.97564697 -0.03866577 C5.40140637 -0.04172421 6.82716776 -0.04395155 8.25292969 -0.04541016 C9.72638069 -0.05184376 11.19983043 -0.05857253 12.67327881 -0.06558228 C15.75991778 -0.07754128 18.84644497 -0.08126468 21.93310547 -0.08007812 C25.86821518 -0.07987536 29.80259923 -0.10713848 33.73753738 -0.14162254 C36.78152691 -0.16397958 39.82534447 -0.16791295 42.86940765 -0.16685867 C44.31894168 -0.16920291 45.7684813 -0.17795941 47.21793365 -0.19352341 C56.37496352 -0.28262119 64.29816163 0.0411708 71.61621094 6.10693359 C72.06867188 6.68314453 72.52113281 7.25935547 72.98730469 7.85302734 C73.46296875 8.43181641 73.93863281 9.01060547 74.42871094 9.60693359 C75.42480469 11.29052734 75.42480469 11.29052734 75.42480469 14.29052734 C43.74480469 14.29052734 12.06480469 14.29052734 -20.57519531 14.29052734 C-19.4429154 8.6291278 -19.4429154 8.6291278 -15.82519531 5.60302734 C-14.81199219 4.73097656 -14.81199219 4.73097656 -13.77832031 3.84130859 C-9.28902228 0.68128852 -5.43992563 0.03599986 0 0 Z " fill="#E13D33" transform="translate(228.5751953125,101.70947265625)"/>
</svg>
