<?xml version="1.0" encoding="UTF-8"?>
<svg version="1.1" xmlns="http://www.w3.org/2000/svg" width="512" height="512">
<path d="M0 0 C2.39632831 -0.0043531 4.79265523 -0.00953823 7.1889801 -0.01548767 C12.9972276 -0.02744419 18.80542124 -0.03003661 24.61367955 -0.02768741 C29.34148078 -0.02589622 34.06926807 -0.02767096 38.79706764 -0.03191185 C39.47284813 -0.03250704 40.14862861 -0.03310223 40.84488729 -0.03371545 C42.21826619 -0.03492735 43.59164508 -0.03614149 44.96502397 -0.03735783 C57.81504021 -0.04820833 70.66503013 -0.04608301 83.51504783 -0.03997298 C95.23237341 -0.03480897 106.94961573 -0.04605009 118.66692486 -0.0650712 C130.73822364 -0.08451457 142.80948316 -0.09269408 154.88079768 -0.08894795 C161.6418242 -0.08704535 168.40277994 -0.08943056 175.16379356 -0.10366249 C181.52755292 -0.11631316 187.89114674 -0.11422865 194.25490379 -0.1012516 C196.57749998 -0.09890178 198.90010808 -0.1015626 201.22269058 -0.10987473 C244.31047067 -0.25284106 282.09874014 14.03185124 313.2277832 44.2746582 C315.70462678 46.83654362 317.98528589 49.50620203 320.2277832 52.2746582 C320.98704102 53.19633789 321.74629883 54.11801758 322.52856445 55.06762695 C337.9533505 74.17685145 348.22948657 96.24698065 353.2277832 120.2746582 C353.40145007 121.09062879 353.57511694 121.90659937 353.75404644 122.74729633 C355.83393852 134.11219391 355.51629363 145.53404235 355.50244141 157.046875 C355.5067945 159.44320331 355.51197964 161.83953023 355.51792908 164.2358551 C355.52988559 170.0441026 355.53247802 175.85229624 355.53012881 181.66055455 C355.52833762 186.38835578 355.53011236 191.11614307 355.53435326 195.84394264 C355.53494845 196.51972313 355.53554363 197.19550361 355.53615686 197.89176229 C355.53736876 199.26514119 355.53858289 200.63852008 355.53979924 202.01189897 C355.55064974 214.86191521 355.54852442 227.71190513 355.54241439 240.56192283 C355.53725038 252.27924841 355.54849149 263.99649073 355.56751261 275.71379986 C355.58695598 287.78509864 355.59513548 299.85635816 355.59138936 311.92767268 C355.58948676 318.6886992 355.59187197 325.44965494 355.6061039 332.21066856 C355.61875456 338.57442792 355.61667006 344.93802174 355.60369301 351.30177879 C355.60134318 353.62437498 355.604004 355.94698308 355.61231613 358.26956558 C355.74474937 398.18283851 343.92517792 433.2771101 317.2277832 463.2746582 C316.16246576 464.56400213 315.0993834 465.85520241 314.0402832 467.1496582 C310.76994674 470.92809779 307.08941331 474.11398406 303.2277832 477.2746582 C301.83946289 478.4193457 301.83946289 478.4193457 300.4230957 479.5871582 C281.31096307 495.00193972 259.25253905 505.27696935 235.2277832 510.2746582 C234.41181262 510.44832507 233.59584204 510.62199194 232.75514507 510.80092144 C221.3902475 512.88081352 209.96839906 512.56316863 198.45556641 512.54931641 C196.0592381 512.5536695 193.66291118 512.55885464 191.2665863 512.56480408 C185.45833881 512.57676059 179.65014517 512.57935302 173.84188686 512.57700381 C169.11408562 512.57521262 164.38629834 512.57698736 159.65849876 512.58122826 C158.98271828 512.58182345 158.3069378 512.58241863 157.61067912 512.58303186 C156.23730022 512.58424376 154.86392133 512.58545789 153.49054243 512.58667424 C140.6405262 512.59752474 127.79053628 512.59539942 114.94051858 512.58928939 C103.22319299 512.58412538 91.50595067 512.59536649 79.78864155 512.61438761 C67.71734277 512.63383098 55.64608324 512.64201048 43.57476872 512.63826436 C36.81374221 512.63636176 30.05278646 512.63874697 23.29177284 512.6529789 C16.92801349 512.66562956 10.56441967 512.66354506 4.20066261 512.65056801 C1.87806643 512.64821818 -0.44454167 512.650879 -2.76712418 512.65919113 C-42.68039711 512.79162437 -77.7746687 500.97205292 -107.7722168 474.2746582 C-109.06156073 473.20934076 -110.352761 472.1462584 -111.6472168 471.0871582 C-115.42565638 467.81682174 -118.61154265 464.13628831 -121.7722168 460.2746582 C-122.9169043 458.88633789 -122.9169043 458.88633789 -124.0847168 457.4699707 C-139.49949831 438.35783807 -149.77452795 416.29941405 -154.7722168 392.2746582 C-154.94588367 391.45868762 -155.11955053 390.64271704 -155.29848003 389.80202007 C-157.37837212 378.4371225 -157.06072722 367.01527406 -157.046875 355.50244141 C-157.0512281 353.1061131 -157.05641323 350.70978618 -157.06236267 348.3134613 C-157.07431919 342.50521381 -157.07691161 336.69702017 -157.07456241 330.88876186 C-157.07277122 326.16096062 -157.07454596 321.43317334 -157.07878685 316.70537376 C-157.07967963 315.69170304 -157.07967963 315.69170304 -157.08059045 314.65755412 C-157.08180235 313.28417522 -157.08301649 311.91079633 -157.08423283 310.53741743 C-157.09508333 297.6874012 -157.09295801 284.83741128 -157.08684798 271.98739358 C-157.08168397 260.27006799 -157.09292509 248.55282567 -157.1119462 236.83551655 C-157.13138957 224.76421777 -157.13956908 212.69295824 -157.13582295 200.62164372 C-157.13392035 193.86061721 -157.13630556 187.09966146 -157.15053749 180.33864784 C-157.16318816 173.97488849 -157.16110365 167.61129467 -157.1481266 161.24753761 C-157.14577678 158.92494143 -157.1484376 156.60233333 -157.15674973 154.27975082 C-157.28440569 115.80627168 -146.43112974 80.56586735 -120.7722168 51.2746582 C-120.09288086 50.47415039 -119.41354492 49.67364258 -118.71362305 48.84887695 C-114.4079308 43.8549454 -109.88633679 39.43205506 -104.7722168 35.2746582 C-103.84924805 34.51411133 -102.9262793 33.75356445 -101.9753418 32.9699707 C-82.86515422 17.54851498 -60.79891651 7.27275142 -36.7722168 2.2746582 C-35.95624621 2.10099133 -35.14027563 1.92732447 -34.29957867 1.74839497 C-22.93468109 -0.33149712 -11.51283265 -0.01385222 0 0 Z M-18.11019897 51.1570282 C-18.86490844 51.23351209 -19.61961791 51.30999599 -20.39719737 51.38879758 C-45.50659321 54.26327765 -68.97551812 68.95697625 -85.0222168 88.0871582 C-104.02548125 113.08315335 -106.92641279 140.51936302 -106.91748047 171.00756836 C-106.92047855 173.06582703 -106.92388256 175.12408514 -106.92765808 177.18234253 C-106.93643664 182.73640128 -106.9388336 188.29044459 -106.93947387 193.8445096 C-106.94018791 197.32525954 -106.94232892 200.80600563 -106.94497108 204.28675461 C-106.95420448 216.46062211 -106.95830853 228.63447872 -106.95751953 240.80834961 C-106.95691942 252.1065243 -106.96746343 263.40465115 -106.98326319 274.70281374 C-106.99639434 284.44430692 -107.00170109 294.18578456 -107.00106412 303.92728651 C-107.00081075 309.72701986 -107.00357206 315.52671065 -107.01424217 321.32643509 C-107.02401744 326.7881518 -107.02393865 332.24978605 -107.01672554 337.71150589 C-107.01569128 339.69946414 -107.01797234 341.68742778 -107.024086 343.67537689 C-107.05240032 353.53199594 -106.83900303 363.28707889 -105.8898468 373.10336304 C-105.81336291 373.90547262 -105.73687901 374.7075822 -105.65807742 375.53399813 C-102.96508254 400.54576294 -88.41162703 424.47129148 -69.12670898 440.26806641 C-44.54355611 459.52087953 -17.20044379 462.42867322 13.04663086 462.41992188 C15.12606872 462.42291922 17.20550603 462.42632307 19.28494263 462.43009949 C24.90097491 462.43888564 30.51699192 462.44127534 36.13303041 462.44191527 C39.65145683 462.4426289 43.16987944 462.44476914 46.6883049 462.44741249 C58.99069208 462.4566485 71.29306846 462.46074962 83.59545898 462.45996094 C95.01803264 462.4593608 106.44055898 462.46990459 117.86312068 462.4857046 C127.70733727 462.49883054 137.55153849 462.50414271 147.39576375 462.50350553 C153.25863715 462.503252 159.12146845 462.50602225 164.98433304 462.51668358 C170.50512897 462.52644991 176.02584329 462.52638598 181.5466423 462.51916695 C183.55759553 462.51813159 185.56855407 462.52042054 187.57949829 462.5265274 C197.28969525 462.55407447 206.89944075 462.38023189 216.56576538 461.39228821 C217.32047485 461.31580431 218.07518432 461.23932042 218.85276377 461.16051883 C236.93566189 459.09042003 254.21580817 450.68939799 268.2277832 439.2746582 C269.46915039 438.27885742 269.46915039 438.27885742 270.7355957 437.26293945 C289.50586144 421.3464602 302.01576917 397.98563389 304.51466846 373.45887184 C305.34999052 362.81554569 305.37617301 352.21200893 305.37304688 341.54174805 C305.37604496 339.48348938 305.37944896 337.42523127 305.38322449 335.36697388 C305.39200305 329.81291513 305.39440001 324.25887182 305.39504027 318.7048068 C305.39575432 315.22405687 305.39789533 311.74331077 305.40053749 308.2625618 C305.40977088 296.08869429 305.41387493 283.91483769 305.41308594 271.7409668 C305.41248582 260.4427921 305.42302983 249.14466526 305.4388296 237.84650266 C305.45196075 228.10500949 305.4572675 218.36353184 305.45663053 208.6220299 C305.45637716 202.82229654 305.45913847 197.02260576 305.46980858 191.22288132 C305.47958385 185.76116461 305.47950505 180.29953036 305.47229195 174.83781052 C305.47125768 172.84985227 305.47353875 170.86188863 305.4796524 168.87393951 C305.50796673 159.01732046 305.29456944 149.26223752 304.34541321 139.44595337 C304.26892931 138.64384379 304.19244542 137.84173421 304.11364383 137.01531827 C301.39436579 111.75944301 286.64059385 88.15115233 267.4152832 72.0246582 C242.68970736 53.22698067 215.57962671 50.12066528 185.40893555 50.12939453 C183.32949768 50.12639718 181.25006037 50.12299334 179.17062378 50.11921692 C173.5545915 50.11043077 167.93857448 50.10804107 162.32253599 50.10740113 C158.80410958 50.1066875 155.28568697 50.10454727 151.76726151 50.10190392 C139.46487433 50.09266791 127.16249795 50.08856679 114.86010742 50.08935547 C103.43753376 50.08995561 92.01500743 50.07941182 80.59244573 50.06361181 C70.74822914 50.05048587 60.90402792 50.04517369 51.05980265 50.04581088 C45.19692926 50.04606441 39.33409796 50.04329416 33.47123337 50.03263283 C27.95043744 50.02286649 22.42972311 50.02293043 16.9089241 50.03014946 C14.89797088 50.03118482 12.88701234 50.02889587 10.87606812 50.022789 C1.16587116 49.99524194 -8.44387434 50.16908452 -18.11019897 51.1570282 Z " fill="#1D88E5" transform="translate(156.772216796875,-0.274658203125)"/>
<path d="M0 0 C14.4497098 13.24769854 21.95300434 30.474761 23.42578125 49.91015625 C23.78004186 60.96603931 21.64224665 71.9799965 16.87890625 81.97265625 C16.03772894 84.54020327 16.2708345 85.49762704 17.20703125 88.0234375 C18.95882043 90.17604014 18.95882043 90.17604014 21.22021484 92.29785156 C22.07134857 93.13262024 22.9224823 93.96738892 23.79940796 94.82745361 C24.72540802 95.72228455 25.65140808 96.61711548 26.60546875 97.5390625 C27.56193558 98.47722017 28.51737542 99.41642592 29.47183228 100.35662842 C33.52133808 104.34207968 37.58865721 108.30911513 41.6640625 112.26806641 C44.15926825 114.69339079 46.64185607 117.13107882 49.11751175 119.57634735 C50.51442231 120.94852156 51.92547134 122.30625493 53.33676147 123.66363525 C59.32351247 129.58014084 62.66549209 133.969072 63.58203125 142.5234375 C62.90018907 148.88729789 60.86388599 154.4924437 56.20703125 159.0234375 C51.09844621 162.71566128 46.32462074 163.47985208 40.11328125 163.5546875 C30.90651574 161.87173036 25.30755282 155.65894042 19.01953125 149.2265625 C18.0677766 148.26733282 17.11512404 147.30899331 16.16162109 146.35150146 C13.67359544 143.84831868 11.19782712 141.33335591 8.72454834 138.81561279 C6.19094591 136.24084175 3.64575615 133.67757971 1.1015625 131.11328125 C-3.87458241 126.09444109 -8.83784974 121.06304489 -13.79296875 116.0234375 C-14.96214844 116.44496094 -16.13132812 116.86648438 -17.3359375 117.30078125 C-18.88404954 117.85434859 -20.43223026 118.40772391 -21.98046875 118.9609375 C-22.74939453 119.23873047 -23.51832031 119.51652344 -24.31054688 119.80273438 C-41.40055725 125.89059215 -61.11663102 124.71674488 -77.6171875 117.36328125 C-96.6040714 108.31609687 -108.42073747 92.75956192 -115.828125 73.3046875 C-121.13804095 56.11537819 -118.48325599 36.65974754 -110.98046875 20.6484375 C-108.10944761 15.28680551 -104.81205333 10.58116228 -100.79296875 6.0234375 C-100.13683594 5.27320313 -99.48070312 4.52296875 -98.8046875 3.75 C-72.40977672 -24.52681484 -28.66695706 -24.17471985 0 0 Z " fill="#63B4F5" transform="translate(350.79296875,166.9765625)"/>
<path d="M0 0 C0.80887981 -0.00538554 1.61775963 -0.01077108 2.45115095 -0.01631981 C5.14716165 -0.03056648 7.84267908 -0.02350389 10.53871155 -0.01637268 C12.47748203 -0.02207796 14.41624915 -0.02904283 16.35501099 -0.03717041 C21.61121286 -0.05509918 26.86724776 -0.05393397 32.12347102 -0.04822803 C36.51465542 -0.04513586 40.90580776 -0.05122893 45.29698759 -0.05726677 C55.65753733 -0.07130939 66.0180046 -0.0697528 76.3785553 -0.05836487 C87.06057703 -0.04688292 97.74234772 -0.0609613 108.42433637 -0.08776134 C117.60246387 -0.10992466 126.7805126 -0.11655431 135.95866495 -0.11068493 C141.43734758 -0.1073158 146.91586927 -0.10972768 152.39452934 -0.12693596 C157.5467857 -0.14241306 162.69867038 -0.13844088 167.85091209 -0.11963081 C169.7390867 -0.11594712 171.6272889 -0.11904698 173.51543808 -0.1295166 C176.09852783 -0.14274341 178.6803901 -0.13116465 181.26342773 -0.11352539 C182.00575793 -0.1231304 182.74808812 -0.1327354 183.51291317 -0.14263147 C189.78820824 -0.05481531 194.83822656 2.03025131 199.68348694 6.02830505 C204.46085391 11.83442657 207.34652864 17.72858596 206.97254944 25.38768005 C205.92908813 32.91235877 202.21606685 38.27882346 196.69520569 43.38768005 C190.63181204 47.14698411 184.93485888 47.53655493 177.94136047 47.52812195 C177.16756349 47.53109307 176.39376651 47.53406419 175.59652114 47.53712535 C173.00733466 47.54578704 170.41819456 47.54731845 167.82899475 47.54881287 C165.97096152 47.55344283 164.11292925 47.55846773 162.25489807 47.56385803 C157.20929658 47.57696677 152.16370839 47.583424 147.11809254 47.58786869 C143.96428817 47.59080184 140.81048742 47.5949071 137.65668488 47.59937286 C127.78474134 47.61304368 117.91280609 47.62271241 108.04085374 47.62657475 C96.65329951 47.63105482 85.26586536 47.64860213 73.87834764 47.67757535 C65.07053325 47.69920557 56.26275261 47.70927975 47.45491195 47.71061587 C42.19695273 47.71166292 36.93910644 47.71754955 31.68117523 47.73543549 C26.73338428 47.75193932 21.78579088 47.75406041 16.83798218 47.74529648 C15.02601339 47.74452735 13.21403387 47.74885241 11.40209198 47.75875473 C-0.52042306 47.82007024 -10.4812008 47.85874531 -19.64463806 39.22361755 C-24.31181876 34.06226478 -25.65028297 28.32530496 -25.51182556 21.52830505 C-24.79969861 14.16518109 -20.93673088 8.09139004 -15.30479431 3.38768005 C-10.1076818 0.73989682 -5.84714928 -0.04719779 0 0 Z " fill="#63B4F6" transform="translate(123.30479431152344,315.61231994628906)"/>
<path d="M0 0 C9.2006499 7.27252496 15.91530732 17.32572097 18 29 C18.84322271 42.17993753 16.01463896 53.63967981 7.68359375 64.08984375 C0.77599643 71.92700172 -8.33360905 78.16750379 -19.0078125 79.19287109 C-32.9374928 79.72294426 -43.8242932 78.37518557 -54.90234375 69.06640625 C-64.72816626 59.38696471 -69.31099945 48.67480965 -69.5625 35 C-69.45527037 23.15790462 -65.217296 13.56311407 -57 5 C-40.17471415 -10.2791785 -19.37022018 -12.17268074 0 0 Z " fill="#1E88E5" transform="translate(329,184)"/>
<path d="M0 0 C0.72944321 -0.00335861 1.45888641 -0.00671722 2.21043396 -0.01017761 C4.60132591 -0.01961038 6.99214729 -0.02162666 9.38305664 -0.02270508 C11.05782601 -0.02592237 12.7325951 -0.0292868 14.40736389 -0.03279114 C17.90992891 -0.03876276 21.41246932 -0.040633 24.91503906 -0.04003906 C29.3880376 -0.03993741 33.86087751 -0.05360164 38.33383846 -0.07081127 C41.79037695 -0.08196457 45.24687745 -0.08395727 48.70343208 -0.08342934 C50.35194 -0.08460397 52.00044908 -0.08899651 53.64893913 -0.0967617 C55.96008107 -0.10663171 58.27088307 -0.1036565 60.58203125 -0.09765625 C61.89328476 -0.09908127 63.20453827 -0.10050629 64.55552673 -0.10197449 C71.98550854 0.38141631 78.62430873 2.24662764 84.35571289 7.14526367 C90.0521218 14.36447496 91.18540952 21.06469503 90.35571289 30.14526367 C88.31686132 36.92666128 83.89274299 41.71053145 77.91821289 45.39526367 C72.29938786 48.15538825 66.90346087 48.29460437 60.7331543 48.29052734 C59.99410355 48.29388596 59.2550528 48.29724457 58.49360657 48.30070496 C56.06481213 48.31015779 53.63608705 48.31215516 51.20727539 48.31323242 C49.50865654 48.31644878 47.81003796 48.31981314 46.11141968 48.32331848 C42.55579995 48.32929546 39.00020447 48.33115984 35.44458008 48.33056641 C30.90317251 48.33046483 26.36192143 48.34411889 21.82055092 48.36133862 C18.31339818 48.37249217 14.80628288 48.37448459 11.29911423 48.37395668 C9.62548661 48.37513166 7.95185786 48.37952623 6.27824783 48.38728905 C3.93107585 48.39715765 1.58423867 48.39418416 -0.76293945 48.38818359 C-1.44475784 48.3938031 -2.12657623 48.39942261 -2.82905579 48.4052124 C-11.19051851 48.35127333 -18.12667721 46.48995071 -24.27709961 40.57495117 C-29.31398101 35.14874561 -31.14666142 29.68247289 -30.88647461 22.18041992 C-29.98872341 14.6364139 -26.12767189 9.24117158 -20.64428711 4.14526367 C-14.28337324 0.03717347 -7.39519557 0.0215108 0 0 Z " fill="#64B5F5" transform="translate(128.644287109375,231.854736328125)"/>
<path d="M0 0 C0.75680557 -0.0049649 1.51361115 -0.00992981 2.29335022 -0.01504517 C4.7876986 -0.0296042 7.28198336 -0.03645874 9.77636719 -0.04199219 C11.51885987 -0.04774932 13.26135254 -0.05350697 15.00384521 -0.05926514 C18.65539849 -0.0697577 22.30692987 -0.0756116 25.95849609 -0.07910156 C30.61984495 -0.08457894 35.28090064 -0.10859813 39.94215775 -0.13707352 C43.54200058 -0.15576961 47.14177381 -0.16090922 50.74166107 -0.16243744 C52.45913035 -0.16544938 54.17659884 -0.17342822 55.89402008 -0.18662262 C76.95251002 -0.33684569 76.95251002 -0.33684569 85.74902344 6.53222656 C90.42664029 11.37234127 92.61016225 17.11580447 92.82324219 23.78613281 C92.49279933 30.10920148 91.15026017 34.91651072 87.13574219 39.84863281 C80.67813681 45.15821946 75.92711881 47.91885139 67.46386719 47.79223633 C66.61723511 47.79939163 65.77060303 47.80654694 64.89831543 47.81391907 C62.12272813 47.83071374 59.34877727 47.81145837 56.57324219 47.79003906 C54.63085802 47.79086861 52.68847394 47.79333124 50.74609375 47.79734802 C46.68435418 47.80019971 42.62316796 47.78556632 38.56152344 47.75805664 C33.36974231 47.72397515 28.17895005 47.72999819 22.98712158 47.74871922 C18.9789209 47.75931598 14.97094808 47.75032707 10.96276855 47.7353344 C9.04911985 47.73017178 7.13544716 47.73061094 5.22180176 47.73687935 C2.54155775 47.74236403 -0.13729733 47.72185339 -2.81738281 47.69458008 C-3.59891724 47.70110596 -4.38045166 47.70763184 -5.18566895 47.71435547 C-11.60623031 47.60393489 -16.69740396 45.61953874 -21.66503906 41.52050781 C-26.44240604 35.7143863 -29.32808077 29.8202269 -28.95410156 22.16113281 C-27.91064026 14.6364541 -24.19761897 9.26998941 -18.67675781 4.16113281 C-12.64363711 0.42059798 -6.96040897 0.01101166 0 0 Z " fill="#63B5F6" transform="translate(126.6767578125,148.8388671875)"/>
<path d="M0 0 C8.47283519 7.07669491 16.19866623 14.90106211 24.02587891 22.67578125 C25.84379094 24.47707498 27.66705987 26.27297824 29.49560547 28.06347656 C32.14996896 30.66302737 34.78746111 33.2786896 37.421875 35.8984375 C38.23750916 36.69140228 39.05314331 37.48436707 39.89349365 38.30136108 C45.50640333 43.93537529 48.50865382 48.4141023 49.375 56.5 C48.69315782 62.86386039 46.65685474 68.4690062 42 73 C36.89141496 76.69222378 32.11758949 77.45641458 25.90625 77.53125 C16.69948449 75.84829286 11.10052157 69.63550292 4.8125 63.203125 C3.86074535 62.24389532 2.90809279 61.28555581 1.95458984 60.32806396 C-0.53343581 57.82488118 -3.00920413 55.30991841 -5.48248291 52.79217529 C-8.01608534 50.21740425 -10.5612751 47.65414221 -13.10546875 45.08984375 C-18.08161366 40.07100359 -23.04488099 35.03960739 -28 30 C-26.81094701 26.43284102 -25.98737275 26.10240052 -22.875 24.1875 C-14.22014143 18.58166743 -8.89824832 12.48834867 -3 4 C-2.00645629 2.66184879 -1.00894579 1.32657687 0 0 Z " fill="#1E88E5" transform="translate(365,253)"/>
</svg>
