<?xml version="1.0" encoding="UTF-8"?>
<svg version="1.1" xmlns="http://www.w3.org/2000/svg" width="512" height="512">
<path d="M0 0 C0.69480469 0.52207031 1.38960937 1.04414063 2.10546875 1.58203125 C20.89810768 16.50433264 33.09901963 42.59875831 36 66 C36.655109 79.54749965 36.70662258 92.87438412 33 106 C32.73316406 106.99257813 32.46632813 107.98515625 32.19140625 109.0078125 C24.16904311 135.74902298 5.72136495 156.97668279 -18.70068359 170.21777344 C-41.95000263 182.29667745 -70.95945308 185.14482465 -96.04541016 177.36572266 C-124.22472308 168.10371541 -145.72139946 149.26487598 -159.140625 122.94140625 C-170.3812832 99.87058487 -171.70429197 71.36291003 -164 47 C-163.649375 45.86046875 -163.29875 44.7209375 -162.9375 43.546875 C-154.58180228 19.52424406 -135.72857654 -1.63870627 -113 -13 C-74.83415489 -30.75467601 -32.94208427 -25.69918892 0 0 Z M-73.8125 26.8125 C-75.43669618 29.80444033 -75.48032165 31.63774843 -75 35 C-73.20006226 37.69990662 -71.916227 39.5418865 -69 41 C-65.05203426 41.3724496 -62.66959967 41.34935635 -59.125 39.5 C-56.66712069 36.60837728 -55.9829264 34.77473212 -55.73828125 31.03515625 C-56.24169054 27.12058547 -58.04961347 25.57374144 -61 23 C-66.68216558 20.98756636 -69.72522693 22.72522693 -73.8125 26.8125 Z M-83 58 C-85.35618542 60.88599388 -85.35618542 60.88599388 -84.8125 64.5 C-84.20466412 67.83367036 -84.20466412 67.83367036 -82.9375 69.9375 C-80.19920157 71.64111015 -80.19920157 71.64111015 -73 71 C-73 87.17 -73 103.34 -73 120 C-74.98 120 -76.96 120 -79 120 C-82.34265205 121.20706879 -82.94704566 121.92056849 -85 125 C-84.77388655 129.59608405 -84.77388655 129.59608405 -82.86669922 133.68945312 C-78.85246088 136.50771514 -73.00692446 135.51663181 -68.23095703 135.50097656 C-66.13824007 135.50000614 -64.0492167 135.54158021 -61.95703125 135.5859375 C-60.61979928 135.59114658 -59.28255462 135.59383266 -57.9453125 135.59375 C-56.73375488 135.60083984 -55.52219727 135.60792969 -54.27392578 135.61523438 C-50.08798815 134.82861522 -48.58286298 133.32335288 -46 130 C-46 126.63519924 -46.33992689 124.83226609 -48.4375 122.1875 C-51.64608953 119.74897196 -54.04034799 119.91392061 -58 120 C-57.99333817 118.92338104 -57.99333817 118.92338104 -57.98654175 117.82501221 C-57.94644713 111.05685358 -57.91600647 104.28871274 -57.89637566 97.52046585 C-57.88594392 94.04093606 -57.87179599 90.56150451 -57.84912109 87.08203125 C-57.82320905 83.08071963 -57.81352218 79.07951103 -57.8046875 75.078125 C-57.79436493 73.83009094 -57.78404236 72.58205688 -57.77340698 71.29620361 C-57.77325592 70.13530212 -57.77310486 68.97440063 -57.77294922 67.77832031 C-57.76628738 66.24609833 -57.76628738 66.24609833 -57.75949097 64.68292236 C-58.00638233 61.92880394 -58.52777611 60.31918054 -60 58 C-63.5127245 55.38202608 -67.25396528 55.73328333 -71.5 55.75 C-73.46453125 55.74226563 -73.46453125 55.74226563 -75.46875 55.734375 C-78.69093619 55.97675184 -80.4031449 56.16260252 -83 58 Z " fill="#347FFF" transform="translate(368,255)"/>
<path d="M0 0 C0.68904566 -0.00453111 1.37809133 -0.00906223 2.08801717 -0.01373065 C4.37850594 -0.02631012 6.66875497 -0.0247585 8.95927429 -0.02310181 C10.60908816 -0.0290911 12.25889924 -0.03589757 13.90870667 -0.04345703 C18.3778444 -0.0610834 22.84690548 -0.06581099 27.31607461 -0.0670886 C30.11176803 -0.06851266 32.90744212 -0.07278708 35.70313072 -0.07808304 C45.46642158 -0.09657216 55.22965791 -0.10475505 64.9929657 -0.10317993 C74.0776315 -0.10197882 83.16205962 -0.12307805 92.2466653 -0.15466726 C100.06007286 -0.18086299 107.87340295 -0.19154585 115.68685406 -0.19026911 C120.34737494 -0.18976045 125.00768446 -0.19539049 129.66816139 -0.21662521 C134.05382286 -0.2360633 138.43907256 -0.23609424 142.82474899 -0.22159195 C144.42828031 -0.21950965 146.03183778 -0.22417007 147.63532448 -0.23631287 C159.06972446 -0.31724942 168.5784966 0.39981319 177.1282196 8.72372437 C177.61100907 9.18710362 178.09379854 9.65048288 178.59121799 10.12790394 C180.34710885 11.82498372 182.07792309 13.54566616 183.80961609 15.26742554 C185.31972867 16.74961093 186.83033396 18.23129443 188.34132385 19.71258545 C193.3285511 24.61805422 198.28605581 29.55305322 203.23723292 34.49485373 C204.72505772 35.97971609 206.21345431 37.46400306 207.70201302 38.94812965 C212.37778893 43.61030791 217.05161702 48.2744255 221.72254556 52.94146031 C227.08282899 58.29724739 232.44962755 63.64639278 237.82206911 68.98998326 C242.00177628 73.14803158 246.17565957 77.3118682 250.34521872 81.48009235 C252.82486227 83.95869318 255.30682267 86.43485692 257.79491997 88.90497398 C260.56463973 91.65505445 263.32222859 94.41710771 266.0789032 97.18026733 C266.89299149 97.98514084 267.70707977 98.79001434 268.5458374 99.61927795 C276.68226747 107.81570783 282.01934368 115.38500157 282.05845642 127.2331543 C282.05126587 128.12795502 282.04407532 129.02275574 282.03666687 129.94467163 C282.03695892 130.90139771 282.03725098 131.85812378 282.03755188 132.84384155 C282.03616321 135.99294231 282.02062366 139.14180382 282.00492859 142.29086304 C282.00119682 144.47947053 281.99835062 146.66807969 281.99635315 148.85668945 C281.98872963 154.60733684 281.96909207 160.35788264 281.94694519 166.10848999 C281.9264592 171.98046495 281.91734554 177.85245637 281.90727234 183.72445679 C281.88584503 195.23882425 281.85172449 206.75311643 281.80961609 218.26742554 C281.0293369 217.67398126 281.0293369 217.67398126 280.23329449 217.0685482 C275.76016577 213.68268361 275.76016577 213.68268361 271.09326172 210.57446289 C266.92177032 207.6876412 265.06765358 205.51546823 264.02503967 200.47268677 C263.62130699 195.64117148 263.74660273 190.82022554 263.85258484 185.97836304 C263.85709434 184.18813638 263.85704597 182.39789299 263.85266113 180.60766602 C263.8507034 175.9107349 263.89884378 171.21578605 263.96122742 166.51931763 C264.05506604 158.99706667 264.08293742 151.47469135 264.09086037 143.95192337 C264.10240691 141.3312478 264.14176736 138.71206625 264.18441772 136.09173584 C264.19469329 134.48021964 264.20416109 132.86869801 264.21269226 131.25717163 C264.23186203 130.53390182 264.2510318 129.81063202 264.27078247 129.06544495 C264.26400554 123.99430175 262.98803745 121.1731868 259.80961609 117.26742554 C255.15099737 113.80332444 250.61517652 113.14957087 244.91850281 113.12557983 C243.97336823 113.11854538 243.02823364 113.11151093 242.05445862 113.10426331 C241.04295746 113.10009903 240.0314563 113.09593475 238.98930359 113.09164429 C236.82262731 113.06843648 234.65596062 113.04431876 232.48930359 113.01937866 C229.0927547 112.98437531 225.6965572 112.95497291 222.29985046 112.9414978 C219.00840659 112.92590423 215.71797551 112.88561599 212.42680359 112.84164429 C211.42744781 112.8435527 210.42809204 112.84546112 209.39845276 112.84742737 C198.15517438 112.65510056 188.96500322 109.052814 180.80961609 101.26742554 C169.91836146 89.85856673 168.70203269 76.8068166 168.63383484 61.75570679 C168.61065989 59.76155534 168.58654355 57.76741464 168.56156921 55.77328491 C168.52636302 52.66603081 168.49702705 49.55918189 168.48368835 46.45175171 C168.46820915 43.42759081 168.42803739 40.4045665 168.38383484 37.38070679 C168.38669746 35.99302849 168.38669746 35.99302849 168.38961792 34.57731628 C168.28384598 28.98800419 167.57499535 25.68172355 163.80961609 21.26742554 C158.68491101 17.4567474 153.73708205 17.14317777 147.49839783 17.13371277 C145.58917038 17.12731529 145.58917038 17.12731529 143.64137268 17.12078857 C142.23814389 17.12113806 140.83491512 17.12159958 139.4316864 17.12216187 C137.94803279 17.11916835 136.46437996 17.11576537 134.98072815 17.11198425 C130.95575074 17.10315836 126.9307946 17.10080669 122.90580845 17.10016847 C120.38854057 17.09945701 117.87127808 17.09732085 115.35401154 17.09467125 C106.56446999 17.08542158 97.77494359 17.08133578 88.98539734 17.0821228 C80.80514033 17.08272308 72.62494937 17.0721802 64.44470906 17.05637914 C57.41182625 17.04328071 50.37896496 17.03793989 43.34607005 17.03857821 C39.15006993 17.03883258 34.95412849 17.03601549 30.75814056 17.02540016 C26.80843623 17.01568069 22.85884621 17.01566625 18.90913773 17.02291679 C17.46483568 17.02395796 16.02052638 17.02162775 14.57623672 17.01555634 C-0.24905442 16.79635308 -0.24905442 16.79635308 -13.19038391 23.26742554 C-19.99951023 30.13329457 -21.3130451 37.3090992 -21.31901836 46.72776508 C-21.32224281 48.01605066 -21.32546726 49.30433623 -21.32878941 50.63166076 C-21.3273184 52.05413848 -21.32575069 53.47661611 -21.32409668 54.89909363 C-21.32596543 56.41578483 -21.32826639 57.93247556 -21.330962 59.44916552 C-21.33707845 63.61401857 -21.33694659 67.77885155 -21.33576763 71.94370806 C-21.33556358 76.4366624 -21.34108274 80.9296103 -21.3458252 85.42256165 C-21.35413142 94.22396852 -21.35688002 103.0253687 -21.35743757 111.82677916 C-21.35791274 118.98092735 -21.35996752 126.13507332 -21.3631382 133.28922081 C-21.37194464 153.57239253 -21.37655758 173.85555895 -21.37580772 194.13873259 C-21.37574779 195.77891875 -21.37574779 195.77891875 -21.37568665 197.45223999 C-21.37564576 198.54703242 -21.37560488 199.64182486 -21.37556276 200.76979282 C-21.37515628 218.51395552 -21.38472643 236.258097 -21.39882501 254.00225357 C-21.413187 272.22167843 -21.4200953 290.44109293 -21.41923124 308.66052359 C-21.41889921 318.88940717 -21.42164883 329.11826851 -21.43240929 339.34714699 C-21.44151194 348.05593303 -21.44369146 356.76468675 -21.43689986 365.47347549 C-21.4336335 369.91606436 -21.4335822 374.35859119 -21.44225311 378.80117416 C-21.45011382 382.87052369 -21.44869106 386.93976194 -21.43996898 391.00910874 C-21.43843305 392.47879766 -21.44025366 393.94849486 -21.44582906 395.41817401 C-21.67021907 410.286555 -21.67021907 410.286555 -15.19038391 423.26742554 C-7.37382933 431.01938049 1.12824716 431.4189238 11.58190918 431.40113831 C12.5607382 431.40340386 13.53956723 431.40566942 14.54805773 431.40800363 C17.82511591 431.41432935 21.10213257 431.41351518 24.37919617 431.41268921 C26.72998101 431.41568159 29.08076537 431.4190843 31.43154907 431.42286682 C37.81589461 431.43170298 44.20022674 431.43404478 50.5845778 431.43468261 C55.24312698 431.43551258 59.90167318 431.43841217 64.56022131 431.44151909 C77.09082081 431.44982153 89.62141321 431.45356165 102.15201537 431.45284935 C103.21869838 431.45278942 103.21869838 431.45278942 104.30693054 431.45272827 C105.01892428 431.45268739 105.73091803 431.45264651 106.46448734 431.45260439 C118.00078956 431.45219802 129.53705912 431.46176602 141.0733519 431.47586664 C152.92854773 431.49024231 164.78372764 431.49713616 176.63893241 431.49627286 C183.29077252 431.4959413 189.94258254 431.4988658 196.59441566 431.50945091 C202.85132062 431.51913571 209.1081533 431.51920839 215.36506081 431.51193428 C217.65918076 431.51088892 219.95330522 431.51324842 222.24741745 431.51929474 C225.3838204 431.52702443 228.51997439 431.52236324 231.65637207 431.5146637 C233.01165102 431.52237904 233.01165102 431.52237904 234.39430934 431.53025025 C246.11306754 431.46686515 252.60787357 428.62881955 261.80961609 421.26742554 C265.76961609 425.22742554 269.72961609 429.18742554 273.80961609 433.26742554 C267.48199861 441.33513782 260.77127206 445.7466002 250.80961609 448.26742554 C247.20258614 448.67038158 243.63348047 448.67757366 240.00666809 448.65510559 C238.42644043 448.6631839 238.42644043 448.6631839 236.81428897 448.6714254 C233.30235683 448.68567406 229.79080324 448.6786087 226.27885437 448.67147827 C223.75353188 448.67718345 221.22821197 448.68414828 218.70289612 448.692276 C212.56621811 448.70834598 206.4296787 448.71031123 200.29298605 448.7050631 C195.30234245 448.70101349 190.31172905 448.70247432 185.32108688 448.70781136 C184.60943904 448.70855978 183.89779121 448.7093082 183.16457828 448.7100793 C181.71862912 448.71161086 180.27267997 448.71314921 178.82673083 448.71469427 C165.28162294 448.72840688 151.73657288 448.72299046 138.19146632 448.71150906 C125.816014 448.7015791 113.44071125 448.7145154 101.065282 448.73844325 C88.33985877 448.76286129 75.61450512 448.77243541 62.88905895 448.76579052 C55.75203087 448.76230415 48.61511775 448.76449167 41.47810745 448.78204155 C34.76554162 448.79834379 28.05330628 448.79353992 21.34073257 448.7747364 C18.88135838 448.77105422 16.42196299 448.77414809 13.96260834 448.78462219 C10.59692257 448.79785861 7.23217734 448.78625991 3.86653137 448.76863098 C2.90084705 448.77823599 1.93516272 448.78784099 0.94021523 448.79773706 C-10.09321405 448.6794012 -19.21449595 444.88145847 -27.19038391 437.26742554 C-39.23399274 424.65144718 -39.34347378 409.82791518 -39.32409668 393.3019104 C-39.32596703 391.7854808 -39.32826862 390.26905168 -39.330962 388.75262332 C-39.3370587 384.60227074 -39.33694893 380.45193837 -39.33576763 376.30158234 C-39.33556308 371.81882926 -39.34108751 367.33608259 -39.3458252 362.85333252 C-39.35412056 354.07706332 -39.35687953 345.30080085 -39.35743757 336.52452806 C-39.35791325 329.38860194 -39.35997059 322.25267804 -39.3631382 315.11675262 C-39.37194165 294.871568 -39.37655805 274.62638868 -39.37580772 254.38120213 C-39.37574779 252.74513662 -39.37574779 252.74513662 -39.37568665 251.07601929 C-39.37564576 249.9839726 -39.37560488 248.89192591 -39.37556276 247.7667869 C-39.37515636 230.07078284 -39.38472534 212.37480007 -39.39882501 194.67880216 C-39.41319836 176.49542341 -39.42009467 158.31205503 -39.41923124 140.12867045 C-39.4188996 129.925414 -39.42163194 119.72217986 -39.43240929 109.51892853 C-39.44152688 100.83155628 -39.44367918 92.14421647 -39.43689986 83.4568415 C-39.43364106 79.02791297 -39.43355484 74.59904662 -39.44225311 70.17012405 C-39.45014731 66.10870346 -39.44865705 62.04739405 -39.43996898 57.98597607 C-39.4384404 56.52370803 -39.44022569 55.06143156 -39.44582906 53.59917346 C-39.50556833 36.89108562 -38.25203756 22.91039122 -26.43257141 10.31039429 C-18.77933748 3.33715153 -10.35544549 0.02829114 0 0 Z " fill="#1E9BFF" transform="translate(102.19038391113281,31.732574462890625)"/>
<path d="M0 0 C3.24234982 1.42798536 5.43590848 3.16958103 7.95483398 5.6484375 C9.1013871 6.77100952 9.1013871 6.77100952 10.27110291 7.91625977 C11.08784988 8.72764404 11.90459686 9.53902832 12.74609375 10.375 C13.59422134 11.21409912 14.44234894 12.05319824 15.31617737 12.91772461 C17.1100819 14.69712051 18.90118647 16.47934297 20.68969727 18.26416016 C23.41155282 20.97416579 26.15148126 23.66494563 28.89257812 26.35546875 C30.63656812 28.08998887 32.37944281 29.82563123 34.12109375 31.5625 C35.34317787 32.75528564 35.34317787 32.75528564 36.58995056 33.97216797 C43.19507246 40.62959351 48.82631456 48.27361525 49 58 C48.40040994 65.46989284 46.04272799 71.40555122 41 77 C35.43740364 81.40591281 30.55059544 83.17199179 23.4375 83.375 C22.28121094 83.42398438 21.12492187 83.47296875 19.93359375 83.5234375 C9.73253136 82.16599722 2.99899977 75.71807219 -3.9453125 68.61328125 C-4.84120087 67.71506149 -5.73708923 66.81684174 -6.66012573 65.8914032 C-8.53679199 64.00504818 -10.40807955 62.1148795 -12.27148438 60.21557617 C-14.66246046 57.77890611 -17.06883465 55.35817445 -19.48091316 52.94241047 C-21.78754454 50.63030401 -24.08517641 48.30932211 -26.3828125 45.98828125 C-27.68099411 44.68205559 -27.68099411 44.68205559 -29.00540161 43.34944153 C-29.79397552 42.54488022 -30.58254944 41.74031891 -31.39501953 40.91137695 C-32.09321808 40.2025386 -32.79141663 39.49370026 -33.51077271 38.76338196 C-35 37 -35 37 -35 35 C-33.46296943 33.79276536 -31.86665431 32.66082023 -30.25 31.5625 C-18.87001778 23.43602552 -6.39729596 12.79459193 0 0 Z " fill="#4C62FF" transform="translate(400,397)"/>
<path d="M0 0 C1.21977036 -0.01272446 2.43954071 -0.02544891 3.6962738 -0.03855896 C5.04495433 -0.03237676 6.39363297 -0.02577075 7.74230957 -0.01878357 C9.16497188 -0.0258421 10.58762667 -0.03458684 12.01026917 -0.04489136 C15.87187093 -0.06740172 19.73306317 -0.06444217 23.59470558 -0.05556989 C26.81802834 -0.0504619 30.04127401 -0.05775091 33.26458883 -0.06504196 C40.86774521 -0.0820458 48.4707009 -0.07846988 56.07385254 -0.06175232 C63.91979226 -0.04482413 71.7651759 -0.06067362 79.6110549 -0.0929752 C86.34664069 -0.11965591 93.08205322 -0.12695145 99.81768656 -0.11846012 C103.84093982 -0.11352715 107.86385835 -0.11576627 111.8870697 -0.13624763 C115.6695517 -0.15458169 119.45123246 -0.14867521 123.23367119 -0.12404823 C124.62201473 -0.11903322 126.01041908 -0.12254819 127.39871407 -0.13519669 C129.2931816 -0.15109194 131.18784311 -0.13317833 133.08227539 -0.11352539 C134.67287151 -0.11264593 134.67287151 -0.11264593 136.29560089 -0.1117487 C139.0411377 0.5146637 139.0411377 0.5146637 141.38231659 2.86642551 C143.42492847 6.12736953 143.67188965 7.73015197 143.0411377 11.5146637 C141.38231659 14.16290188 141.38231659 14.16290188 139.0411377 16.5146637 C136.29560089 17.14107609 136.29560089 17.14107609 133.08227539 17.14285278 C131.86250504 17.15550674 130.64273468 17.16816071 129.38600159 17.18119812 C128.03731876 17.1698822 126.68864015 17.15805473 125.33996582 17.14576721 C123.91730354 17.15090619 122.49464763 17.15818731 121.07200623 17.16744995 C117.21028794 17.18597552 113.34925944 17.17301874 109.48756981 17.15335965 C105.44686446 17.13698105 101.40620307 17.14578494 97.36547852 17.15087891 C90.57968113 17.15540077 83.79415931 17.13952448 77.00842285 17.11158752 C69.16253482 17.07953502 61.31714381 17.07955093 53.47122049 17.09680229 C45.92451144 17.11266472 38.37798465 17.10593572 30.83128357 17.08886528 C27.61920827 17.08199166 24.40727894 17.08303036 21.19520569 17.09041023 C17.41278443 17.0980701 13.63092896 17.08595755 9.8486042 17.05856133 C8.46027366 17.05167313 7.07189032 17.05158425 5.68356133 17.05877686 C3.78903536 17.06746114 1.8944428 17.04908993 0 17.02932739 C-1.06039742 17.02652047 -2.12079483 17.02371355 -3.2133255 17.02082157 C-6.6386879 16.38933335 -7.82152647 15.20803886 -9.9588623 12.5146637 C-10.4901123 10.5146637 -10.4901123 10.5146637 -10.4588623 8.5146637 C-10.47433105 7.5246637 -10.47433105 7.5246637 -10.4901123 6.5146637 C-9.04025279 1.05636905 -5.12300058 0.01356082 0 0 Z " fill="#17A2FF" transform="translate(105.9588623046875,215.48533630371094)"/>
<path d="M0 0 C1.07672974 -0.0112793 2.15345947 -0.02255859 3.26281738 -0.03417969 C5.02716125 -0.0220343 5.02716125 -0.0220343 6.82714844 -0.00964355 C8.69107239 -0.02015747 8.69107239 -0.02015747 10.59265137 -0.03088379 C13.9978753 -0.04547416 17.40212726 -0.04205291 20.80729675 -0.02936745 C24.37154442 -0.01923659 27.9357507 -0.02863335 31.5 -0.03491211 C37.48542738 -0.04218831 43.47065729 -0.0326017 49.45605469 -0.0135498 C56.37491301 0.00821911 63.29329986 0.0011677 70.21214676 -0.02085543 C76.15368306 -0.03901038 82.09507746 -0.04156736 88.03663254 -0.03110075 C91.58476235 -0.02486625 95.13267058 -0.02402872 98.68078613 -0.0372467 C102.63600985 -0.05095221 106.59070592 -0.03195378 110.54589844 -0.00964355 C111.72212769 -0.01774048 112.89835693 -0.0258374 114.11022949 -0.03417969 C115.7253241 -0.01726074 115.7253241 -0.01726074 117.37304688 0 C118.30808044 0.0015081 119.24311401 0.0030162 120.20648193 0.00457001 C123.43531902 0.65991475 124.637185 1.9861788 126.68652344 4.50793457 C127.21777344 6.50793457 127.21777344 6.50793457 127.18652344 8.50793457 C127.20199219 9.49793457 127.20199219 9.49793457 127.21777344 10.50793457 C126.44425138 13.4200176 124.98577122 14.60089121 122.68652344 16.50793457 C120.20648193 17.01129913 120.20648193 17.01129913 117.37304688 17.01586914 C116.29631714 17.02714844 115.2195874 17.03842773 114.11022949 17.05004883 C112.34588562 17.03790344 112.34588562 17.03790344 110.54589844 17.0255127 C108.68197449 17.03602661 108.68197449 17.03602661 106.78039551 17.04675293 C103.37517158 17.0613433 99.97091962 17.05792205 96.56575012 17.04523659 C93.00150246 17.03510573 89.43729618 17.04450249 85.87304688 17.05078125 C79.8876195 17.05805745 73.90238958 17.04847084 67.91699219 17.02941895 C60.99813386 17.00765003 54.07974702 17.01470144 47.16090012 17.03672457 C41.21936382 17.05487952 35.27796941 17.0574365 29.33641434 17.04696989 C25.78828453 17.04073539 22.2403763 17.03989786 18.69226074 17.05311584 C14.73703703 17.06682135 10.78234095 17.04782292 6.82714844 17.0255127 C5.65091919 17.03360962 4.47468994 17.04170654 3.26281738 17.05004883 C1.64772278 17.03312988 1.64772278 17.03312988 0 17.01586914 C-0.93503357 17.01436104 -1.87006714 17.01285294 -2.83343506 17.01129913 C-6.06227215 16.35595439 -7.26413812 15.02969034 -9.31347656 12.50793457 C-9.84472656 10.50793457 -9.84472656 10.50793457 -9.81347656 8.50793457 C-9.82894531 7.51793457 -9.82894531 7.51793457 -9.84472656 6.50793457 C-8.49154751 1.41361344 -4.87144101 0.00785708 0 0 Z " fill="#16A4FF" transform="translate(105.3134765625,151.4920654296875)"/>
<path d="M0 0 C0.9987767 -0.00861557 1.99755341 -0.01723114 3.02659607 -0.02610779 C6.32984286 -0.04882075 9.63224502 -0.04201921 12.93554688 -0.03295898 C15.22953545 -0.03819196 17.52352187 -0.04446724 19.81750488 -0.05174255 C24.62599816 -0.06215648 29.43419568 -0.05757049 34.24267578 -0.04296875 C40.4102698 -0.02577465 46.5769328 -0.04927966 52.74442291 -0.08445835 C57.48161006 -0.10639832 62.21857324 -0.10499913 66.95579529 -0.09669304 C69.23002646 -0.09587176 71.5042738 -0.10276875 73.77845764 -0.11746407 C76.95575536 -0.13484766 80.13136458 -0.12041813 83.30859375 -0.09765625 C84.72228493 -0.11519455 84.72228493 -0.11519455 86.16453552 -0.13308716 C92.5240212 -0.0402029 92.5240212 -0.0402029 95.73840332 2.88539124 C97.48195434 6.14624426 97.76237918 7.88495342 97.15429688 11.53344727 C95.73840332 14.1815033 95.73840332 14.1815033 93.15429688 16.53344727 C89.88037749 17.28751656 86.65577212 17.20607599 83.30859375 17.16455078 C82.30981705 17.17170609 81.31104034 17.17886139 80.28199768 17.18623352 C76.97854965 17.20315048 73.67645293 17.18369946 70.37304688 17.16235352 C68.07905973 17.16318193 65.78507264 17.16564028 63.49108887 17.16966248 C58.68251689 17.17252255 53.87441017 17.15779821 49.06591797 17.13037109 C42.89840482 17.09628857 36.73172381 17.10230488 30.56417084 17.12103367 C25.82697602 17.131596 21.08997524 17.12267269 16.35279846 17.10764885 C14.07858354 17.10246098 11.8043484 17.10295614 9.53013611 17.1091938 C6.35297993 17.11463654 3.17701994 17.09429989 0 17.06689453 C-0.94246078 17.07342041 -1.88492157 17.07994629 -2.85594177 17.08666992 C-9.22368894 16.99314686 -9.22368894 16.99314686 -12.42785645 14.62510681 C-13.95998281 12.36485767 -14.38797452 11.23881653 -14.34570312 8.53344727 C-14.36117187 7.54344727 -14.36117187 7.54344727 -14.37695312 6.53344727 C-12.45164989 -0.71475316 -6.16485068 -0.04268726 0 0 Z " fill="#13A8FF" transform="translate(109.845703125,407.466552734375)"/>
<path d="M0 0 C0.78419815 -0.00700928 1.5683963 -0.01401855 2.37635803 -0.02124023 C4.96545955 -0.03882832 7.55346573 -0.02719518 10.14257812 -0.01367188 C11.94332082 -0.01636657 13.74406209 -0.0202488 15.5447998 -0.02526855 C19.31760521 -0.03116468 23.09003164 -0.02259707 26.86279297 -0.00390625 C31.69859736 0.01888351 36.53351377 0.00576102 41.36928558 -0.01819611 C45.08736867 -0.03265106 48.80524126 -0.02804952 52.52333069 -0.01768494 C54.30632126 -0.01501681 56.08933095 -0.01829045 57.87229919 -0.02760315 C60.36459969 -0.03776399 62.85546281 -0.02227559 65.34765625 0 C66.08440079 -0.00809692 66.82114532 -0.01619385 67.58021545 -0.02453613 C71.04360119 0.03280511 72.85747587 0.27188977 75.62976074 2.42492676 C77.30477218 4.69504464 77.71735936 5.7315792 77.67382812 8.51757812 C77.68929687 9.50757813 77.68929687 9.50757813 77.70507812 10.51757812 C76.90696603 13.52223541 75.62582257 14.61328799 73.17382812 16.51757812 C70.43086392 16.91235776 68.08883605 17.06528219 65.34765625 17.03515625 C64.5634581 17.04216553 63.77925995 17.0491748 62.97129822 17.05639648 C60.3821967 17.07398457 57.79419052 17.06235143 55.20507812 17.04882812 C53.40433543 17.05152282 51.60359416 17.05540505 49.80285645 17.0604248 C46.03005104 17.06632093 42.25762461 17.05775332 38.48486328 17.0390625 C33.64905889 17.01627274 28.81414248 17.02939523 23.97837067 17.05335236 C20.26028758 17.06780731 16.54241499 17.06320577 12.82432556 17.05284119 C11.04133499 17.05017306 9.2583253 17.0534467 7.47535706 17.0627594 C4.98305656 17.07292024 2.49219344 17.05743184 0 17.03515625 C-0.73674454 17.04325317 -1.47348907 17.0513501 -2.2325592 17.05969238 C-5.69594494 17.00235114 -7.50981962 16.76326648 -10.28210449 14.61022949 C-11.95711593 12.34011161 -12.36970311 11.30357705 -12.32617188 8.51757812 C-12.34164062 7.52757812 -12.34164062 7.52757812 -12.35742188 6.51757812 C-10.68044492 0.2042531 -5.63652494 -0.06194618 0 0 Z " fill="#10ABFF" transform="translate(107.826171875,279.482421875)"/>
<path d="M0 0 C0.70616959 -0.00540298 1.41233917 -0.01080597 2.13990784 -0.01637268 C4.46935202 -0.02885893 6.79755992 -0.01237119 9.12695312 0.00561523 C10.74833236 0.00546024 12.36971198 0.00397123 13.99108887 0.00120544 C17.38729249 -0.00017849 20.78307378 0.01237818 24.17919922 0.03515625 C28.53064007 0.06354118 32.88137923 0.06080365 37.23287201 0.04806614 C40.58036279 0.04110829 43.92769164 0.04889939 47.27516174 0.06132317 C48.87951537 0.06583666 50.48388639 0.06617535 52.08824158 0.06225777 C54.3313251 0.05934442 56.57344461 0.07585694 58.81640625 0.09765625 C60.09229614 0.10305923 61.36818604 0.10846222 62.68273926 0.11402893 C66.12262205 0.52748076 67.53058346 1.02057491 69.90820312 3.50170898 C71.01193691 7.4751506 71.32363895 9.5917067 69.59570312 13.37670898 C67.90820312 15.50170898 67.90820312 15.50170898 65.90820312 16.50170898 C63.62197104 16.61442999 61.33239859 16.66111173 59.04345703 16.67871094 C57.98464073 16.68856773 57.98464073 16.68856773 56.9044342 16.69862366 C54.56454364 16.71836194 52.22471724 16.7300196 49.88476562 16.73999023 C48.68694017 16.74610353 48.68694017 16.74610353 47.46491623 16.75234032 C43.23930876 16.7732021 39.01373378 16.78750402 34.78808594 16.796875 C30.42088069 16.80794716 26.05418391 16.84235555 21.68715858 16.8820467 C18.33113651 16.90817342 14.97523639 16.91656323 11.61912155 16.92015648 C10.00914445 16.92503174 8.39917313 16.93667247 6.7892952 16.95519447 C4.53636435 16.97950618 2.28475975 16.97863647 0.03173828 16.97167969 C-1.25018402 16.97754593 -2.53210632 16.98341217 -3.85287476 16.98945618 C-7.64148291 16.41893212 -8.80839255 15.51506986 -11.09179688 12.50170898 C-11.62304688 10.50170898 -11.62304688 10.50170898 -11.59179688 8.50170898 C-11.60726562 7.51170898 -11.60726562 7.51170898 -11.62304688 6.50170898 C-10.01889784 0.46255966 -5.52858897 0.00072003 0 0 Z " fill="#10ACFF" transform="translate(107.091796875,343.498291015625)"/>
</svg>
