<?xml version="1.0" encoding="UTF-8"?>
<svg version="1.1" xmlns="http://www.w3.org/2000/svg" width="558" height="403">
<path d="M0 0 C184.14 0 368.28 0 558 0 C558 132.99 558 265.98 558 403 C373.86 403 189.72 403 0 403 C0 270.01 0 137.02 0 0 Z " fill="#FEFEFE" transform="translate(0,0)"/>
<path d="M0 0 C1.21031891 -0.00058411 2.42063782 -0.00116821 3.66763306 -0.00177002 C6.97335312 0.00053351 10.2780646 0.02054348 13.58360624 0.04852581 C17.04289984 0.07359118 20.50220797 0.07588549 23.96157837 0.08062744 C30.50637811 0.09304223 37.05090945 0.12584325 43.59559119 0.1660254 C51.04899672 0.21078999 58.50241531 0.23274188 65.95592189 0.25280714 C81.28278156 0.29457747 96.6093737 0.36490002 111.93603516 0.45410156 C111.98273092 7.92219422 112.01809102 15.39027141 112.0396595 22.85847759 C112.05002029 26.32766121 112.06403527 29.7967437 112.08691406 33.26586914 C112.11315091 37.27002843 112.12257147 41.27408437 112.13134766 45.27832031 C112.14167023 46.50177658 112.1519928 47.72523285 112.16262817 48.98576355 C112.165735 73.25927882 104.34914684 92.44521738 87.47900391 110.01269531 C74.1037121 122.8788252 55.14153177 132.3457852 36.31713867 132.6628418 C35.23904434 132.68213242 34.16095001 132.70142303 33.05018616 132.72129822 C28.15662476 132.77942304 23.26319934 132.82825014 18.36938477 132.85913086 C15.79047296 132.88076412 13.21163559 132.9149288 10.63305664 132.96166992 C6.9016871 133.02861207 3.17182636 133.05611558 -0.56005859 133.07519531 C-1.70816513 133.10302597 -2.85627167 133.13085663 -4.03916931 133.15953064 C-10.34917609 133.143339 -14.19005606 132.64381734 -18.7769928 128.13539124 C-21.37662835 124.73924878 -22.31379762 122.03647328 -22.33139038 117.76150513 C-22.33992035 116.82229218 -22.34845032 115.88307922 -22.35723877 114.91540527 C-22.3563324 113.89192993 -22.35542603 112.86845459 -22.35449219 111.81396484 C-22.36120941 110.73061859 -22.36792664 109.64727234 -22.37484741 108.53109741 C-22.39386416 104.9454898 -22.39775346 101.36006899 -22.39990234 97.77441406 C-22.40632758 95.2834363 -22.41305574 92.79245931 -22.42007446 90.30148315 C-22.43205635 85.07776133 -22.43575433 79.85410569 -22.43457031 74.63037109 C-22.43350189 69.26631819 -22.44758962 63.90255316 -22.47558594 58.53857422 C-22.50890344 52.06298961 -22.52268237 45.58766384 -22.52135086 39.1119957 C-22.52371173 36.64403699 -22.53256244 34.17607567 -22.54801559 31.70816422 C-22.56760702 28.25614955 -22.56186365 24.8050568 -22.54980469 21.35302734 C-22.5610437 20.33360046 -22.57228271 19.31417358 -22.5838623 18.26385498 C-22.53272344 12.50407204 -22.11320359 8.89050802 -18.06396484 4.45410156 C-12.64315787 -0.64227486 -7.02867951 -0.08882889 0 0 Z " fill="#12ACE1" transform="translate(356.06396484375,54.5458984375)"/>
<path d="M0 0 C1.08337646 -0.00029205 2.16675293 -0.00058411 3.28295898 -0.00088501 C6.85953819 0.00050697 10.43590841 0.01606224 14.01245117 0.03173828 C16.49395128 0.03546887 18.97545285 0.03831563 21.45695496 0.04031372 C27.98522007 0.04794651 34.51339605 0.06759209 41.04162598 0.08972168 C47.70440999 0.11126916 54.36721993 0.11931706 61.0300293 0.12939453 C74.10103828 0.15083822 87.17195774 0.1860176 100.24291992 0.22705078 C100.24291992 11.77705078 100.24291992 23.32705078 100.24291992 35.22705078 C97.47691406 35.2416333 94.7109082 35.25621582 91.86108398 35.27124023 C82.72868865 35.32154638 73.59646455 35.38813438 64.46423721 35.46276569 C58.92661235 35.50751933 53.38906192 35.54676449 47.85131836 35.57348633 C42.50844937 35.5994694 37.16586603 35.63983645 31.82317352 35.69023705 C29.78344013 35.70693958 27.7436573 35.71843272 25.70386505 35.72466469 C22.84971575 35.73426891 19.99630283 35.7622841 17.14233398 35.79467773 C16.29644714 35.79324265 15.4505603 35.79180756 14.57904053 35.79032898 C11.41560677 35.84120578 8.68601402 36.0562555 5.7208252 37.19921875 C3.30190092 40.51822181 3.67388104 44.15397506 3.69702148 48.10473633 C3.68668381 49.01225647 3.67634613 49.91977661 3.66569519 50.85479736 C3.63616985 53.85796712 3.63476596 56.86046578 3.63354492 59.86376953 C3.61856986 61.94457797 3.60184414 64.0253745 3.58343506 66.1061554 C3.5396738 71.58554619 3.51974297 77.06477664 3.50469971 82.54431152 C3.48516026 88.13461829 3.44318674 93.72475108 3.40307617 99.31494141 C3.32767877 110.28562042 3.27951791 121.25617364 3.24291992 132.22705078 C-8.30708008 132.22705078 -19.85708008 132.22705078 -31.75708008 132.22705078 C-31.82495645 118.31831251 -31.87995442 104.40968492 -31.91251659 90.50081825 C-31.92814769 84.04182386 -31.94933949 77.58294903 -31.98339844 71.12402344 C-32.01608269 64.88649704 -32.03395231 58.6490854 -32.04171181 52.41147995 C-32.04723902 50.03613861 -32.05803223 47.66080328 -32.07427025 45.28551102 C-32.09616464 41.94899352 -32.09904194 38.61294539 -32.09765625 35.27636719 C-32.10844208 34.30244019 -32.11922791 33.32851318 -32.13034058 32.32507324 C-32.09267248 23.89928693 -30.91192018 15.58920863 -24.88208008 9.28955078 C-24.2246582 8.57927734 -23.56723633 7.86900391 -22.88989258 7.13720703 C-20.62519929 5.10893777 -18.43414587 3.66382463 -15.75708008 2.22705078 C-15.10125443 1.8734549 -14.44542877 1.51985901 -13.76972961 1.1555481 C-9.20200817 -0.25222172 -4.7524223 -0.03350395 0 0 Z " fill="#096FB2" transform="translate(120.757080078125,54.77294921875)"/>
<path d="M0 0 C0.33 0 0.66 0 1 0 C1.30468245 53.75529448 1.30468245 53.75529448 -9 77 C-9.52400391 78.18988525 -9.52400391 78.18988525 -10.05859375 79.40380859 C-13.65774591 87.38475874 -17.84820655 94.90990802 -23 102 C-23.68578125 102.98484375 -24.3715625 103.9696875 -25.078125 104.984375 C-29.22313592 110.85895883 -29.22313592 110.85895883 -31 113 C-31.66 113 -32.32 113 -33 113 C-33.23074219 113.55429688 -33.46148437 114.10859375 -33.69921875 114.6796875 C-40.41880231 126.66597169 -56.00817587 137.03146653 -68 143 C-69.24138584 143.64356689 -70.48222095 144.28819665 -71.72265625 144.93359375 C-83.00759328 150.75447226 -93.68992729 154.95281669 -106.2265625 157.38671875 C-108.89539432 157.71614228 -108.89539432 157.71614228 -110 159 C-117 160 -117 160 -133 160 C-133 148.45 -133 136.9 -133 125 C-130.380625 124.773125 -127.76125 124.54625 -125.0625 124.3125 C-103.79313274 122.08823975 -82.37197798 113.85493881 -67.26953125 98.20703125 C-66 97 -66 97 -64 97 C-63.7525 96.443125 -63.505 95.88625 -63.25 95.3125 C-61.77075182 92.57589087 -60.06532561 90.32349131 -58 88 C-57.34 88 -56.68 88 -56 88 C-55.73832031 87.27039063 -55.47664063 86.54078125 -55.20703125 85.7890625 C-53.97956448 82.95278006 -52.5438513 80.83641481 -50.6875 78.375 C-35.94921263 57.65595833 -34.78476706 33.47771415 -34 9 C-33.17274414 8.98541748 -32.34548828 8.97083496 -31.49316406 8.95581055 C-27.74497119 8.8813414 -23.99767003 8.7846754 -20.25 8.6875 C-18.94804687 8.66494141 -17.64609375 8.64238281 -16.3046875 8.61914062 C-15.05429688 8.58369141 -13.80390625 8.54824219 -12.515625 8.51171875 C-11.36352539 8.48553467 -10.21142578 8.45935059 -9.02441406 8.43237305 C-5.73360883 7.96191647 -4.35276177 7.30360266 -2 5 C-0.73152315 2.41501488 -0.73152315 2.41501488 0 0 Z " fill="#0C70B2" transform="translate(271,80)"/>
<path d="M0 0 C1.83144562 0.00056648 1.83144562 0.00056648 3.69989014 0.00114441 C5.01354553 0.02695084 6.32720093 0.05275726 7.68066406 0.0793457 C9.04256898 0.08867584 10.40449073 0.09579101 11.76641846 0.1007843 C15.34416357 0.11983922 18.92088733 0.16892429 22.49822998 0.2243042 C26.15134871 0.27553084 29.80463314 0.29830546 33.45800781 0.32348633 C40.62123294 0.37704683 47.78361768 0.46233849 54.94628906 0.56762695 C54.99380779 4.25898865 55.02246841 7.95027066 55.04785156 11.6418457 C55.06146729 12.68175659 55.07508301 13.72166748 55.08911133 14.79309082 C55.12891853 22.5141571 54.46806552 28.58949403 50.94628906 35.56762695 C50.49898438 36.45450195 50.05167969 37.34137695 49.59082031 38.25512695 C46.48080901 43.85814999 42.77816579 48.37234738 37.94628906 52.56762695 C36.81707031 53.55569336 36.81707031 53.55569336 35.66503906 54.5637207 C32.5765717 56.84013415 29.54106455 58.26321038 26.00878906 59.75512695 C24.82414062 60.26430664 23.63949219 60.77348633 22.41894531 61.2980957 C16.3129655 63.53031555 10.3215819 63.85197191 3.88378906 64.00512695 C3.09423828 64.05088867 2.3046875 64.09665039 1.49121094 64.14379883 C0.33782227 64.16603516 0.33782227 64.16603516 -0.83886719 64.1887207 C-1.52859619 64.21377686 -2.2183252 64.23883301 -2.92895508 64.26464844 C-5.67782431 63.36288793 -7.29913928 61.89048685 -9.04658508 59.60856628 C-11.17722889 55.29081917 -10.73992022 50.496924 -10.68261719 45.7824707 C-10.68502914 44.64862442 -10.6874411 43.51477814 -10.68992615 42.34657288 C-10.68894875 39.95529677 -10.6755811 37.56399774 -10.65063477 35.17285156 C-10.61629373 31.51394829 -10.62999199 27.85745639 -10.64941406 24.19848633 C-10.64251638 21.87230418 -10.6328447 19.54612826 -10.62011719 17.2199707 C-10.62507706 16.12716293 -10.63003693 15.03435516 -10.63514709 13.90843201 C-10.61931076 12.88709671 -10.60347443 11.86576141 -10.5871582 10.81347656 C-10.58095963 9.91890244 -10.57476105 9.02432831 -10.56837463 8.10264587 C-9.30575848 1.8835248 -6.04994033 -0.06249938 0 0 Z " fill="#FCFDFE" transform="translate(378.0537109375,89.432373046875)"/>
<path d="M0 0 C0.33 0 0.66 0 1 0 C1.09269836 12.67392588 1.16376445 25.34777104 1.20724869 38.02196693 C1.22811943 43.90718184 1.25642827 49.79216472 1.30175781 55.67724609 C1.34523301 61.35715387 1.36914097 67.03683854 1.37950897 72.71689987 C1.38689727 74.88344205 1.40132486 77.04997208 1.42292023 79.21641922 C1.45197586 82.25213213 1.45595502 85.28692422 1.45410156 88.32275391 C1.47567322 89.66495499 1.47567322 89.66495499 1.49768066 91.03427124 C1.46143073 96.52474174 0.65252219 99.63814665 -3 104 C-12.11534764 112.01045702 -21.81364364 108 -35 108 C-35 75.33 -35 42.66 -35 9 C-26.09 8.67 -17.18 8.34 -8 8 C-3.30470958 5.18282575 -2.39317572 4.42737508 0 0 Z " fill="#17ADE0" transform="translate(319,80)"/>
<path d="M0 0 C11.88 0 23.76 0 36 0 C35.03348922 10.63161862 34.04480915 20.05276564 30 30 C29.71382813 30.7734375 29.42765625 31.546875 29.1328125 32.34375 C22.23195255 49.68750421 6.54802955 64.85030264 -10 73 C-11.29744141 73.64775391 -11.29744141 73.64775391 -12.62109375 74.30859375 C-23.88527151 79.6930305 -33.19803873 81.08557419 -46 82 C-46 70.45 -46 58.9 -46 47 C-41.05 45.68 -36.1 44.36 -31 43 C-16.94173242 36.41414492 -9.34885878 29.25919364 -3 15 C-1.28413602 9.84649129 -0.69142498 5.53139986 0 0 Z " fill="#0B70B2" transform="translate(185,105)"/>
<path d="M0 0 C1.08809212 0.00636726 1.08809212 0.00636726 2.19816589 0.01286316 C4.50098766 0.02957332 6.80291428 0.06720915 9.10546875 0.10546875 C10.67251335 0.12052559 12.23957175 0.13421225 13.80664062 0.14648438 C17.63575832 0.17945144 21.46421209 0.23117883 25.29296875 0.29296875 C24.6479541 1.23325928 24.00293945 2.1735498 23.33837891 3.14233398 C19.44718547 9.1361095 20.03708203 15.62411967 19.76953125 22.6015625 C19.17005595 27.24503921 17.99319306 30.641099 14.59326172 33.94433594 C11.51757192 35.74757415 9.32866274 35.63436458 5.77734375 35.5859375 C4.52695312 35.57626953 3.2765625 35.56660156 1.98828125 35.55664062 C0.68632812 35.53150391 -0.615625 35.50636719 -1.95703125 35.48046875 C-3.27445313 35.46693359 -4.591875 35.45339844 -5.94921875 35.43945312 C-9.20223446 35.40409426 -12.45442725 35.35473908 -15.70703125 35.29296875 C-15.79425655 30.89726081 -15.84749994 26.50177604 -15.89453125 22.10546875 C-15.91966797 20.85958984 -15.94480469 19.61371094 -15.97070312 18.33007812 C-15.98037109 17.12802734 -15.99003906 15.92597656 -16 14.6875 C-16.01571045 13.58253174 -16.0314209 12.47756348 -16.04760742 11.33911133 C-15.53970868 6.7964213 -14.02712501 4.36672294 -10.5012207 1.4987793 C-6.95242752 -0.03267457 -3.79209396 -0.08435898 0 0 Z " fill="#EDBB1D" transform="translate(252.70703125,53.70703125)"/>
<path d="M0 0 C1.25039063 0.00966797 2.50078125 0.01933594 3.7890625 0.02929688 C5.74199219 0.06700195 5.74199219 0.06700195 7.734375 0.10546875 C9.05179687 0.11900391 10.36921875 0.13253906 11.7265625 0.14648438 C14.97957821 0.18184324 18.231771 0.23119842 21.484375 0.29296875 C21.60094283 4.50106759 21.67175111 8.70874871 21.734375 12.91796875 C21.78464844 14.70267578 21.78464844 14.70267578 21.8359375 16.5234375 C21.96092517 27.70983405 21.96092517 27.70983405 17.484375 32.29296875 C13.57270029 35.13213554 10.89055929 35.65419412 6.08984375 35.5859375 C4.88779297 35.57626953 3.68574219 35.56660156 2.44726562 35.55664062 C1.20138672 35.53150391 -0.04449219 35.50636719 -1.328125 35.48046875 C-3.22594727 35.46016602 -3.22594727 35.46016602 -5.16210938 35.43945312 C-8.28038143 35.40415193 -11.39778542 35.35483694 -14.515625 35.29296875 C-14.63219283 31.08486991 -14.70300111 26.87718879 -14.765625 22.66796875 C-14.79914063 21.47816406 -14.83265625 20.28835937 -14.8671875 19.0625 C-14.99075942 8.00281302 -14.99075942 8.00281302 -10.515625 3.29296875 C-7.08895891 0.07153562 -4.63661354 -0.06322655 0 0 Z " fill="#DF2931" transform="translate(298.515625,53.70703125)"/>
<path d="M0 0 C16.37735849 -0.58490566 16.37735849 -0.58490566 23 4 C26.0026733 7.19639416 26.91829753 9.91744233 27.25 14.3125 C26.88716594 19.66430237 25.41893949 22.71949363 21.4375 26.3125 C17.0614001 29.34210762 13.54835366 29.11667877 8.375 29.0625 C5.61125 29.041875 2.8475 29.02125 0 29 C0 19.43 0 9.86 0 0 Z " fill="#606161" transform="translate(343,309)"/>
<path d="M0 0 C16.4991511 -0.58404075 16.4991511 -0.58404075 23.875 5.5625 C26.14552373 8.46372477 26.16095491 11.40700346 26.1875 14.9375 C26.20167969 15.79214844 26.21585938 16.64679688 26.23046875 17.52734375 C25.98703556 20.13909303 25.3178268 21.75500652 24 24 C23.34 24 22.68 24 22 24 C21.7525 24.639375 21.505 25.27875 21.25 25.9375 C20 28 20 28 18.16503906 28.62280273 C14.70968925 29.22480042 11.24465238 29.10232409 7.75 29.0625 C5.1925 29.041875 2.635 29.02125 0 29 C0 19.43 0 9.86 0 0 Z " fill="#606161" transform="translate(89,262)"/>
<path d="M0 0 C0 0.66 0 1.32 0 2 C4.455 1.505 4.455 1.505 9 1 C9.08111739 4.2296738 9.14055592 7.45730014 9.1875 10.6875 C9.21263672 11.59951172 9.23777344 12.51152344 9.26367188 13.45117188 C9.31843718 18.47132521 9.31997476 21.95257156 6 26 C5.53851563 26.58265625 5.07703125 27.1653125 4.6015625 27.765625 C2.51709167 29.37219276 0.97992657 29.52938733 -1.625 29.75 C-2.42164063 29.82734375 -3.21828125 29.9046875 -4.0390625 29.984375 C-4.68617188 29.98953125 -5.33328125 29.9946875 -6 30 C-7 29 -7 29 -7.0625 26.4375 C-7.041875 25.633125 -7.02125 24.82875 -7 24 C-3.535 23.505 -3.535 23.505 0 23 C0 22.67 0 22.34 0 22 C-1.3303125 22.12375 -1.3303125 22.12375 -2.6875 22.25 C-6.76905809 21.94195788 -8.13942083 20.86057917 -11 18 C-13.28853994 14.73065722 -13.47162218 11.9301848 -13 8 C-9.56539387 1.84139591 -7.09154753 -0.31517989 0 0 Z " fill="#646565" transform="translate(397,317)"/>
<path d="M0 0 C1.65 0 3.3 0 5 0 C5 10.23 5 20.46 5 31 C2.69 30.67 0.38 30.34 -2 30 C-2.33 30.33 -2.66 30.66 -3 31 C-6.25 31.375 -6.25 31.375 -10 31 C-13.15954305 28.45862841 -14.71540886 26.85377341 -16 23 C-16.53756448 17.30181648 -15.60129241 14.44865533 -12 10 C-9.2201184 8.6100592 -7.0813674 8.81511796 -4 9 C-2.68 9.66 -1.36 10.32 0 11 C0 7.37 0 3.74 0 0 Z " fill="#676868" transform="translate(379,262)"/>
<path d="M0 0 C1.98462424 1.79138451 2.56879289 2.80318084 3.140625 5.44140625 C3.32221154 9.79299794 3.05230188 12.3645736 0.75 16.125 C-2.78042121 19.34391345 -5.46694857 19.47683344 -10.11328125 19.39453125 C-12.375 19.0625 -12.375 19.0625 -15.375 17.125 C-17.98885661 13.12253206 -18.80296916 9.82890165 -18.375 5.0625 C-16.68074388 1.47849666 -15.38408434 -0.32673843 -12 -2.375 C-7.13408545 -3.41769597 -4.28214883 -2.45827062 0 0 Z " fill="#636464" transform="translate(224.375,272.9375)"/>
<path d="M0 0 C2.31 0 4.62 0 7 0 C7.33 5.28 7.66 10.56 8 16 C8.33 15.34 8.66 14.68 9 14 C9.66 14 10.32 14 11 14 C11.309375 13.360625 11.61875 12.72125 11.9375 12.0625 C13 10 13 10 14 9 C16.67058851 8.85884839 19.32432238 8.95752893 22 9 C22 11 22 11 20.125 13.125 C18 15 18 15 16 15 C14.66953266 17.22431974 14.66953266 17.22431974 14 20 C15.28134781 22.52674166 15.28134781 22.52674166 17.375 24.75 C21 28.97683398 21 28.97683398 21 30 C17.875 30.4375 17.875 30.4375 14 30 C11.61317961 27.93418366 9.79950957 25.58391118 8 23 C7.67 25.31 7.34 27.62 7 30 C4.69 30 2.38 30 0 30 C0 20.1 0 10.2 0 0 Z " fill="#646565" transform="translate(251,308)"/>
<path d="M0 0 C2.73947265 2.00709918 4.71326499 3.5584235 5.39868164 7.00439453 C5.49179602 9.29343533 5.43712436 11.52516367 5.3125 13.8125 C5.28994141 14.60076172 5.26738281 15.38902344 5.24414062 16.20117188 C5.18554161 18.13493929 5.09586827 20.06772167 5 22 C3.02 22 1.04 22 -1 22 C-1 21.34 -1 20.68 -1 20 C-1.99 20.66 -2.98 21.32 -4 22 C-7.6380818 22.46443597 -9.35734354 22.42843764 -12.4375 20.375 C-14 18 -14 18 -13.9375 14.875 C-13 12 -13 12 -10 10 C-7.95703125 9.5859375 -7.95703125 9.5859375 -5.8125 9.375 C-4.554375 9.25125 -3.29625 9.1275 -2 9 C-2 8.34 -2 7.68 -2 7 C-5.63 7 -9.26 7 -13 7 C-9.86513693 0.73027386 -7.12148598 -0.9995068 0 0 Z " fill="#636464" transform="translate(451,317)"/>
<path d="M0 0 C2.5647293 1.50012468 4.89183465 2.89183465 7 5 C7.14115161 7.67058851 7.04247107 10.32432238 7 13 C2.38 13 -2.24 13 -7 13 C-6.67 13.99 -6.34 14.98 -6 16 C-0.42169984 16.12469099 -0.42169984 16.12469099 5 15 C5 19 5 19 3.4375 20.75 C0.04565203 22.48940922 -2.2331427 22.46259651 -6 22 C-9.22618733 19.9209015 -10.8669302 18.19960471 -13 15 C-13.42733494 9.70104669 -13.51322472 6.26605859 -10 2 C-6.78144775 -0.33067577 -3.89509474 -0.46741137 0 0 Z " fill="#656666" transform="translate(401,271)"/>
<path d="M0 0 C3 2 3 2 5 5 C5.39956124 7.80730687 5.24224238 10.14153994 5 13 C0.38 13 -4.24 13 -9 13 C-8.01 14.485 -8.01 14.485 -7 16 C-1.555 15.505 -1.555 15.505 4 15 C4 15.99 4 16.98 4 18 C0.65852723 20.93397609 -1.13067341 22.01498839 -5.625 21.9375 C-8.86306762 21.03803677 -10.64466117 20.35533883 -13 18 C-14.45531666 13.63405003 -14.7466673 9.55249575 -14 5 C-10.75274132 -0.41609197 -5.69599448 -0.90412611 0 0 Z " fill="#656666" transform="translate(331,271)"/>
<path d="M0 0 C0.9590625 -0.00773437 1.918125 -0.01546875 2.90625 -0.0234375 C5.94612867 0.44353181 6.64118312 0.99082894 8.5 3.375 C8.84057617 5.36791992 8.84057617 5.36791992 8.79296875 7.60546875 C8.78330078 8.40791016 8.77363281 9.21035156 8.76367188 10.03710938 C8.73853516 10.87048828 8.71339844 11.70386719 8.6875 12.5625 C8.66719727 13.8299707 8.66719727 13.8299707 8.64648438 15.12304688 C8.61115799 17.20730384 8.55735139 19.29123277 8.5 21.375 C6.06183415 21.4559723 3.62635616 21.51546972 1.1875 21.5625 C0.15206055 21.60020508 0.15206055 21.60020508 -0.90429688 21.63867188 C-6.00213339 21.71255356 -6.00213339 21.71255356 -8.453125 20.05078125 C-10.11691738 17.38747181 -9.94520365 15.42782502 -9.5 12.375 C-8 10.5 -8 10.5 -5.5 9.375 C-2.77930412 9.14135245 -0.24133849 9.23793308 2.5 9.375 C2.17 8.385 1.84 7.395 1.5 6.375 C0.22125 6.560625 -1.0575 6.74625 -2.375 6.9375 C-6.25 7.5 -6.25 7.5 -8.5 6.375 C-8.5 3.375 -8.5 3.375 -7.34375 1.7109375 C-4.82707221 -0.11258751 -3.08248124 -0.02485872 0 0 Z " fill="#5E5F5F" transform="translate(162.5,316.625)"/>
<path d="M0 0 C2.05078125 0.03255208 4.1015625 0.06510417 6.15234375 0.09765625 C6.15234375 0.75765625 6.15234375 1.41765625 6.15234375 2.09765625 C6.77109375 2.34515625 7.38984375 2.59265625 8.02734375 2.84765625 C10.59018015 4.35520707 11.19548822 5.30682763 12.15234375 8.09765625 C12.15234375 9.74765625 12.15234375 11.39765625 12.15234375 13.09765625 C7.20234375 13.09765625 2.25234375 13.09765625 -2.84765625 13.09765625 C-2.84765625 14.08765625 -2.84765625 15.07765625 -2.84765625 16.09765625 C2.12297496 17.01062933 6.18171254 17.01062933 11.15234375 16.09765625 C10.1942738 18.49283113 9.56568762 19.83617132 7.35546875 21.234375 C3.548365 22.72616566 0.03372101 22.16592522 -3.84765625 21.09765625 C-6.7823697 18.87872657 -7.63757357 17.32785192 -8.25390625 13.71875 C-8.53542707 8.9962382 -8.42768468 6.82640992 -5.41015625 3.03515625 C-4.56453125 2.39578125 -3.71890625 1.75640625 -2.84765625 1.09765625 C-1.84765625 0.09765625 -1.84765625 0.09765625 0 0 Z " fill="#646565" transform="translate(152.84765625,269.90234375)"/>
<path d="M0 0 C3.3 0 6.6 0 10 0 C10 0.66 10 1.32 10 2 C10.61875 2.28875 11.2375 2.5775 11.875 2.875 C14 4 14 4 16 6 C16.43743808 11.33674462 16.44818791 14.65783745 13 19 C10 21 10 21 0 21 C0 14.07 0 7.14 0 0 Z " fill="#F7F7F7" transform="translate(94,266)"/>
<path d="M0 0 C0.86367188 -0.02835937 1.72734375 -0.05671875 2.6171875 -0.0859375 C5.125 0.375 5.125 0.375 7.4296875 1.8515625 C9.9197044 5.55790101 9.5627789 8.76997392 9.375 13.125 C9.35695313 13.91777344 9.33890625 14.71054687 9.3203125 15.52734375 C9.27333082 17.47708348 9.20159044 19.42619878 9.125 21.375 C7.475 21.375 5.825 21.375 4.125 21.375 C4.125 20.715 4.125 20.055 4.125 19.375 C3.465 19.375 2.805 19.375 2.125 19.375 C2.125 20.035 2.125 20.695 2.125 21.375 C-5.29809859 21.86176056 -5.29809859 21.86176056 -7.875 19.6875 C-9.05317092 16.96297975 -9.32681189 15.31177726 -8.875 12.375 C-6.99639167 9.8701889 -5.91398126 9.38799375 -2.875 8.375 C-0.54200175 8.33545766 1.79208189 8.33098268 4.125 8.375 C4.125 7.055 4.125 5.735 4.125 4.375 C1.815 4.375 -0.495 4.375 -2.875 4.375 C-3.205 5.365 -3.535 6.355 -3.875 7.375 C-5.195 7.045 -6.515 6.715 -7.875 6.375 C-6.84900737 1.24503685 -5.17216451 0.07673835 0 0 Z " fill="#646565" transform="translate(435.875,271.625)"/>
<path d="M0 0 C0.77085937 -0.03738281 1.54171875 -0.07476562 2.3359375 -0.11328125 C4.625 0.3125 4.625 0.3125 6.8984375 1.78515625 C9.42967755 5.49038772 9.06359582 8.68852769 8.875 13.0625 C8.85695313 13.85527344 8.83890625 14.64804687 8.8203125 15.46484375 C8.77333082 17.41458348 8.70159044 19.36369878 8.625 21.3125 C6.18683415 21.3934723 3.75135616 21.45296972 1.3125 21.5 C0.27706055 21.53770508 0.27706055 21.53770508 -0.77929688 21.57617188 C-5.85384786 21.64971609 -5.85384786 21.64971609 -8.3671875 20.0234375 C-10.10316474 17.07631336 -9.12853478 14.50053175 -8.375 11.3125 C-5.87994038 8.81744038 -4.70171112 8.95301624 -1.25 8.6875 C-0.33992187 8.61273438 0.57015625 8.53796875 1.5078125 8.4609375 C2.55582031 8.38746094 2.55582031 8.38746094 3.625 8.3125 C3.295 7.3225 2.965 6.3325 2.625 5.3125 C-1.07423924 5.10698671 -3.12218637 5.63001019 -6.375 7.3125 C-7.035 6.9825 -7.695 6.6525 -8.375 6.3125 C-6.53170435 1.17760497 -5.42829302 0.17132486 0 0 Z " fill="#646565" transform="translate(255.375,270.6875)"/>
<path d="M0 0 C1.65 0 3.3 0 5 0 C5 5.94 5 11.88 5 18 C8.35264535 14.71308425 8.35264535 14.71308425 11.4375 11.1875 C13.84793852 9.35556672 16.07810726 9.80520715 19 10 C17.03681826 13.53372712 14.95929119 16.24479785 12 19 C13.40976705 22.03852705 15.08870228 24.5939595 17.125 27.25 C17.66382813 27.95640625 18.20265625 28.6628125 18.7578125 29.390625 C19.16773438 29.92171875 19.57765625 30.4528125 20 31 C17.4375 31.5 17.4375 31.5 14 31 C11.93692401 29.09069365 10.24767742 27.059534 8.515625 24.84765625 C7.11988588 22.88998412 7.11988588 22.88998412 5 22 C5 24.97 5 27.94 5 31 C3.35 31 1.7 31 0 31 C0 20.77 0 10.54 0 0 Z " fill="#636464" transform="translate(169,261)"/>
<path d="M0 0 C1.98 0 3.96 0 6 0 C6 4.95 6 9.9 6 15 C7.65 15 9.3 15 11 15 C12.94090826 13.05909174 12.39919435 9.52706098 12.5625 6.9375 C12.64628906 5.64714844 12.73007813 4.35679687 12.81640625 3.02734375 C12.87699219 2.02832031 12.93757812 1.02929688 13 0 C14.98 0 16.96 0 19 0 C19 6.93 19 13.86 19 21 C16.421875 21.0825 13.84375 21.165 11.1875 21.25 C10.37949951 21.28641602 9.57149902 21.32283203 8.73901367 21.36035156 C5.64593502 21.40846871 3.53360052 21.39186288 1 19.53125 C-0.48927602 15.76152008 -0.31719798 12.26066062 -0.1875 8.25 C-0.17396484 7.45722656 -0.16042969 6.66445313 -0.14648438 5.84765625 C-0.11125223 3.89814436 -0.05744821 1.94898374 0 0 Z " fill="#5E5F5F" transform="translate(228,317)"/>
<path d="M0 0 C1.65 0 3.3 0 5 0 C5 0.66 5 1.32 5 2 C5.66 2 6.32 2 7 2 C7 1.34 7 0.68 7 0 C8.43583001 -0.10836453 9.8740202 -0.18576167 11.3125 -0.25 C12.51326172 -0.31960938 12.51326172 -0.31960938 13.73828125 -0.390625 C16 0 16 0 17.78125 1.46875 C19.58552241 5.21608501 19.32002867 8.65180589 19.1875 12.75 C19.16719727 13.93916016 19.16719727 13.93916016 19.14648438 15.15234375 C19.11125223 17.10185564 19.05744821 19.05101626 19 21 C17.02 21 15.04 21 13 21 C12.67 16.38 12.34 11.76 12 7 C10.35 6.67 8.7 6.34 7 6 C6.67 10.95 6.34 15.9 6 21 C4.02 21 2.04 21 0 21 C0 14.07 0 7.14 0 0 Z " fill="#5F6060" transform="translate(100,317)"/>
<path d="M0 0 C1.98 0 3.96 0 6 0 C6.33 5.28 6.66 10.56 7 16 C8.65 16 10.3 16 12 16 C12.33 11.05 12.66 6.1 13 1 C14.98 1 16.96 1 19 1 C19 7.6 19 14.2 19 21 C16.421875 21.103125 13.84375 21.20625 11.1875 21.3125 C9.97549927 21.38078003 9.97549927 21.38078003 8.73901367 21.45043945 C6.79296875 21.48828125 6.79296875 21.48828125 3 21 C0.08989409 18.08989409 0.00812025 16.11054368 -0.29296875 12.01171875 C-0.27321944 10.57001909 -0.23772113 9.12846002 -0.1875 7.6875 C-0.17396484 6.94693359 -0.16042969 6.20636719 -0.14648438 5.44335938 C-0.11135979 3.62858925 -0.05755972 1.81419712 0 0 Z " fill="#5D5E5F" transform="translate(291,317)"/>
<path d="M0 0 C0.90105469 0.01804687 1.80210937 0.03609375 2.73046875 0.0546875 C3.41753906 0.07789063 4.10460937 0.10109375 4.8125 0.125 C4.8125 0.785 4.8125 1.445 4.8125 2.125 C5.4725 2.125 6.1325 2.125 6.8125 2.125 C7.1425 3.115 7.4725 4.105 7.8125 5.125 C7.4825 5.455 7.1525 5.785 6.8125 6.125 C5.28730724 6.03562197 3.76568071 5.87962854 2.25 5.6875 C1.42371094 5.58566406 0.59742188 5.48382813 -0.25390625 5.37890625 C-0.89199219 5.29511719 -1.53007812 5.21132813 -2.1875 5.125 C-2.1875 5.785 -2.1875 6.445 -2.1875 7.125 C-1.56101563 7.31835938 -0.93453125 7.51171875 -0.2890625 7.7109375 C0.93683594 8.10152344 0.93683594 8.10152344 2.1875 8.5 C2.99960938 8.75523437 3.81171875 9.01046875 4.6484375 9.2734375 C6.8125 10.125 6.8125 10.125 8.8125 12.125 C9.1875 15.0625 9.1875 15.0625 8.8125 18.125 C5.92293637 20.94199468 3.79621954 21.53643646 -0.1875 21.5 C-1.033125 21.50773437 -1.87875 21.51546875 -2.75 21.5234375 C-5.67930584 21.04460866 -7.08282233 20.20044604 -9.1875 18.125 C-9.1875 17.135 -9.1875 16.145 -9.1875 15.125 C-5.5575 15.455 -1.9275 15.785 1.8125 16.125 C1.8125 15.135 1.8125 14.145 1.8125 13.125 C0.74 13.021875 -0.3325 12.91875 -1.4375 12.8125 C-5.04570872 12.15099507 -6.55145023 11.55016579 -9.1875 9.125 C-8.875 5.75 -8.875 5.75 -8.1875 2.125 C-4.87379 -0.08414 -3.8428979 -0.09981553 0 0 Z " fill="#646565" transform="translate(184.1875,316.875)"/>
<path d="M0 0 C0 1.65 0 3.3 0 5 C-0.99 5 -1.98 5 -3 5 C-3 6.32 -3 7.64 -3 9 C-2.01 9 -1.02 9 0 9 C0 10.98 0 12.96 0 15 C-0.99 15 -1.98 15 -3 15 C-3 19.95 -3 24.9 -3 30 C-5.31 30 -7.62 30 -10 30 C-10 25.05 -10 20.1 -10 15 C-10.66 15 -11.32 15 -12 15 C-12 13.02 -12 11.04 -12 9 C-11.34 9 -10.68 9 -10 9 C-9.8453125 7.329375 -9.8453125 7.329375 -9.6875 5.625 C-9.460625 4.42875 -9.23375 3.2325 -9 2 C-5.5647952 -0.29013653 -4.014669 -0.17842973 0 0 Z " fill="#666767" transform="translate(134,308)"/>
<path d="M0 0 C12.03761194 -0.48636816 12.03761194 -0.48636816 15.90625 1.46875 C18.94541753 5.14296747 18.56108433 8.13780451 18.3125 12.75 C18.28994141 13.54277344 18.26738281 14.33554687 18.24414062 15.15234375 C18.18540471 17.1023762 18.09572654 19.05143312 18 21 C16.35 21 14.7 21 13 21 C12.67 16.05 12.34 11.1 12 6 C10.02 6 8.04 6 6 6 C5.67 10.95 5.34 15.9 5 21 C3.35 21 1.7 21 0 21 C0 14.07 0 7.14 0 0 Z " fill="#6C6D6D" transform="translate(341,271)"/>
<path d="M0 0 C1.98 0 3.96 0 6 0 C6 1.65 6 3.3 6 5 C7.32 5 8.64 5 10 5 C10 6.98 10 8.96 10 11 C8.68 11 7.36 11 6 11 C6.33 13.97 6.66 16.94 7 20 C7.99 20.33 8.98 20.66 10 21 C10 22.65 10 24.3 10 26 C3.77777778 26.5982906 3.77777778 26.5982906 0.5625 24.125 C-1.6355471 19.72890579 -1.33729606 15.82520752 -1 11 C-1.99 11 -2.98 11 -4 11 C-4 9.02 -4 7.04 -4 5 C-2.68 5 -1.36 5 0 5 C0 3.35 0 1.7 0 0 Z " fill="#626363" transform="translate(278,312)"/>
<path d="M0 0 C1.98 0 3.96 0 6 0 C6 1.98 6 3.96 6 6 C7.65 6 9.3 6 11 6 C11 7.65 11 9.3 11 11 C9.35 11 7.7 11 6 11 C6.33 13.97 6.66 16.94 7 20 C8.32 20.33 9.64 20.66 11 21 C11 22.98 11 24.96 11 27 C5.60490463 27.49046322 5.60490463 27.49046322 2.6875 25.125 C0.07121135 21.8304143 -0.11568505 20.02343427 -0.0625 15.875 C-0.05347656 14.96492188 -0.04445313 14.05484375 -0.03515625 13.1171875 C-0.02355469 12.41851562 -0.01195312 11.71984375 0 11 C-0.66 11 -1.32 11 -2 11 C-2 9.02 -2 7.04 -2 5 C-1.34 5 -0.68 5 0 5 C0 3.35 0 1.7 0 0 Z " fill="#616262" transform="translate(424,312)"/>
<path d="M0 0 C1.98 0 3.96 0 6 0 C6 1.65 6 3.3 6 5 C7.32 5 8.64 5 10 5 C10 6.98 10 8.96 10 11 C8.68 11 7.36 11 6 11 C6.33 13.97 6.66 16.94 7 20 C7.99 20.33 8.98 20.66 10 21 C10 22.65 10 24.3 10 26 C6.6875 26.25 6.6875 26.25 3 26 C0.67320295 23.75781375 0.04523015 22.43179714 -0.29296875 19.203125 C-0.25816406 18.22859375 -0.22335938 17.2540625 -0.1875 16.25 C-0.16042969 15.26515625 -0.13335937 14.2803125 -0.10546875 13.265625 C-0.07066406 12.51796875 -0.03585938 11.7703125 0 11 C-0.99 11 -1.98 11 -3 11 C-3 9.02 -3 7.04 -3 5 C-2.01 5 -1.02 5 0 5 C0 3.35 0 1.7 0 0 Z " fill="#5A5B5B" transform="translate(198,312)"/>
<path d="M0 0 C8 0 8 0 11 2.0625 C13.48980198 5.71939665 13.55310065 7.65420914 13 12 C12.15712242 14.59887253 11.49709737 15.63177973 9.3125 17.25 C7 18 7 18 0 18 C0 12.06 0 6.12 0 0 Z " fill="#FCFCFC" transform="translate(350,315)"/>
<path d="M0 0 C1.65 0 3.3 0 5 0 C5.08736736 3.72901814 5.14051482 7.45777165 5.1875 11.1875 C5.21263672 12.24259766 5.23777344 13.29769531 5.26367188 14.38476562 C5.27333984 15.40634766 5.28300781 16.42792969 5.29296875 17.48046875 C5.3086792 18.41785889 5.32438965 19.35524902 5.34057617 20.32104492 C4.92907749 23.55787288 3.9183649 25.3796095 2 28 C-1.51824511 30.34549674 -2.85775694 30.57991403 -7 30 C-9.875 27.625 -9.875 27.625 -12 25 C-12 24.34 -12 23.68 -12 23 C-10.35 23 -8.7 23 -7 23 C-7 23.66 -7 24.32 -7 25 C-5.02 24.34 -3.04 23.68 -1 23 C-0.67 15.41 -0.34 7.82 0 0 Z " fill="#5F6060" transform="translate(307,263)"/>
<path d="M0 0 C1.65 0 3.3 0 5 0 C5 1.98 5 3.96 5 6 C6.65 6 8.3 6 10 6 C10 7.32 10 8.64 10 10 C8.35 10 6.7 10 5 10 C5 13.96 5 17.92 5 22 C6.65 22 8.3 22 10 22 C10 23.65 10 25.3 10 27 C6.55344261 27.3133234 4.66371577 27.48356435 1.8125 25.40625 C-0.60016414 22.20323037 -0.40848829 20.21220722 -0.25 16.25 C-0.21390625 15.07953125 -0.1778125 13.9090625 -0.140625 12.703125 C-0.09421875 11.81109375 -0.0478125 10.9190625 0 10 C-0.99 10 -1.98 10 -3 10 C-3 8.68 -3 7.36 -3 6 C-2.01 6 -1.02 6 0 6 C0 4.02 0 2.04 0 0 Z " fill="#696969" transform="translate(194,265)"/>
<path d="M0 0 C1.65 0 3.3 0 5 0 C5 1.98 5 3.96 5 6 C6.65 6 8.3 6 10 6 C10 7.32 10 8.64 10 10 C8.35 10 6.7 10 5 10 C5.33 13.96 5.66 17.92 6 22 C7.32 22.33 8.64 22.66 10 23 C10 24.32 10 25.64 10 27 C4.375 27.25 4.375 27.25 1 25 C-0.04976964 21.85069107 -0.10131595 19.61185544 -0.0625 16.3125 C-0.05347656 15.31863281 -0.04445313 14.32476562 -0.03515625 13.30078125 C-0.02355469 12.54152344 -0.01195312 11.78226562 0 11 C-0.99 11 -1.98 11 -3 11 C-3 9.35 -3 7.7 -3 6 C-2.01 6 -1.02 6 0 6 C0 4.02 0 2.04 0 0 Z " fill="#666767" transform="translate(270,265)"/>
<path d="M0 0 C1.98 0 3.96 0 6 0 C6 9.9 6 19.8 6 30 C4.02 30 2.04 30 0 30 C0 20.1 0 10.2 0 0 Z " fill="#5C5D5D" transform="translate(460,309)"/>
<path d="M0 0 C1.98 0 3.96 0 6 0 C6 0.66 6 1.32 6 2 C6.99 1.34 7.98 0.68 9 0 C10.32 0 11.64 0 13 0 C13 1.98 13 3.96 13 6 C11.7934375 6.4640625 11.7934375 6.4640625 10.5625 6.9375 C8.10919595 7.76335345 8.10919595 7.76335345 7 9 C6.76572222 11.01594582 6.58663876 13.038474 6.4375 15.0625 C6.35371094 16.16722656 6.26992188 17.27195312 6.18359375 18.41015625 C6.12300781 19.26480469 6.06242187 20.11945313 6 21 C4.02 21 2.04 21 0 21 C0 14.07 0 7.14 0 0 Z " fill="#606161" transform="translate(315,317)"/>
<path d="M0 0 C1.98 0 3.96 0 6 0 C6 9.24 6 18.48 6 28 C4.02 28 2.04 28 0 28 C0 18.76 0 9.52 0 0 Z " fill="#585959" transform="translate(89,309)"/>
<path d="M0 0 C1.65 0 3.3 0 5 0 C5 0.66 5 1.32 5 2 C5.99 1.34 6.98 0.68 8 0 C10.6875 -0.125 10.6875 -0.125 13 0 C13 1.98 13 3.96 13 6 C11.02 6.66 9.04 7.32 7 8 C6.67 12.29 6.34 16.58 6 21 C4.02 21 2.04 21 0 21 C0 14.07 0 7.14 0 0 Z " fill="#5E5F5F" transform="translate(212,317)"/>
<path d="M0 0 C1.65 0 3.3 0 5 0 C5 0.66 5 1.32 5 2 C5.99 1.34 6.98 0.68 8 0 C10.6875 -0.125 10.6875 -0.125 13 0 C13 1.98 13 3.96 13 6 C11.02 6.66 9.04 7.32 7 8 C6.67 12.29 6.34 16.58 6 21 C4.02 21 2.04 21 0 21 C0 14.07 0 7.14 0 0 Z " fill="#626363" transform="translate(138,317)"/>
<path d="M0 0 C1.65 0 3.3 0 5 0 C5 10.23 5 20.46 5 31 C3.35 31 1.7 31 0 31 C0 20.77 0 10.54 0 0 Z " fill="#656666" transform="translate(450,262)"/>
<path d="M0 0 C2.31 0 4.62 0 7 0 C7 7.26 7 14.52 7 22 C4.69 22 2.38 22 0 22 C0 14.74 0 7.48 0 0 Z " fill="#707171" transform="translate(411,317)"/>
<path d="M0 0 C3.96 0 7.92 0 12 0 C12 1.32 12 2.64 12 4 C10.35 4.66 8.7 5.32 7 6 C6.67 10.95 6.34 15.9 6 21 C4.02 21 2.04 21 0 21 C0 14.07 0 7.14 0 0 Z " fill="#6F7070" transform="translate(412,272)"/>
<path d="M0 0 C1.32 0 2.64 0 4 0 C4 1.65 4 3.3 4 5 C2.02 5.66 0.04 6.32 -2 7 C-2.33 11.95 -2.66 16.9 -3 22 C-4.65 22 -6.3 22 -8 22 C-8 15.07 -8 8.14 -8 1 C-5.69 1 -3.38 1 -1 1 C-0.67 0.67 -0.34 0.34 0 0 Z " fill="#6A6B6B" transform="translate(139,270)"/>
<path d="M0 0 C1.98 0 3.96 0 6 0 C6 7.26 6 14.52 6 22 C4.02 22 2.04 22 0 22 C0 14.74 0 7.48 0 0 Z " fill="#686969" transform="translate(374,317)"/>
<path d="M0 0 C6.57692308 0.57692308 6.57692308 0.57692308 8 2 C8.07179964 3.51928038 8.08392007 5.04167482 8.0625 6.5625 C8.05347656 7.38878906 8.04445312 8.21507812 8.03515625 9.06640625 C8.02355469 9.70449219 8.01195312 10.34257812 8 11 C4.328125 13.0234375 4.328125 13.0234375 1.375 12.8125 C-1 12 -1 12 -3 9 C-2.54716981 2.54716981 -2.54716981 2.54716981 0 0 Z " fill="#F2F2F3" transform="translate(214,275)"/>
<path d="M0 0 C1.32 0 2.64 0 4 0 C4 0.66 4 1.32 4 2 C4.99 1.34 5.98 0.68 7 0 C9.6875 -0.125 9.6875 -0.125 12 0 C12 1.32 12 2.64 12 4 C11.030625 4.268125 10.06125 4.53625 9.0625 4.8125 C8.051875 5.204375 7.04125 5.59625 6 6 C4.99740493 9.00778521 4.69685358 11.53820647 4.4375 14.6875 C4.35371094 15.68136719 4.26992187 16.67523438 4.18359375 17.69921875 C4.12300781 18.45847656 4.06242188 19.21773438 4 20 C2.68 20 1.36 20 0 20 C0 13.4 0 6.8 0 0 Z " fill="#5D5E5E" transform="translate(232,271)"/>
<path d="M0 0 C6.10772639 -0.66629742 6.10772639 -0.66629742 8.7043457 1.27270508 C10.28212744 3.37611676 10.35168338 4.40870333 10.29296875 7.01171875 C10.28330078 7.76904297 10.27363281 8.52636719 10.26367188 9.30664062 C10.23853516 10.09232422 10.21339844 10.87800781 10.1875 11.6875 C10.17396484 12.48478516 10.16042969 13.28207031 10.14648438 14.10351562 C10.11117089 16.06929967 10.05736447 18.03473582 10 20 C8.35 20 6.7 20 5 20 C4.67 15.05 4.34 10.1 4 5 C2.02 4.34 0.04 3.68 -2 3 C-1.34 2.01 -0.68 1.02 0 0 Z " fill="#646565" transform="translate(349,272)"/>
<path d="M0 0 C3 0.25 3 0.25 5 2.25 C5.30078125 4.125 5.30078125 4.125 5.3125 6.25 C5.32925781 6.95125 5.34601563 7.6525 5.36328125 8.375 C5.18345703 9.303125 5.18345703 9.303125 5 10.25 C1.77856724 12.39762184 0.7404533 12.811068 -3 12.25 C-4.875 10.625 -4.875 10.625 -6 8.25 C-5.70955738 3.40928961 -5.32339906 0.44361659 0 0 Z " fill="#F6F6F6" transform="translate(374,275.75)"/>
<path d="M0 0 C1.65 0 3.3 0 5 0 C5 7.26 5 14.52 5 22 C3.35 22 1.7 22 0 22 C0 14.74 0 7.48 0 0 Z " fill="#717272" transform="translate(120,270)"/>
<path d="M0 0 C0.763125 0.20625 1.52625 0.4125 2.3125 0.625 C2.9375 3.4375 2.9375 3.4375 3.3125 6.625 C2.3225 8.11 2.3225 8.11 1.3125 9.625 C-1.1875 10 -1.1875 10 -3.6875 9.625 C-5.8262261 6.41691085 -6.16480962 5.34801503 -5.6875 1.625 C-2.6875 -0.375 -2.6875 -0.375 0 0 Z " fill="#F0F0F0" transform="translate(396.6875,323.375)"/>
<path d="M0 0 C4.95 0 9.9 0 15 0 C12.12290934 2.87709066 10.79637021 3.9153228 7 5 C4.32229059 4.68863844 2.40443268 4.20221634 0 3 C0 2.01 0 1.02 0 0 Z " fill="#ECEDED" transform="translate(150,283)"/>
<path d="M0 0 C0.625 2.375 0.625 2.375 1 5 C0.34 5.66 -0.32 6.32 -1 7 C-3.625 6.625 -3.625 6.625 -6 6 C-6.33 4.35 -6.66 2.7 -7 1 C-4.53721199 -0.231394 -2.7204945 -0.07159196 0 0 Z " fill="#6D6E6E" transform="translate(380,309)"/>
<path d="M0 0 C1.2065625 0.0309375 1.2065625 0.0309375 2.4375 0.0625 C3.0625 2.4375 3.0625 2.4375 3.4375 5.0625 C2.7775 5.7225 2.1175 6.3825 1.4375 7.0625 C-1.1875 6.6875 -1.1875 6.6875 -3.5625 6.0625 C-3.605221 4.39638095 -3.60313832 2.72867115 -3.5625 1.0625 C-2.5625 0.0625 -2.5625 0.0625 0 0 Z " fill="#636464" transform="translate(414.5625,308.9375)"/>
<path d="M0 0 C0.33 1.32 0.66 2.64 1 4 C-1.97 4 -4.94 4 -8 4 C-7.67 2.68 -7.34 1.36 -7 0 C-4.3333581 -1.33332095 -2.83319697 -0.67102033 0 0 Z " fill="#E5E5E5" transform="translate(330,276)"/>
<path d="M0 0 C1.134375 0.020625 2.26875 0.04125 3.4375 0.0625 C3.1075 1.3825 2.7775 2.7025 2.4375 4.0625 C0.4575 4.3925 -1.5225 4.7225 -3.5625 5.0625 C-4.125 3.125 -4.125 3.125 -4.5625 1.0625 C-3.5625 0.0625 -3.5625 0.0625 0 0 Z " fill="#EBEBEC" transform="translate(436.5625,283.9375)"/>
<path d="M0 0 C1.134375 0.020625 2.26875 0.04125 3.4375 0.0625 C3.1075 1.3825 2.7775 2.7025 2.4375 4.0625 C0.4575 4.3925 -1.5225 4.7225 -3.5625 5.0625 C-4.125 3.125 -4.125 3.125 -4.5625 1.0625 C-3.5625 0.0625 -3.5625 0.0625 0 0 Z " fill="#ECEDED" transform="translate(255.5625,282.9375)"/>
<path d="M0 0 C1.45792884 -0.05399736 2.91642712 -0.09279177 4.375 -0.125 C5.18710937 -0.14820313 5.99921875 -0.17140625 6.8359375 -0.1953125 C9 0 9 0 11 2 C7.86501708 3.85776765 5.62528568 4.20140476 2 4 C1.34 2.68 0.68 1.36 0 0 Z " fill="#F7F8F8" transform="translate(322,284)"/>
<path d="M0 0 C2.31 0 4.62 0 7 0 C7 1.32 7 2.64 7 4 C2.545 4.495 2.545 4.495 -2 5 C-1.34 3.35 -0.68 1.7 0 0 Z " fill="#EFF0F0" transform="translate(433,276)"/>
<path d="M0 0 C0.78375 0.04125 1.5675 0.0825 2.375 0.125 C2.705 1.445 3.035 2.765 3.375 4.125 C0.735 4.455 -1.905 4.785 -4.625 5.125 C-4.625 1.22254579 -3.95783286 0.18846823 0 0 Z " fill="#F1F1F2" transform="translate(255.625,274.875)"/>
<path d="M0 0 C1.98 0 3.96 0 6 0 C6.66 1.32 7.32 2.64 8 4 C5.03 4 2.06 4 -1 4 C-0.67 2.68 -0.34 1.36 0 0 Z " fill="#F0F0F1" transform="translate(395,276)"/>
<path d="M0 0 C1.65 0 3.3 0 5 0 C5.66 1.32 6.32 2.64 7 4 C4.03 4 1.06 4 -2 4 C-1.34 2.68 -0.68 1.36 0 0 Z " fill="#F2F2F2" transform="translate(152,275)"/>
<path d="M0 0 C1.2065625 0.0309375 1.2065625 0.0309375 2.4375 0.0625 C2.1075 2.0425 1.7775 4.0225 1.4375 6.0625 C0.1175 5.7325 -1.2025 5.4025 -2.5625 5.0625 C-3.125 3.125 -3.125 3.125 -3.5625 1.0625 C-2.5625 0.0625 -2.5625 0.0625 0 0 Z " fill="#6D6E6E" transform="translate(122.5625,261.9375)"/>
<path d="M0 0 C0 1.32 0 2.64 0 4 C-2.31 4 -4.62 4 -7 4 C-7.33 3.01 -7.66 2.02 -8 1 C-5.07175348 0.02391783 -3.04386724 -0.08226668 0 0 Z " fill="#D6D6D7" transform="translate(449,323)"/>
<path d="M0 0 C2.31 0.33 4.62 0.66 7 1 C7 1.99 7 2.98 7 4 C3.7 3.67 0.4 3.34 -3 3 C-2.01 2.67 -1.02 2.34 0 2 C0 1.34 0 0.68 0 0 Z " fill="#DDDEDE" transform="translate(179,329)"/>
<path d="M0 0 C1.65 0.33 3.3 0.66 5 1 C5 1.99 5 2.98 5 4 C2.69 4 0.38 4 -2 4 C-1.34 2.68 -0.68 1.36 0 0 Z " fill="#E3E4E4" transform="translate(160,322)"/>
<path d="M0 0 C1.65 0 3.3 0 5 0 C4.67 1.32 4.34 2.64 4 4 C2.35 4 0.7 4 -1 4 C-0.67 2.68 -0.34 1.36 0 0 Z " fill="#DEDEDE" transform="translate(160,329)"/>
<path d="M0 0 C1.65 0 3.3 0 5 0 C4.67 1.32 4.34 2.64 4 4 C2.68 4 1.36 4 0 4 C0 2.68 0 1.36 0 0 Z " fill="#EAEBEB" transform="translate(444,330)"/>
</svg>
