<?xml version="1.0" encoding="UTF-8"?>
<svg version="1.1" xmlns="http://www.w3.org/2000/svg" width="512" height="512">
<path d="M0 0 C1.23134243 -0.00382555 2.46268487 -0.00765109 3.73134071 -0.01159257 C7.11894856 -0.02007443 10.50633731 -0.01970866 13.89393842 -0.01541197 C17.55940009 -0.01293196 21.22483691 -0.02197476 24.89028931 -0.02944946 C32.06039449 -0.04216419 39.23046217 -0.04399411 46.40057673 -0.0416492 C52.23351466 -0.03986191 58.06644125 -0.04162448 63.89937782 -0.04587364 C64.73142696 -0.04646883 65.5634761 -0.04706402 66.42073885 -0.04767724 C68.11140428 -0.04888908 69.8020697 -0.05010321 71.49273513 -0.05131962 C87.32993812 -0.06218318 103.1671198 -0.06003855 119.004324 -0.05393478 C133.46492876 -0.04876926 147.92546609 -0.06001353 162.38605752 -0.07903299 C177.26197263 -0.09844748 192.1378559 -0.10666091 207.01378375 -0.10290974 C215.35426065 -0.10100284 223.6946802 -0.10343505 232.03514671 -0.11762428 C239.1373544 -0.12958534 246.23946945 -0.13089051 253.34167852 -0.11883412 C256.9588983 -0.11297777 260.57594905 -0.11175489 264.1931572 -0.12383652 C292.11608434 -0.21079741 292.11608434 -0.21079741 305.31977844 3.26069641 C306.14833186 3.47795726 306.97688528 3.69521811 307.83054638 3.91906261 C323.79514586 8.55303452 338.56142848 16.6842092 351.31977844 27.26069641 C352.59208313 28.30483704 352.59208313 28.30483704 353.89009094 29.37007141 C376.35519054 48.66611307 390.28028073 76.06103512 394.31977844 105.26069641 C394.58476737 109.49004048 394.59461812 113.70424747 394.58047485 117.94091797 C394.5843004 119.1722604 394.58812595 120.40360283 394.59206742 121.67225868 C394.60054928 125.05986652 394.60018352 128.44725528 394.59588683 131.83485639 C394.59340681 135.50031806 394.60244962 139.16575488 394.60992432 142.83120728 C394.62263904 150.00131246 394.62446897 157.17138014 394.62212405 164.3414947 C394.62033676 170.17443263 394.62209933 176.00735922 394.6263485 181.84029579 C394.62694368 182.67234493 394.62753887 183.50439407 394.6281521 184.36165682 C394.62936393 186.05232225 394.63057807 187.74298767 394.63179448 189.43365309 C394.64265803 205.27085609 394.6405134 221.10803777 394.63440963 236.94524197 C394.62924411 251.40584673 394.64048838 265.86638406 394.65950785 280.32697549 C394.67892234 295.2028906 394.68713576 310.07877387 394.6833846 324.95470172 C394.68147769 333.29517862 394.6839099 341.63559817 394.69809914 349.97606468 C394.7100602 357.07827237 394.71136536 364.18038742 394.69930897 371.28259649 C394.69345262 374.89981627 394.69222974 378.51686702 394.70431137 382.13407516 C394.79127226 410.05700231 394.79127226 410.05700231 391.31977844 423.26069641 C391.1025176 424.08924983 390.88525675 424.91780325 390.66141224 425.77146435 C386.04087699 441.6897729 377.92041903 456.57497114 367.31977844 469.26069641 C366.48833313 470.25585266 365.65688782 471.25100891 364.80024719 472.27632141 C354.51610765 484.1934091 342.2360705 493.03810778 328.31977844 500.26069641 C326.97013 500.96645813 326.97013 500.96645813 325.59321594 501.68647766 C320.16650733 504.33425241 314.5909119 506.22048362 308.81977844 507.94819641 C308.14390686 508.15082092 307.46803528 508.35344543 306.77168274 508.56221008 C296.73740614 511.43273891 287.08556469 512.55669632 276.65974426 512.52812195 C275.43051853 512.53265306 274.20129279 512.53718417 272.93481779 512.54185259 C269.55300588 512.5522591 266.17140807 512.55383343 262.7895956 512.55146384 C259.13020776 512.55105324 255.47085084 512.56211801 251.81147766 512.57157898 C244.65240174 512.58813909 237.49335877 512.59368631 230.33426529 512.59480374 C224.50850367 512.59575681 218.68275284 512.59988002 212.85699463 512.60620499 C196.3062928 512.62380564 179.75561682 512.63304598 163.20490557 512.63154404 C162.31404409 512.63146413 161.4231826 512.63138421 160.50532532 512.63130188 C159.16738345 512.63117924 159.16738345 512.63117924 157.80241245 512.63105412 C143.36321597 512.63024208 128.92412402 512.64936198 114.48495775 512.67757861 C99.62597729 512.70638424 84.76704768 512.72011462 69.90803862 512.71839106 C61.57918092 512.71772969 53.25043273 512.72311006 44.92160034 512.74474716 C37.82714586 512.76306062 30.73285051 512.76722387 23.63838249 512.75372832 C20.0268156 512.74724875 16.41555305 512.74689664 12.80401611 512.76443481 C-24.84890681 512.93563323 -56.01930139 503.77574898 -83.73100281 477.26850891 C-92.85536082 468.1893359 -99.77651623 457.63579913 -105.68022156 446.26069641 C-106.38598328 444.91104797 -106.38598328 444.91104797 -107.10600281 443.53413391 C-109.75377756 438.1074253 -111.64000876 432.53182986 -113.36772156 426.76069641 C-113.57034607 426.08482483 -113.77297058 425.40895325 -113.98173523 424.71260071 C-116.85470274 414.6697994 -117.97575242 405.01527094 -117.94091797 394.58047485 C-117.94474352 393.34913242 -117.94856906 392.11778999 -117.95251054 390.84913415 C-117.9609924 387.4615263 -117.96062663 384.07413754 -117.95632994 380.68653643 C-117.95384993 377.02107477 -117.96289273 373.35563794 -117.97036743 369.69018555 C-117.98308216 362.52008036 -117.98491208 355.35001268 -117.98256717 348.17989812 C-117.98077988 342.3469602 -117.98254245 336.5140336 -117.98679161 330.68109703 C-117.9873868 329.84904789 -117.98798199 329.01699875 -117.98859521 328.159736 C-117.98980705 326.46907058 -117.99102118 324.77840515 -117.99223759 323.08773973 C-118.00310115 307.25053673 -118.00095652 291.41335505 -117.99485274 275.57615086 C-117.98968723 261.11554609 -118.00093149 246.65500877 -118.01995096 232.19441734 C-118.03936545 217.31850222 -118.04757888 202.44261895 -118.04382771 187.5666911 C-118.04192081 179.2262142 -118.04435302 170.88579465 -118.05854225 162.54532814 C-118.07050331 155.44312045 -118.07180848 148.3410054 -118.05975208 141.23879633 C-118.05389574 137.62157655 -118.05267286 134.00452581 -118.06475449 130.38731766 C-118.15171538 102.46439051 -118.15171538 102.46439051 -114.68022156 89.26069641 C-114.46296071 88.43214299 -114.24569986 87.60358957 -114.02185535 86.74992847 C-105.08117928 55.94820686 -83.57840799 29.59347524 -55.61479187 14.11763 C-38.19053319 4.9562113 -19.71027249 -0.06579875 0 0 Z " fill="#0063FF" transform="translate(117.68022155761719,-0.2606964111328125)"/>
<path d="M0 0 C0.99644531 0.05929688 1.99289062 0.11859375 3.01953125 0.1796875 C27.50955406 2.98833347 49.01011743 20.54907766 64 39 C76.51743026 56.04532798 84.41272219 75.61282804 82 97 C78.59607792 115.42951898 65.79003515 126.78595263 53.05859375 139.44311523 C51.21588937 141.28960667 49.37404378 143.13695547 47.5329895 144.98509216 C43.06749188 149.46445711 38.59141084 153.9330966 34.11143231 158.39797377 C28.88872942 163.60374563 23.67615432 168.81961061 18.46377981 174.03572036 C9.16232311 183.34304318 -0.1490891 192.64034262 -9.46582031 201.93237305 C-18.49717237 210.93978381 -27.52003447 219.95559396 -36.53417969 228.98022461 C-46.36619473 238.82365604 -56.20293917 248.6623163 -66.04787731 258.49282414 C-67.09799147 259.54141254 -68.14810294 260.59000365 -69.19821167 261.63859749 C-69.7148145 262.15444251 -70.23141733 262.67028752 -70.7636748 263.20176421 C-74.39738532 266.83073938 -78.02779958 270.46299211 -81.65701294 274.09646416 C-86.54175983 278.98665957 -91.4345624 283.86867188 -96.33282852 288.74532509 C-98.12888824 290.535821 -99.92240864 292.32886829 -101.71319199 294.12464142 C-104.1579626 296.57536886 -106.6117794 299.01666751 -109.06811523 301.45579529 C-109.77444879 302.16813888 -110.48078234 302.88048248 -111.20851994 303.61441225 C-117.24724758 309.57644073 -122.61551981 313.11709972 -131.1640625 314.5625 C-131.82884613 314.67898895 -132.49362976 314.79547791 -133.17855835 314.91549683 C-135.32548304 315.2891397 -137.47502179 315.64439456 -139.625 316 C-141.13437449 316.26037936 -142.64348811 316.52227519 -144.15234375 316.78564453 C-147.12053769 317.30282802 -150.089571 317.81457899 -153.05957031 318.32128906 C-157.71650082 319.12341216 -162.36030219 319.97930351 -167 320.875 C-168.13441528 321.09216675 -168.13441528 321.09216675 -169.29174805 321.3137207 C-175.59173564 322.52461619 -181.88732472 323.75823 -188.18359375 324.98828125 C-189.10097321 325.16746094 -190.01835266 325.34664063 -190.96353149 325.53125 C-195.63029259 326.44293452 -200.29680993 327.35583535 -204.96289062 328.27099609 C-206.70312298 328.61166394 -208.44335728 328.9523219 -210.18359375 329.29296875 C-210.98276718 329.45009842 -211.78194061 329.60722809 -212.60533142 329.76911926 C-232.48777034 333.65710777 -232.48777034 333.65710777 -240.14453125 329.33203125 C-245.19218239 325.70834906 -248.79215385 321.16001536 -250 315 C-250.84599636 306.33109235 -248.83428435 297.95470524 -247.09481812 289.51959229 C-246.16577868 285.01314119 -245.26765792 280.50051265 -244.3671875 275.98828125 C-244.17591782 275.03338806 -243.98464813 274.07849487 -243.7875824 273.09466553 C-242.30972745 265.67351722 -240.92190901 258.2380737 -239.5703125 250.79296875 C-239.37064377 249.69385666 -239.17097504 248.59474457 -238.96525574 247.46232605 C-238.17819677 243.12008696 -237.39350593 238.77745415 -236.61697388 234.43331909 C-236.07548217 231.40532969 -235.52828113 228.37841372 -234.98046875 225.3515625 C-234.82446198 224.46659592 -234.6684552 223.58162933 -234.50772095 222.66984558 C-234.04126722 220.10428924 -233.53487377 217.55214747 -233 215 C-232.80862457 214.07354675 -232.61724915 213.14709351 -232.42007446 212.19256592 C-232.19935272 211.25551819 -231.97863098 210.31847046 -231.7512207 209.35302734 C-231.56026321 208.51830902 -231.36930573 207.6835907 -231.17256165 206.82357788 C-228.09253362 199.40674053 -221.93557041 193.64315493 -216.32917786 188.06175232 C-215.19994409 186.92572188 -215.19994409 186.92572188 -214.04789752 185.76674134 C-211.54031358 183.24656241 -209.02570255 180.73351959 -206.51098633 178.22045898 C-204.70491297 176.40839739 -202.89924925 174.59592744 -201.09396362 172.78308105 C-196.70755028 168.38086156 -192.31640404 163.98341448 -187.92264006 159.58853274 C-184.3487974 156.0137371 -180.776544 152.43736099 -177.20538902 148.85988045 C-167.06369008 138.70058543 -156.91782623 128.54547639 -146.7665743 118.39572667 C-146.2202625 117.84949478 -145.67395069 117.30326289 -145.11108398 116.74047852 C-144.56409868 116.19357497 -144.01711337 115.64667142 -143.45355275 115.08319504 C-134.59081217 106.22126724 -125.73809034 97.34940569 -116.88986722 88.47298502 C-107.78817631 79.34251968 -98.67900059 70.21958055 -89.56204814 61.10435349 C-84.45025159 55.99321919 -79.3415408 50.8790883 -74.24088478 45.75683403 C-69.44272015 40.93848115 -64.63422256 36.1306802 -59.81869125 31.32967377 C-58.05728341 29.57035229 -56.29925722 27.80763732 -54.54496193 26.04122353 C-38.05409666 9.44388036 -24.46876051 -1.53393645 0 0 Z " fill="#FDFDFF" transform="translate(340,90)"/>
<path d="M0 0 C3.57173038 1.68111386 5.87940074 3.63697986 8.67675781 6.44970703 C9.59741028 7.37051056 10.51806274 8.29131409 11.46661377 9.24002075 C12.4622253 10.24584465 13.45772648 11.2517778 14.453125 12.2578125 C15.47830193 13.28672149 16.50392275 14.31518837 17.52996826 15.3432312 C20.22393164 18.04481581 22.91183368 20.75235341 25.59851074 23.46118164 C28.34328304 26.22644489 31.09375472 28.98602633 33.84375 31.74609375 C39.23475573 37.15852274 44.61936964 42.57725438 50 48 C48.41300673 51.82031774 45.99268411 54.29757232 43.11735535 57.23754883 C42.61593578 57.75267186 42.11451622 58.2677949 41.59790212 58.79852772 C39.9166969 60.52282167 38.22836919 62.2399552 36.53979492 63.95703125 C35.33190198 65.19219428 34.1243241 66.42766548 32.91703796 67.66342163 C21.87058497 78.95639379 10.76106912 90.18818861 -0.36128712 101.40635681 C-8.57140308 109.68846049 -16.75247155 117.99713753 -24.89681321 126.34394169 C-30.63703378 132.22193303 -36.40998814 138.06652075 -42.20732993 143.88817501 C-45.66235974 147.35954218 -49.10170891 150.84356453 -52.50611305 154.36465454 C-78.61106861 181.3243615 -78.61106861 181.3243615 -94.51408386 181.9151001 C-95.61511727 181.91660694 -95.61511727 181.91660694 -96.73839378 181.91814423 C-100.75868489 182.06365322 -104.61925298 183.03893043 -108.53125 183.921875 C-110.03450829 184.23103215 -111.53833582 184.53744769 -113.04296875 184.83984375 C-115.30336538 185.30067236 -117.56340261 185.76307504 -119.82275391 186.22900391 C-122.07888233 186.69351489 -124.33617851 187.15193668 -126.59375 187.609375 C-127.26764771 187.74994324 -127.94154541 187.89051147 -128.63586426 188.03533936 C-132.15970556 188.74412448 -135.4143697 189.05680681 -139 189 C-138.45332364 181.56414596 -137.45567047 174.34948876 -136.00390625 167.0390625 C-135.71349709 165.54866959 -135.71349709 165.54866959 -135.41722107 164.02816772 C-135.01058904 161.94874893 -134.6012221 159.86986319 -134.18920898 157.79150391 C-133.56028349 154.6138009 -132.94266872 151.43404122 -132.32617188 148.25390625 C-131.92775319 146.22382675 -131.52868753 144.1938741 -131.12890625 142.1640625 C-130.85379967 140.74524277 -130.85379967 140.74524277 -130.57313538 139.29776001 C-130.39632736 138.41268768 -130.21951935 137.52761536 -130.03735352 136.61572266 C-129.88492691 135.84281891 -129.73250031 135.06991516 -129.57545471 134.27359009 C-128.17335774 128.73398164 -126.00335056 125.63055958 -121.93807983 121.57731628 C-121.41775983 121.05443301 -120.89743984 120.53154974 -120.36135256 119.99282151 C-118.61953052 118.24606597 -116.86721814 116.51023546 -115.11474609 114.77416992 C-113.86259109 113.52286128 -112.6110966 112.27089138 -111.36021423 111.01831055 C-107.96423348 107.62146879 -104.55908005 104.23395851 -101.15221739 100.84803557 C-97.59275345 97.30732063 -94.04177878 93.75811281 -90.48989868 90.20979309 C-83.76338426 83.49260433 -77.02925877 76.78309978 -70.29237235 70.07631522 C-62.62271555 62.44018613 -54.96157174 54.79554056 -47.30113482 47.15016401 C-31.54355085 31.42394087 -15.77529486 15.70845561 0 0 Z " fill="#0163FF" transform="translate(277,185)"/>
<path d="M0 0 C14.85399915 3.05525401 27.11794877 14.21001663 36 26 C39.81595754 32.40847832 43.77873387 39.97626441 43.71166992 47.59716797 C42.00647338 53.35447306 36.29226727 57.48532902 32 61.5 C30.93828617 62.52155138 29.87836854 63.54497309 28.8203125 64.5703125 C26.23396687 67.06884883 23.62399125 69.54095985 21 72 C14.95734086 66.99744121 9.43901957 61.56822676 3.91015625 56.0078125 C2.95631046 55.05209752 2.00224059 54.09660612 1.04795837 53.1413269 C-1.44153194 50.64805084 -3.92800224 48.15178475 -6.41381836 45.65484619 C-8.95957994 43.09878491 -11.50823777 40.54561495 -14.05664062 37.9921875 C-19.04057069 32.99758981 -24.02131048 27.99982201 -29 23 C-24.49611311 17.7056319 -19.89551823 12.56012434 -15.0625 7.5625 C-14.38509766 6.83095703 -13.70769531 6.09941406 -13.00976562 5.34570312 C-8.77282354 0.99501763 -6.37925348 -1.0670197 0 0 Z " fill="#0264FF" transform="translate(337,132)"/>
</svg>
