<?xml version="1.0" encoding="UTF-8"?>
<svg version="1.1" xmlns="http://www.w3.org/2000/svg" width="512" height="512">
<path d="M0 0 C6.09705706 4.1037884 9.04576301 9.04303169 10.74164581 16.07540894 C11.4482184 19.84157517 12.06708626 23.61670886 12.65722656 27.40234375 C12.89313848 28.85196528 13.13021044 30.30139842 13.36834717 31.75065613 C14.00795081 35.66351645 14.63139996 39.57879522 15.25187397 43.49472809 C15.90438263 47.59485826 16.57186628 51.69254919 17.23773193 55.79052734 C18.49478341 63.54114306 19.73844766 71.29384409 20.97725844 79.0473938 C22.38892267 87.87860077 23.81558289 96.70736435 25.24347734 105.53595924 C28.17895466 123.68798012 31.09568537 141.84296842 34 160 C34.81939515 155.24467493 35.63764157 150.48915401 36.45490074 145.73346138 C36.73210195 144.12132077 37.00959742 142.50923073 37.28741264 140.89719582 C38.91724209 131.438728 40.51157267 121.97790954 41.9765625 112.4921875 C42.25772469 110.68748632 42.53896231 108.88279688 42.8203125 107.078125 C43.23194829 104.42890483 43.63936066 101.77927358 44.03710938 99.12792969 C44.44291717 96.43492823 44.86461911 93.7448061 45.2890625 91.0546875 C45.40271149 90.27036346 45.51636047 89.48603943 45.63345337 88.677948 C46.71235264 81.98621121 48.58540533 74.77504054 53.8125 70.125 C60.09457922 65.93694719 65.49644254 63.89394798 73 65 C79.87231761 66.90834605 83.86639083 70.27933796 88 76 C89.13918914 78.65864585 89.99444645 81.01437283 90.7578125 83.76953125 C91.11167526 84.96181084 91.11167526 84.96181084 91.47268677 86.17817688 C92.33568305 89.1131757 93.16758904 92.05618168 94 95 C94.55204892 96.91838093 95.1041449 98.83674853 95.65726852 100.75481987 C98.21065602 109.61513123 100.71877252 118.48803766 103.21966553 127.36328125 C104.32399201 131.27990157 105.43168689 135.19556904 106.5390625 139.11132812 C108.69592642 146.73997915 110.84917443 154.36964433 113 162 C113.57105469 162.00364563 114.14210938 162.00729126 114.73046875 162.01104736 C120.70109016 162.05302088 126.67095345 162.12246952 132.64111328 162.20751953 C134.86597086 162.23565772 137.09092707 162.25690765 139.31591797 162.27099609 C142.52362303 162.29252432 145.73015103 162.33922678 148.9375 162.390625 C150.41766602 162.39246796 150.41766602 162.39246796 151.92773438 162.39434814 C159.09194185 162.54457431 164.53196578 164.0073141 170.0234375 168.74609375 C170.46945312 169.30425781 170.91546875 169.86242187 171.375 170.4375 C171.83648437 170.99308594 172.29796875 171.54867187 172.7734375 172.12109375 C176.48576087 177.80780566 176.73312258 183.39261673 176 190 C174.27177552 196.04361134 170.40533126 200.80362709 165 204 C158.02159919 206.7081857 150.83935526 206.32805761 143.44921875 206.3359375 C142.02586233 206.34237621 140.60250719 206.34910534 139.17915344 206.35610962 C136.20281917 206.36804486 133.22660063 206.37179436 130.25024414 206.37060547 C126.46100986 206.37040255 122.67252786 206.39769218 118.88347149 206.43214989 C115.9449583 206.45453251 113.00662288 206.45843956 110.06803322 206.45738602 C108.67235538 206.4597254 107.27667137 206.4684538 105.88107872 206.48405075 C97.01383937 206.57387245 88.00317185 206.51290662 81.06864929 200.25790405 C78.20712811 197.16515755 76.23319598 194.06954674 75 190 C73.32501064 191.67498936 73.51271524 193.87479186 73.203125 196.171875 C73.0484375 197.22890625 72.89375 198.2859375 72.734375 199.375 C72.41396537 201.60753163 72.10645642 203.84195653 71.8125 206.078125 C70.44148412 215.18874664 70.44148412 215.18874664 67.546875 218.265625 C65 220 65 220 62 220 C61.86722656 220.98742187 61.73445313 221.97484375 61.59765625 222.9921875 C61.42105469 224.27351562 61.24445313 225.55484375 61.0625 226.875 C60.88847656 228.15117187 60.71445312 229.42734375 60.53515625 230.7421875 C60 234 60 234 59 236 C59.61875 236.103125 60.2375 236.20625 60.875 236.3125 C63 237 63 237 65 240 C65.36078402 244.78038829 64.9910911 248.61959959 63 253 C60.44011936 255.47730384 59.61186134 256 56 256 C55.6616656 258.37438249 55.32920998 260.74934959 55 263.125 C54.90460938 263.79015625 54.80921875 264.4553125 54.7109375 265.140625 C54.164858 269.11920421 53.71248905 272.9868263 54 277 C54.66 277.5775 55.32 278.155 56 278.75 C58.74080744 281.83340837 58.50125037 283.86188703 58.31640625 287.88671875 C56.20131167 308.69820491 56.20131167 308.69820491 49 316 C43.26695061 320.41767442 37.15386889 321.88319369 30 321 C23.32461816 319.12501965 18.65796742 315.89081423 15 310 C11.93615462 302.32150758 10.84077958 294.03994965 9.5480957 285.92480469 C9.32161645 284.53397626 9.09455931 283.14324184 8.86697388 281.75259399 C8.25560879 278.00595227 7.65260858 274.2580099 7.05144906 270.50971889 C6.41913687 266.57473389 5.7798875 262.64087514 5.14164734 258.70684814 C4.07208195 252.10739955 3.00789207 245.50710153 1.94702148 238.90625 C0.72179185 231.28310906 -0.5115834 223.66132043 -1.74938458 216.04021144 C-2.94290426 208.69076319 -4.13105252 201.34045663 -5.31662941 193.98972321 C-5.82013212 190.86838981 -6.32543528 187.74735586 -6.83218956 184.62654877 C-7.42837184 180.95329767 -8.01981623 177.27931379 -8.60764694 173.60471725 C-8.9265396 171.61828719 -9.25005492 169.63260095 -9.57371521 167.64694214 C-9.85750031 165.86403275 -9.85750031 165.86403275 -10.14701843 164.04510498 C-10.31273189 163.01646709 -10.47844534 161.98782921 -10.64918041 160.92802048 C-11.00917571 157.92341747 -11.0614621 155.02308497 -11 152 C-11.66 152 -12.32 152 -13 152 C-13.04623127 152.703188 -13.09246254 153.406376 -13.14009476 154.13087273 C-13.73364221 162.19685138 -14.87979031 170.08572481 -16.23730469 178.05517578 C-16.46617097 179.41994956 -16.69464444 180.78478926 -16.92276001 182.14968872 C-17.53771936 185.81983274 -18.15928552 189.48882507 -18.78303432 193.15748453 C-19.17375636 195.45638187 -19.56331884 197.75547293 -19.9525528 200.05462265 C-21.17426287 207.26889052 -22.40010475 214.4824381 -23.6319263 221.69498646 C-25.04759924 229.98427676 -26.44939365 238.27575705 -27.8392837 246.56940854 C-28.91933904 253.0090665 -30.01175955 259.44655149 -31.11343694 265.88254535 C-31.7690867 269.71446653 -32.41962479 273.54708185 -33.05721283 277.38205338 C-33.6570656 280.98796444 -34.27235046 284.59091499 -34.89912033 288.19224167 C-35.23208566 290.12785756 -35.54933503 292.06615688 -35.86593628 294.0045166 C-37.33381678 302.31756353 -39.36845939 310.1721599 -45.3125 316.4375 C-51.62376963 320.10684281 -57.63493898 322.34910891 -65.00390625 320.49609375 C-71.10577427 318.46985674 -75.99294422 315.33266543 -79.02874756 309.50061035 C-81.40249964 304.56313183 -82.34579459 299.54409684 -83.29003906 294.17773438 C-83.48569458 293.12318054 -83.6813501 292.06862671 -83.88293457 290.9821167 C-84.52207482 287.52134004 -85.14394212 284.05770132 -85.765625 280.59375 C-86.20724791 278.1836018 -86.64995166 275.77365141 -87.09368896 273.3638916 C-88.25521901 267.03985591 -89.40209489 260.71324874 -90.54589844 254.38598633 C-91.71704098 247.92236778 -92.90207965 241.46129946 -94.0859375 235 C-96.40420136 222.335787 -98.70745918 209.6688934 -101 197 C-101.60400635 197.93211304 -101.60400635 197.93211304 -102.22021484 198.88305664 C-103.01999756 200.10303345 -103.01999756 200.10303345 -103.8359375 201.34765625 C-104.3623584 202.15468994 -104.8887793 202.96172363 -105.43115234 203.79321289 C-108.1790945 207.65854889 -111.636336 210.22874015 -116 212 C-119.07792664 212.28088379 -119.07792664 212.28088379 -122.73706055 212.32226562 C-123.74037666 212.33716034 -123.74037666 212.33716034 -124.76396179 212.35235596 C-126.9715898 212.3815052 -129.17893009 212.39518926 -131.38671875 212.40625 C-132.92885845 212.41776397 -134.47099814 212.42927929 -136.01313782 212.4407959 C-139.24697191 212.4617914 -142.48070698 212.47349153 -145.71459961 212.48046875 C-149.83947018 212.4914114 -153.96301128 212.53941359 -158.08746624 212.59641266 C-161.27472119 212.6338467 -164.46166231 212.64408618 -167.64911842 212.6471405 C-169.1684779 212.65315789 -170.68783421 212.66909402 -172.20697594 212.69551086 C-180.2581818 212.82547997 -186.751987 212.72851784 -193.35139465 207.60070801 C-198.23088813 202.86297966 -200.14718561 198.10779133 -200.3125 191.3125 C-200.23759627 185.66748259 -199.58614768 181.46033326 -196 177 C-191.23532438 172.61879928 -187.11380495 169.9238001 -180.52856445 169.79467773 C-179.62785721 169.77473251 -178.72714996 169.75478729 -177.79914856 169.73423767 C-176.34589424 169.70916893 -176.34589424 169.70916893 -174.86328125 169.68359375 C-173.37141548 169.6524221 -173.37141548 169.6524221 -171.84941101 169.62062073 C-168.67051133 169.55520588 -165.49152866 169.4962776 -162.3125 169.4375 C-160.15819452 169.39430712 -158.00389746 169.35069258 -155.84960938 169.30664062 C-150.56649412 169.19953274 -145.28329621 169.09775127 -140 169 C-139.74579285 168.0155188 -139.49158569 167.0310376 -139.22967529 166.01672363 C-136.82687757 156.71615573 -134.41457549 147.41809804 -131.9930687 138.12238312 C-130.74860326 133.34387169 -129.50744293 128.56455349 -128.27392578 123.78320312 C-127.08226099 119.16459051 -125.88179761 114.54834585 -124.67533112 109.93357849 C-124.21773769 108.17704425 -123.76326169 106.4196947 -123.31203461 104.66151428 C-122.67699793 102.18939642 -122.03069874 99.72047262 -121.38183594 97.25195312 C-121.19985153 96.53265625 -121.01786713 95.81335938 -120.83036804 95.07226562 C-118.73496229 87.2042003 -116.00900621 80.83272794 -109.12890625 76.1953125 C-102.96797967 72.73615005 -97.57021868 72.56692545 -90.6875 74.0390625 C-84.36925916 76.29820094 -79.97262581 81.10758668 -77 87 C-76.03701225 90.54098971 -75.38856443 94.1298435 -74.73046875 97.73828125 C-74.52870529 98.8002623 -74.32694183 99.86224335 -74.11906433 100.95640564 C-73.46585882 104.40674988 -72.8265602 107.85951053 -72.1875 111.3125 C-71.74322752 113.67366784 -71.29807524 116.0346703 -70.85205078 118.39550781 C-69.75725405 124.20167978 -68.67328902 130.00980885 -67.59283447 135.81866455 C-66.73913153 140.39990192 -65.87598316 144.97933916 -65.01171875 149.55859375 C-63.66442366 156.70387373 -62.32702467 163.85092314 -61 171 C-60.67 171 -60.34 171 -60 171 C-59.86545819 170.20008196 -59.73091639 169.40016392 -59.59229755 168.57600594 C-56.31259577 149.08331465 -53.01510885 129.59370468 -49.6979723 110.10734749 C-48.09423386 100.68368935 -46.49645891 91.2590934 -44.9128418 81.83203125 C-43.53202502 73.61230609 -42.13989555 65.39459001 -40.73433226 57.17905891 C-39.9909665 52.83172888 -39.253176 48.48362189 -38.5289402 44.13306046 C-37.84599041 40.03161637 -37.14785277 35.9330396 -36.43837738 31.83610344 C-36.18169871 30.33835061 -35.93040955 28.83966168 -35.6851635 27.33999443 C-34.14329367 17.93563578 -32.46062885 8.70174392 -25.6875 1.5625 C-17.02627739 -3.47309454 -9.16302953 -4.6281697 0 0 Z " fill="#351F71" transform="translate(268,97)"/>
<path d="M0 0 C3.5 0.625 3.5 0.625 5.57080078 2.39453125 C8.49442443 7.29017642 9.01174989 12.35163339 9.8671875 17.9375 C10.16757431 19.77590958 10.16757431 19.77590958 10.47402954 21.65145874 C11.0113329 24.95767041 11.53501134 28.26548228 12.05245972 31.57482147 C12.59097196 34.99779307 13.14682874 38.41794202 13.70117188 41.83837891 C14.57885902 47.26618891 15.44715703 52.69540993 16.30761719 58.12597656 C17.32375904 64.53254561 18.3608642 70.9353665 19.4140625 77.3359375 C23.2031258 100.40904117 23.2031258 100.40904117 24.421875 109.16015625 C26.16512426 121.53722602 28.28786683 133.8585778 30.32324219 146.19018555 C30.68446143 148.38196301 31.04546373 150.57377623 31.40625 152.765625 C31.5848053 153.85019485 31.7633606 154.93476471 31.94732666 156.05220032 C33.08583081 163.00193073 34.17014943 169.95807047 35.21875 176.921875 C35.60714228 179.4608333 35.99676095 181.99960005 36.38684082 184.53829956 C36.62737195 186.1273614 36.86207225 187.71731767 37.09069824 189.30813599 C37.40534899 191.49565661 37.73957825 193.67935189 38.078125 195.86328125 C38.34737793 197.689198 38.34737793 197.689198 38.62207031 199.55200195 C39.61315957 203.02108998 40.62227088 204.48071158 43.5 206.625 C47.1985004 206.47705998 48.85805573 206.26694427 51.5 203.625 C53.31361635 197.90744664 53.96869235 191.80489351 54.75 185.875 C56.13465043 175.80701156 57.73750867 165.77921844 59.375 155.75 C59.50465149 154.95537354 59.63430298 154.16074707 59.7678833 153.34204102 C60.2941691 150.11775722 60.82094956 146.89355502 61.34860229 143.66949463 C62.6190019 135.90652447 63.87359602 128.1410515 65.125 120.375 C65.32762451 119.12074219 65.53024902 117.86648437 65.73901367 116.57421875 C66.71322652 110.53813685 67.67928815 104.50094061 68.62890625 98.4609375 C68.89743408 96.7598584 68.89743408 96.7598584 69.17138672 95.02441406 C69.5022671 92.92518624 69.83091996 90.82560539 70.15673828 88.72558594 C70.84825143 84.34474858 71.57466577 79.97006029 72.42578125 75.6171875 C72.62747925 74.56700439 72.62747925 74.56700439 72.83325195 73.49560547 C73.65355909 71.19417987 74.57672634 70.12110116 76.5 68.625 C79.9375 68.125 79.9375 68.125 83.5 68.625 C88.45256197 73.02087865 89.29302286 79.3329213 90.8125 85.5 C91.41871186 87.85628481 92.0281511 90.21174138 92.640625 92.56640625 C92.94806641 93.75121582 93.25550781 94.93602539 93.57226562 96.15673828 C94.94522739 101.28944745 96.48762117 106.36371586 98.0625 111.4375 C100.31139079 118.70770716 102.49043342 125.98983712 104.5625 133.3125 C105.5399695 136.75048489 106.51917525 140.18797084 107.5 143.625 C107.900979 145.03096436 107.900979 145.03096436 108.31005859 146.46533203 C109.11477136 149.27113208 109.93082128 152.07339369 110.75 154.875 C110.9962915 155.73955811 111.24258301 156.60411621 111.49633789 157.49487305 C112.10463326 159.55677371 112.79474907 161.59421721 113.5 163.625 C116.00578878 164.87789439 117.70917821 164.74956785 120.51293945 164.75097656 C122.08015495 164.75668671 122.08015495 164.75668671 123.67903137 164.76251221 C124.81233383 164.76353943 125.94563629 164.76456665 127.11328125 164.765625 C129.49935851 164.78395183 131.88542649 164.80352203 134.27148438 164.82421875 C138.04402304 164.85320993 141.81596567 164.87500045 145.58862305 164.87548828 C149.22238416 164.8788183 152.8547601 164.91334553 156.48828125 164.953125 C157.61551102 164.9460553 158.74274078 164.9389856 159.90412903 164.93170166 C168.62547557 165.06749692 168.62547557 165.06749692 171.71557617 168.00683594 C173.5 170.625 173.5 170.625 174.0625 173.1875 C173.30760346 176.45871833 172.11748189 177.54378137 169.5 179.625 C166.57151794 180.12620544 166.57151794 180.12620544 163.12670898 180.12670898 C161.83534531 180.13608994 160.54398163 180.14547089 159.21348572 180.15513611 C157.80768164 180.1446589 156.40188396 180.13329003 154.99609375 180.12109375 C153.55168078 180.12124875 152.10726739 180.12273797 150.66285706 180.12550354 C147.63906416 180.12688682 144.61574602 180.11434063 141.59204102 180.09155273 C137.71578056 180.06314217 133.84030725 180.06591291 129.9639883 180.07864285 C126.98282645 180.08559606 124.00184669 180.07781541 121.02070808 180.06538582 C119.59136719 180.06086958 118.16200677 180.06053604 116.73266411 180.06445122 C114.73637548 180.06736021 112.74009047 180.04870795 110.74389648 180.02905273 C109.60790512 180.02364975 108.47191376 180.01824677 107.30149841 180.01268005 C104.5 179.625 104.5 179.625 102.69216919 178.33508301 C100.57301216 175.29530102 99.83410583 171.69431729 98.87109375 168.16015625 C98.63592545 167.33043808 98.40075714 166.50071991 98.15846252 165.64585876 C97.40877237 162.99560401 96.67243706 160.34188014 95.9375 157.6875 C95.19696974 155.03732042 94.45360209 152.38799719 93.70582581 149.73985291 C93.24145128 148.09286232 92.78158039 146.4445936 92.32676697 144.79493713 C92.11637283 144.04413376 91.9059787 143.29333038 91.68920898 142.51977539 C91.507285 141.86264053 91.32536102 141.20550568 91.13792419 140.52845764 C89.79247266 136.28772547 89.79247266 136.28772547 86.5 133.625 C83.54211431 133.2082448 83.54211431 133.2082448 80.5 133.625 C77.69931932 136.53346315 76.96507645 139.116326 76.33325195 143.04516602 C76.15329178 144.13052139 75.9733316 145.21587677 75.78791809 146.3341217 C75.60653793 147.5039006 75.42515778 148.6736795 75.23828125 149.87890625 C75.04276169 151.09013657 74.84724213 152.30136688 74.64579773 153.54930115 C74.23447211 156.11474763 73.82884064 158.68111257 73.4284668 161.24829102 C72.8182828 165.15051805 72.18696466 169.04888319 71.55273438 172.94726562 C71.15497409 175.44510966 70.7584504 177.94315098 70.36328125 180.44140625 C70.08210197 182.17482018 70.08210197 182.17482018 69.79524231 183.94325256 C68.13447984 194.24936189 68.13447984 194.24936189 68.5 204.625 C70.95747483 206.87268235 70.95747483 206.87268235 73.5 208.625 C73.5859375 212.0078125 73.5859375 212.0078125 72.875 215.75 C72.65585937 216.99007812 72.43671875 218.23015625 72.2109375 219.5078125 C71.5 222.625 71.5 222.625 70.5 224.625 C71.428125 224.7796875 71.428125 224.7796875 72.375 224.9375 C74.5 225.625 74.5 225.625 76.5 228.625 C76.86078402 233.40538829 76.4910911 237.24459959 74.5 241.625 C71.94011936 244.10230384 71.11186134 244.625 67.5 244.625 C67.44577881 245.24544189 67.39155762 245.86588379 67.33569336 246.50512695 C67.07032619 249.32033792 66.75459161 252.12766508 66.4375 254.9375 C66.35306641 255.91396484 66.26863281 256.89042969 66.18164062 257.89648438 C65.85069842 260.64803238 65.50358817 263.03916268 64.5 265.625 C61.00390625 267.41796875 61.00390625 267.41796875 57.5 268.625 C55.02559231 273.53090658 54.59636469 279.45649033 53.8203125 284.87890625 C53.07799377 289.34125409 52.18232879 291.90118001 48.5 294.625 C45.5 295.1875 45.5 295.1875 42.5 294.625 C39.148896 291.17473095 37.92280637 288.4868317 37.21069336 283.77075195 C37.02585388 282.60022781 36.8410144 281.42970367 36.65057373 280.22370911 C36.46553284 278.94976791 36.28049194 277.67582672 36.08984375 276.36328125 C35.88055214 275.00402099 35.66975952 273.64499113 35.45758057 272.28617859 C35.00479618 269.36856286 34.56147809 266.44972693 34.12557983 263.52954102 C33.43269417 258.89024989 32.71843636 254.25442168 31.99926758 249.61914062 C31.81730347 248.44582593 31.81730347 248.44582593 31.63166332 247.24880791 C31.38433406 245.65412277 31.13694777 244.05944648 30.88950539 242.4647789 C30.51297009 240.03363956 30.13844124 237.60219795 29.764328 235.17068481 C27.32333334 219.3310598 24.69900444 203.52383923 22.03968048 187.7196312 C21.45499532 184.24215347 20.87273374 180.7642704 20.29052734 177.28637695 C20.17770605 176.61243236 20.06488476 175.93848776 19.94864464 175.2441206 C19.7243843 173.9043912 19.50014031 172.56465906 19.27591324 171.22492409 C18.94948006 169.27489596 18.62279767 167.32490956 18.29611206 165.37492371 C16.52494846 154.7959034 14.7800152 144.2128546 13.0625 133.625 C12.88615021 132.5424292 12.88615021 132.5424292 12.70623779 131.43798828 C11.53397134 124.23742602 10.40282879 117.0330548 9.359375 109.8125 C9.09145142 107.98138672 9.09145142 107.98138672 8.81811523 106.11328125 C8.49483979 103.8829773 8.18092668 101.65128328 7.87915039 99.41796875 C6.9805271 92.51833193 6.9805271 92.51833193 3.5 86.625 C0 85.95833333 0 85.95833333 -3.5 86.625 C-6.14440707 88.67255114 -6.92399646 90.3061536 -7.44799805 93.56591797 C-7.58244324 94.36326859 -7.71688843 95.1606192 -7.85540771 95.98213196 C-8.05653168 97.28648445 -8.05653168 97.28648445 -8.26171875 98.6171875 C-8.41312317 99.53279953 -8.56452759 100.44841156 -8.72052002 101.39176941 C-9.04796471 103.38003593 -9.3698937 105.36921683 -9.6869812 107.35916138 C-10.36876159 111.63744662 -11.07646034 115.91132379 -11.7827301 120.18562317 C-12.14868895 122.4016999 -12.51328568 124.61800196 -12.87657166 126.83451843 C-14.47478059 136.56525576 -16.19479302 146.27157256 -17.94790649 155.97540283 C-21.31720913 174.63961309 -24.47363111 193.33506858 -27.56542969 212.04705811 C-30.98795492 232.74421595 -34.55394958 253.41459763 -38.31735229 274.05270386 C-38.93249736 277.42695483 -39.52705824 280.79734562 -40.05908203 284.18603516 C-40.21618652 285.17265137 -40.37329102 286.15926758 -40.53515625 287.17578125 C-40.65383057 287.98313721 -40.77250488 288.79049316 -40.89477539 289.62231445 C-41.63220645 292.06247056 -42.47553477 293.0916401 -44.5 294.625 C-47.9375 295.125 -47.9375 295.125 -51.5 294.625 C-56.06756746 290.43801881 -56.60469409 285.68970529 -57.54296875 279.8515625 C-57.712556 278.87684494 -57.88214325 277.90212738 -58.05686951 276.89787292 C-58.4222477 274.78888428 -58.78083095 272.67870955 -59.13336182 270.5675354 C-59.88748586 266.0527171 -60.67413461 261.54376146 -61.45965576 257.03431702 C-61.8665395 254.69827598 -62.27183552 252.36195788 -62.67559814 250.02537537 C-64.67926446 238.46730792 -66.8860181 226.95188502 -69.125 215.4375 C-71.32286682 204.10415919 -73.499006 192.76954555 -75.515625 181.40234375 C-75.67489471 180.50526199 -75.83416443 179.60818024 -75.9982605 178.68391418 C-76.74270275 174.47929568 -77.47942694 170.27349066 -78.20556641 166.06567383 C-80.08346022 154.1447814 -80.08346022 154.1447814 -83.5 142.625 C-86.29870027 141.22564987 -88.40498792 141.37234595 -91.5 141.625 C-94.7075925 143.95972448 -95.27280327 146.6482802 -96.18359375 150.40234375 C-96.47169922 151.55669922 -96.75980469 152.71105469 -97.05664062 153.90039062 C-97.49266602 155.71313477 -97.49266602 155.71313477 -97.9375 157.5625 C-99.638525 164.52332364 -101.36074898 171.46689361 -103.47265625 178.31640625 C-103.91170288 179.74448608 -103.91170288 179.74448608 -104.35961914 181.20141602 C-105.71991843 184.09237964 -106.76768554 184.99403254 -109.5 186.625 C-112.26989746 187.01940918 -112.26989746 187.01940918 -115.49023438 187.04492188 C-116.69828735 187.06083374 -117.90634033 187.07674561 -119.15100098 187.09313965 C-120.45210815 187.09334106 -121.75321533 187.09354248 -123.09375 187.09375 C-124.44608882 187.10085349 -125.79842463 187.10855277 -127.15075684 187.11682129 C-129.98193752 187.13025457 -132.81283937 187.1318398 -135.64404297 187.12597656 C-139.26938917 187.12007524 -142.89339853 187.15069206 -146.51848602 187.19109344 C-149.31011136 187.21695978 -152.10141405 187.21984908 -154.8931427 187.21620178 C-156.87850289 187.21871488 -158.86379485 187.24341704 -160.84899902 187.26843262 C-162.057052 187.2591272 -163.26510498 187.24982178 -164.50976562 187.24023438 C-165.57247681 187.24228882 -166.63518799 187.24434326 -167.73010254 187.24645996 C-170.5 186.625 -170.5 186.625 -172.8782959 184.28186035 C-174.5 181.625 -174.5 181.625 -174.4375 178.5 C-173.46342894 175.51284876 -172.9405293 174.50011026 -170.5 172.625 C-168.2232666 172.23300171 -168.2232666 172.23300171 -165.52539062 172.20849609 C-164.0086676 172.18364639 -164.0086676 172.18364639 -162.46130371 172.15829468 C-160.82530212 172.15341537 -160.82530212 172.15341537 -159.15625 172.1484375 C-157.47529236 172.12506821 -157.47529236 172.12506821 -155.76037598 172.10122681 C-152.17359124 172.05362153 -148.58700155 172.02591972 -145 172 C-141.4131365 171.96352179 -137.82638378 171.92289452 -134.23962402 171.87734985 C-132.00604712 171.8501116 -129.77238922 171.82876542 -127.53869629 171.81381226 C-126.52754761 171.80355011 -125.51639893 171.79328796 -124.47460938 171.78271484 C-123.5843103 171.77621918 -122.69401123 171.76972351 -121.7767334 171.76303101 C-119.3345638 171.71332016 -119.3345638 171.71332016 -116.5 170.625 C-115.46883888 167.8666053 -115.46883888 167.8666053 -114.75 164.3125 C-114.41256787 162.85911695 -114.07392666 161.40601433 -113.734375 159.953125 C-113.54423828 159.12361328 -113.35410156 158.29410156 -113.15820312 157.43945312 C-111.83876319 151.79757493 -110.40980044 146.18233841 -109 140.5625 C-108.69368652 139.3362793 -108.38737305 138.11005859 -108.07177734 136.84667969 C-106.26138989 129.61097299 -104.41289535 122.39029352 -102.4609375 115.19140625 C-101.72290632 112.45229054 -101.00013871 109.71097346 -100.2890625 106.96484375 C-98.39707819 99.66296679 -96.48778333 92.36652454 -94.375 85.125 C-94.08367187 84.1246875 -93.79234375 83.124375 -93.4921875 82.09375 C-92.47287864 79.55751694 -91.66903298 78.26394512 -89.5 76.625 C-85.95258485 76.09666157 -84.22260736 76.12318934 -81.25 78.1875 C-77.75146017 83.06046619 -77.10534996 89.30189117 -76.0546875 95.109375 C-75.92406418 95.82512192 -75.79344086 96.54086884 -75.65885925 97.27830505 C-75.37628831 98.8287644 -75.09528876 100.3795108 -74.81570435 101.93051147 C-74.20670658 105.30848599 -73.58988984 108.68502089 -72.97370911 112.06169128 C-72.64729053 113.85101668 -72.32127802 115.6404162 -71.99565125 117.42988586 C-69.88761667 129.00974379 -67.73000823 140.58041903 -65.56323242 152.14941406 C-63.9685589 160.67332773 -62.39014337 169.19928373 -60.86750793 177.73640442 C-60.15317591 181.73677133 -59.43029252 185.73557233 -58.70675659 189.73428345 C-58.36272573 191.64951328 -58.02292829 193.56550877 -57.68753052 195.48226929 C-57.22286579 198.13604189 -56.74387504 200.7868584 -56.26171875 203.4375 C-56.12762604 204.22598831 -55.99353333 205.01447662 -55.8553772 205.82685852 C-55.3113324 208.75511881 -54.81670866 211.16490028 -53.11254883 213.640625 C-51.30796457 214.93993663 -51.30796457 214.93993663 -47.9375 214.5625 C-44.47629614 214.03008656 -44.47629614 214.03008656 -43.33731079 211.81980896 C-42.53041503 209.70472569 -42.03236296 207.80080333 -41.66552734 205.57055664 C-41.53100662 204.77328156 -41.3964859 203.97600647 -41.25788879 203.15457153 C-41.11864487 202.29016449 -40.97940094 201.42575745 -40.8359375 200.53515625 C-40.68311813 199.62095917 -40.53029877 198.70676208 -40.37284851 197.76486206 C-40.04197618 195.78216344 -39.71395832 193.79898683 -39.38845825 191.81539917 C-38.50774851 186.45026722 -37.606111 181.08864107 -36.70703125 175.7265625 C-36.52295212 174.62539597 -36.33887299 173.52422943 -36.1492157 172.38969421 C-34.52021851 162.67208037 -32.7979222 152.97261375 -31.05108643 143.27560425 C-27.6895354 124.60902266 -24.52476655 105.9142275 -21.43457031 87.20092773 C-18.44610371 69.11604339 -15.32016028 51.05980864 -12.0625 33.02148438 C-11.90586884 32.15149811 -11.74923767 31.28151184 -11.58786011 30.38516235 C-11.28724504 28.71797707 -10.98484202 27.05111295 -10.68045044 25.38461304 C-9.65268947 19.69707024 -8.83806502 14.00239336 -8.20288086 8.25610352 C-6.91559167 3.43737633 -4.92967769 0.88029959 0 0 Z " fill="#FACA1B" transform="translate(256.5,108.375)"/>
<path d="M0 0 C3.9375 0.5625 3.9375 0.5625 5.9375 2.125 C7.72678325 6.48637791 7.22901922 10.29925005 6.1875 14.8125 C4.78891513 17.8893867 3.99303112 19.11961031 0.9375 20.5625 C-2.125 20.5 -2.125 20.5 -5.0625 19.5625 C-7.80898444 16.66055418 -8.49389382 14.58791104 -8.5 10.625 C-8.37531546 7.24854267 -8.0529221 5.54254604 -6.5625 2.4375 C-3.97072224 0.49366668 -3.11152634 0.18909829 0 0 Z " fill="#372170" transform="translate(326.0625,332.4375)"/>
</svg>
