<?xml version="1.0" encoding="UTF-8"?>
<svg version="1.1" xmlns="http://www.w3.org/2000/svg" width="1200" height="1200">
<path d="M0 0 C1.58990879 -0.00387756 3.17981408 -0.00950672 4.76971129 -0.0167096 C9.1190828 -0.03138157 13.46809147 -0.02134438 17.81745125 -0.0070976 C22.55665567 0.00398955 27.29581111 -0.00821736 32.03501171 -0.01740509 C40.33462705 -0.03029432 48.63413555 -0.02835834 56.93375111 -0.0166254 C69.27558039 0.000774 81.61732582 -0.0047484 93.95915946 -0.01479231 C116.0023758 -0.03197956 138.04554238 -0.02644648 160.08875768 -0.01143513 C179.37851363 0.00161651 198.66825233 0.00681264 217.95801258 0.00424671 C219.87729527 0.00400609 219.87729527 0.00400609 221.83535135 0.0037606 C227.02933308 0.00309702 232.22331481 0.00239461 237.41729653 0.00163526 C251.93592713 -0.00045777 266.45455765 -0.00122887 280.9731884 -0.00094795 C281.63429221 -0.00093557 282.29539602 -0.00092319 282.97653328 -0.00091044 C304.03733447 -0.00042116 325.09812949 0.0060016 346.15892792 0.01660919 C346.84186462 0.01695263 347.52480133 0.01729607 348.22843308 0.01764991 C359.31842888 0.02324833 370.4084245 0.02918266 381.49842011 0.03513897 C425.48337962 0.05874106 469.46830446 0.06493317 513.453269 0.05452633 C516.23300894 0.05387312 519.01274888 0.05322181 521.79248882 0.05257083 C522.47977382 0.05240979 523.16705883 0.05224876 523.87517065 0.05208284 C531.48683606 0.05030332 539.09850149 0.04858118 546.71016693 0.04692841 C547.39277444 0.04677904 548.07538194 0.04662967 548.77867453 0.04647578 C585.63856033 0.03847433 622.49844143 0.04461798 659.35832638 0.05562443 C663.25016664 0.05677223 667.14200691 0.05791541 671.03384717 0.05905125 C673.61559677 0.0598065 676.19734637 0.06057214 678.77909596 0.06134826 C698.05765683 0.0670074 717.33620904 0.06567609 736.61476994 0.06112003 C758.53395989 0.05601355 780.45311749 0.06185938 802.37229938 0.08201433 C814.6405765 0.09300485 826.90879001 0.09578994 839.17706907 0.0867258 C847.37086285 0.0815086 855.56460218 0.08719833 863.75838453 0.10177914 C868.42742749 0.10978747 873.09634186 0.11309792 877.76538415 0.10320658 C882.01707582 0.0943019 886.26852063 0.09931139 890.52018991 0.11518602 C892.04464347 0.11848689 893.56911841 0.11682993 895.0935577 0.10945753 C907.44942482 0.05414177 919.07448685 1.37108242 930.11757565 7.25057125 C930.79449459 7.60200191 931.47141354 7.95343258 932.16884518 8.31551266 C937.5506309 11.18140719 942.35525942 14.37841771 946.86757565 18.50057125 C947.6977319 19.25080563 948.52788815 20.00104 949.38320065 20.77400875 C962.54895915 33.2696538 971.51509119 50.26761157 972.3011694 68.6138525 C972.32484216 70.68012356 972.32570162 72.74676753 972.30507565 74.81307125 C972.29605221 75.90611568 972.28702877 76.99916012 972.2777319 78.12532711 C971.83419506 98.92381662 963.68394063 116.19806863 948.86757565 130.50057125 C948.1611694 131.237915 947.45476315 131.97525875 946.72695065 132.73494625 C942.37928704 137.01623332 937.6241689 139.96736867 932.24257565 142.75057125 C931.64034176 143.06800289 931.03810787 143.38543453 930.41762447 143.71248531 C918.28814297 149.63629423 905.94027278 151.09370287 892.63330746 151.00393581 C891.04454352 151.00811861 889.45578342 151.01405118 887.86703169 151.02155328 C883.5254913 151.03703448 879.18430988 151.02786044 874.84277578 151.01444147 C870.1102865 151.00425159 865.37785025 151.01735131 860.64536858 151.0274148 C852.35904141 151.04183556 844.07281855 151.04143933 835.78648663 151.03122616 C823.46431919 151.01608005 811.14223955 151.02383958 798.82007268 151.03605939 C776.81118866 151.05711331 754.8023511 151.05530038 732.79346266 151.04374374 C713.53307697 151.03368 694.2727083 151.03105542 675.01232052 151.03583431 C673.73454406 151.03613985 672.4567676 151.03644539 671.14027064 151.03676019 C665.95330965 151.03800555 660.76634867 151.03927916 655.57938769 151.04059925 C619.3825441 151.04970164 583.18570922 151.05131159 546.98886776 151.03634548 C545.96596085 151.03592399 545.96596085 151.03592399 544.92238916 151.03549398 C533.84875623 151.0309144 522.77512342 151.02603645 511.70149062 151.02113328 C467.78450524 151.00170853 423.86756863 151.00261013 379.95058346 151.02205563 C368.88248353 151.02694055 357.8143836 151.03178481 346.74628353 151.03634548 C345.72397365 151.03676817 345.72397365 151.03676817 344.68101104 151.0371994 C307.87243911 151.05231406 271.06387232 151.04897443 234.25529861 151.03960657 C229.07780934 151.03832371 223.90032006 151.03707235 218.72283077 151.03583431 C217.44800858 151.035518 216.17318639 151.03520169 214.85973322 151.0348758 C195.61184173 151.03032664 176.36396915 151.03564565 157.11608028 151.04575253 C135.22953714 151.05718765 113.34304771 151.05433428 91.45651126 151.03262955 C79.2086264 151.02088395 66.96085787 151.02011834 54.71297602 151.03521425 C46.53025693 151.04418713 38.34763106 151.03859547 30.16492577 151.02119517 C25.5038377 151.01168674 20.84298065 151.00841247 16.18189991 151.0228191 C11.93506495 151.03581132 7.68866436 151.03014991 3.4418606 151.01009646 C1.9214341 151.00609358 0.400971 151.00866381 -1.11942618 151.01892021 C-14.18146119 151.10072763 -26.59768134 149.00554774 -38.31992435 142.93807125 C-38.97863529 142.6021899 -39.63734623 142.26630856 -40.3160181 141.92024899 C-47.28845206 138.17138339 -52.66944938 133.15982078 -58.13242435 127.50057125 C-58.8697681 126.794165 -59.60711185 126.08775875 -60.36679935 125.35994625 C-66.80975851 118.81709626 -70.55613422 110.84868963 -74.13242435 102.50057125 C-74.5913306 101.43451656 -75.05023685 100.36846188 -75.52304935 99.2701025 C-80.92787076 83.95009816 -80.52567021 63.42418197 -74.13242435 48.50057125 C-73.86929447 47.86506344 -73.60616459 47.22955563 -73.33506107 46.57479 C-68.92985906 36.14390985 -63.24539493 28.33216712 -55.13242435 20.50057125 C-54.4260181 19.7632275 -53.71961185 19.02588375 -52.99179935 18.26619625 C-48.62463946 13.96571055 -43.85704023 11.03079882 -38.44492435 8.25057125 C-37.52900517 7.77442379 -37.52900517 7.77442379 -36.59458256 7.28865719 C-24.67911762 1.49910187 -13.07082247 -0.0904635 0 0 Z " fill="#000000" transform="translate(153.13242435455322,824.4994287490845)"/>
<path d="M0 0 C1.58990879 -0.00387756 3.17981408 -0.00950672 4.76971129 -0.0167096 C9.1190828 -0.03138157 13.46809147 -0.02134438 17.81745125 -0.0070976 C22.55665567 0.00398955 27.29581111 -0.00821736 32.03501171 -0.01740509 C40.33462705 -0.03029432 48.63413555 -0.02835834 56.93375111 -0.0166254 C69.27558039 0.000774 81.61732582 -0.0047484 93.95915946 -0.01479231 C116.0023758 -0.03197956 138.04554238 -0.02644648 160.08875768 -0.01143513 C179.37851363 0.00161651 198.66825233 0.00681264 217.95801258 0.00424671 C219.87729527 0.00400609 219.87729527 0.00400609 221.83535135 0.0037606 C227.02933308 0.00309702 232.22331481 0.00239461 237.41729653 0.00163526 C251.93592713 -0.00045777 266.45455765 -0.00122887 280.9731884 -0.00094795 C281.63429221 -0.00093557 282.29539602 -0.00092319 282.97653328 -0.00091044 C304.03733447 -0.00042116 325.09812949 0.0060016 346.15892792 0.01660919 C346.84186462 0.01695263 347.52480133 0.01729607 348.22843308 0.01764991 C359.31842888 0.02324833 370.4084245 0.02918266 381.49842011 0.03513897 C425.48337962 0.05874106 469.46830446 0.06493317 513.453269 0.05452633 C516.23300894 0.05387312 519.01274888 0.05322181 521.79248882 0.05257083 C522.47977382 0.05240979 523.16705883 0.05224876 523.87517065 0.05208284 C531.48683606 0.05030332 539.09850149 0.04858118 546.71016693 0.04692841 C547.39277444 0.04677904 548.07538194 0.04662967 548.77867453 0.04647578 C585.63856033 0.03847433 622.49844143 0.04461798 659.35832638 0.05562443 C663.25016664 0.05677223 667.14200691 0.05791541 671.03384717 0.05905125 C673.61559677 0.0598065 676.19734637 0.06057214 678.77909596 0.06134826 C698.05765683 0.0670074 717.33620904 0.06567609 736.61476994 0.06112003 C758.53395989 0.05601355 780.45311749 0.06185938 802.37229938 0.08201433 C814.6405765 0.09300485 826.90879001 0.09578994 839.17706907 0.0867258 C847.37086285 0.0815086 855.56460218 0.08719833 863.75838453 0.10177914 C868.42742749 0.10978747 873.09634186 0.11309792 877.76538415 0.10320658 C882.01707582 0.0943019 886.26852063 0.09931139 890.52018991 0.11518602 C892.04464347 0.11848689 893.56911841 0.11682993 895.0935577 0.10945753 C907.44942482 0.05414177 919.07448685 1.37108242 930.11757565 7.25057125 C930.79449459 7.60200191 931.47141354 7.95343258 932.16884518 8.31551266 C937.5506309 11.18140719 942.35525942 14.37841771 946.86757565 18.50057125 C947.6977319 19.25080563 948.52788815 20.00104 949.38320065 20.77400875 C962.54895915 33.2696538 971.51509119 50.26761157 972.3011694 68.6138525 C972.32484216 70.68012356 972.32570162 72.74676753 972.30507565 74.81307125 C972.29605221 75.90611568 972.28702877 76.99916012 972.2777319 78.12532711 C971.83419506 98.92381662 963.68394063 116.19806863 948.86757565 130.50057125 C948.1611694 131.237915 947.45476315 131.97525875 946.72695065 132.73494625 C942.37928704 137.01623332 937.6241689 139.96736867 932.24257565 142.75057125 C931.64034176 143.06800289 931.03810787 143.38543453 930.41762447 143.71248531 C918.28814297 149.63629423 905.94027278 151.09370287 892.63330746 151.00393581 C891.04454352 151.00811861 889.45578342 151.01405118 887.86703169 151.02155328 C883.5254913 151.03703448 879.18430988 151.02786044 874.84277578 151.01444147 C870.1102865 151.00425159 865.37785025 151.01735131 860.64536858 151.0274148 C852.35904141 151.04183556 844.07281855 151.04143933 835.78648663 151.03122616 C823.46431919 151.01608005 811.14223955 151.02383958 798.82007268 151.03605939 C776.81118866 151.05711331 754.8023511 151.05530038 732.79346266 151.04374374 C713.53307697 151.03368 694.2727083 151.03105542 675.01232052 151.03583431 C673.73454406 151.03613985 672.4567676 151.03644539 671.14027064 151.03676019 C665.95330965 151.03800555 660.76634867 151.03927916 655.57938769 151.04059925 C619.3825441 151.04970164 583.18570922 151.05131159 546.98886776 151.03634548 C545.96596085 151.03592399 545.96596085 151.03592399 544.92238916 151.03549398 C533.84875623 151.0309144 522.77512342 151.02603645 511.70149062 151.02113328 C467.78450524 151.00170853 423.86756863 151.00261013 379.95058346 151.02205563 C368.88248353 151.02694055 357.8143836 151.03178481 346.74628353 151.03634548 C345.72397365 151.03676817 345.72397365 151.03676817 344.68101104 151.0371994 C307.87243911 151.05231406 271.06387232 151.04897443 234.25529861 151.03960657 C229.07780934 151.03832371 223.90032006 151.03707235 218.72283077 151.03583431 C217.44800858 151.035518 216.17318639 151.03520169 214.85973322 151.0348758 C195.61184173 151.03032664 176.36396915 151.03564565 157.11608028 151.04575253 C135.22953714 151.05718765 113.34304771 151.05433428 91.45651126 151.03262955 C79.2086264 151.02088395 66.96085787 151.02011834 54.71297602 151.03521425 C46.53025693 151.04418713 38.34763106 151.03859547 30.16492577 151.02119517 C25.5038377 151.01168674 20.84298065 151.00841247 16.18189991 151.0228191 C11.93506495 151.03581132 7.68866436 151.03014991 3.4418606 151.01009646 C1.9214341 151.00609358 0.400971 151.00866381 -1.11942618 151.01892021 C-14.18146119 151.10072763 -26.59768134 149.00554774 -38.31992435 142.93807125 C-38.97863529 142.6021899 -39.63734623 142.26630856 -40.3160181 141.92024899 C-47.28845206 138.17138339 -52.66944938 133.15982078 -58.13242435 127.50057125 C-58.8697681 126.794165 -59.60711185 126.08775875 -60.36679935 125.35994625 C-66.80975851 118.81709626 -70.55613422 110.84868963 -74.13242435 102.50057125 C-74.5913306 101.43451656 -75.05023685 100.36846188 -75.52304935 99.2701025 C-80.92787076 83.95009816 -80.52567021 63.42418197 -74.13242435 48.50057125 C-73.86929447 47.86506344 -73.60616459 47.22955563 -73.33506107 46.57479 C-68.92985906 36.14390985 -63.24539493 28.33216712 -55.13242435 20.50057125 C-54.4260181 19.7632275 -53.71961185 19.02588375 -52.99179935 18.26619625 C-48.62463946 13.96571055 -43.85704023 11.03079882 -38.44492435 8.25057125 C-37.52900517 7.77442379 -37.52900517 7.77442379 -36.59458256 7.28865719 C-24.67911762 1.49910187 -13.07082247 -0.0904635 0 0 Z " fill="#000000" transform="translate(153.13242435455322,524.4994287490845)"/>
<path d="M0 0 C1.58990879 -0.00387756 3.17981408 -0.00950672 4.76971129 -0.0167096 C9.1190828 -0.03138157 13.46809147 -0.02134438 17.81745125 -0.0070976 C22.55665567 0.00398955 27.29581111 -0.00821736 32.03501171 -0.01740509 C40.33462705 -0.03029432 48.63413555 -0.02835834 56.93375111 -0.0166254 C69.27558039 0.000774 81.61732582 -0.0047484 93.95915946 -0.01479231 C116.0023758 -0.03197956 138.04554238 -0.02644648 160.08875768 -0.01143513 C179.37851363 0.00161651 198.66825233 0.00681264 217.95801258 0.00424671 C219.87729527 0.00400609 219.87729527 0.00400609 221.83535135 0.0037606 C227.02933308 0.00309702 232.22331481 0.00239461 237.41729653 0.00163526 C251.93592713 -0.00045777 266.45455765 -0.00122887 280.9731884 -0.00094795 C281.63429221 -0.00093557 282.29539602 -0.00092319 282.97653328 -0.00091044 C304.03733447 -0.00042116 325.09812949 0.0060016 346.15892792 0.01660919 C346.84186462 0.01695263 347.52480133 0.01729607 348.22843308 0.01764991 C359.31842888 0.02324833 370.4084245 0.02918266 381.49842011 0.03513897 C425.48337962 0.05874106 469.46830446 0.06493317 513.453269 0.05452633 C516.23300894 0.05387312 519.01274888 0.05322181 521.79248882 0.05257083 C522.47977382 0.05240979 523.16705883 0.05224876 523.87517065 0.05208284 C531.48683606 0.05030332 539.09850149 0.04858118 546.71016693 0.04692841 C547.39277444 0.04677904 548.07538194 0.04662967 548.77867453 0.04647578 C585.63856033 0.03847433 622.49844143 0.04461798 659.35832638 0.05562443 C663.25016664 0.05677223 667.14200691 0.05791541 671.03384717 0.05905125 C673.61559677 0.0598065 676.19734637 0.06057214 678.77909596 0.06134826 C698.05765683 0.0670074 717.33620904 0.06567609 736.61476994 0.06112003 C758.53395989 0.05601355 780.45311749 0.06185938 802.37229938 0.08201433 C814.6405765 0.09300485 826.90879001 0.09578994 839.17706907 0.0867258 C847.37086285 0.0815086 855.56460218 0.08719833 863.75838453 0.10177914 C868.42742749 0.10978747 873.09634186 0.11309792 877.76538415 0.10320658 C882.01707582 0.0943019 886.26852063 0.09931139 890.52018991 0.11518602 C892.04464347 0.11848689 893.56911841 0.11682993 895.0935577 0.10945753 C907.44942482 0.05414177 919.07448685 1.37108242 930.11757565 7.25057125 C930.79449459 7.60200191 931.47141354 7.95343258 932.16884518 8.31551266 C937.5506309 11.18140719 942.35525942 14.37841771 946.86757565 18.50057125 C947.6977319 19.25080563 948.52788815 20.00104 949.38320065 20.77400875 C962.54895915 33.2696538 971.51509119 50.26761157 972.3011694 68.6138525 C972.32484216 70.68012356 972.32570162 72.74676753 972.30507565 74.81307125 C972.29605221 75.90611568 972.28702877 76.99916012 972.2777319 78.12532711 C971.83419506 98.92381662 963.68394063 116.19806863 948.86757565 130.50057125 C948.1611694 131.237915 947.45476315 131.97525875 946.72695065 132.73494625 C942.37928704 137.01623332 937.6241689 139.96736867 932.24257565 142.75057125 C931.64034176 143.06800289 931.03810787 143.38543453 930.41762447 143.71248531 C918.28814297 149.63629423 905.94027278 151.09370287 892.63330746 151.00393581 C891.04454352 151.00811861 889.45578342 151.01405118 887.86703169 151.02155328 C883.5254913 151.03703448 879.18430988 151.02786044 874.84277578 151.01444147 C870.1102865 151.00425159 865.37785025 151.01735131 860.64536858 151.0274148 C852.35904141 151.04183556 844.07281855 151.04143933 835.78648663 151.03122616 C823.46431919 151.01608005 811.14223955 151.02383958 798.82007268 151.03605939 C776.81118866 151.05711331 754.8023511 151.05530038 732.79346266 151.04374374 C713.53307697 151.03368 694.2727083 151.03105542 675.01232052 151.03583431 C673.73454406 151.03613985 672.4567676 151.03644539 671.14027064 151.03676019 C665.95330965 151.03800555 660.76634867 151.03927916 655.57938769 151.04059925 C619.3825441 151.04970164 583.18570922 151.05131159 546.98886776 151.03634548 C545.96596085 151.03592399 545.96596085 151.03592399 544.92238916 151.03549398 C533.84875623 151.0309144 522.77512342 151.02603645 511.70149062 151.02113328 C467.78450524 151.00170853 423.86756863 151.00261013 379.95058346 151.02205563 C368.88248353 151.02694055 357.8143836 151.03178481 346.74628353 151.03634548 C345.72397365 151.03676817 345.72397365 151.03676817 344.68101104 151.0371994 C307.87243911 151.05231406 271.06387232 151.04897443 234.25529861 151.03960657 C229.07780934 151.03832371 223.90032006 151.03707235 218.72283077 151.03583431 C217.44800858 151.035518 216.17318639 151.03520169 214.85973322 151.0348758 C195.61184173 151.03032664 176.36396915 151.03564565 157.11608028 151.04575253 C135.22953714 151.05718765 113.34304771 151.05433428 91.45651126 151.03262955 C79.2086264 151.02088395 66.96085787 151.02011834 54.71297602 151.03521425 C46.53025693 151.04418713 38.34763106 151.03859547 30.16492577 151.02119517 C25.5038377 151.01168674 20.84298065 151.00841247 16.18189991 151.0228191 C11.93506495 151.03581132 7.68866436 151.03014991 3.4418606 151.01009646 C1.9214341 151.00609358 0.400971 151.00866381 -1.11942618 151.01892021 C-14.18146119 151.10072763 -26.59768134 149.00554774 -38.31992435 142.93807125 C-38.97863529 142.6021899 -39.63734623 142.26630856 -40.3160181 141.92024899 C-47.28845206 138.17138339 -52.66944938 133.15982078 -58.13242435 127.50057125 C-58.8697681 126.794165 -59.60711185 126.08775875 -60.36679935 125.35994625 C-66.80975851 118.81709626 -70.55613422 110.84868963 -74.13242435 102.50057125 C-74.5913306 101.43451656 -75.05023685 100.36846188 -75.52304935 99.2701025 C-80.92787076 83.95009816 -80.52567021 63.42418197 -74.13242435 48.50057125 C-73.86929447 47.86506344 -73.60616459 47.22955563 -73.33506107 46.57479 C-68.92985906 36.14390985 -63.24539493 28.33216712 -55.13242435 20.50057125 C-54.4260181 19.7632275 -53.71961185 19.02588375 -52.99179935 18.26619625 C-48.62463946 13.96571055 -43.85704023 11.03079882 -38.44492435 8.25057125 C-37.52900517 7.77442379 -37.52900517 7.77442379 -36.59458256 7.28865719 C-24.67911762 1.49910187 -13.07082247 -0.0904635 0 0 Z " fill="#000000" transform="translate(153.13242435455322,224.49942874908447)"/>
</svg>
