<?xml version="1.0" encoding="UTF-8"?>
<svg version="1.1" xmlns="http://www.w3.org/2000/svg" width="1199" height="1025">
<path d="M0 0 C9.67509653 -0.09277792 19.35003937 -0.16380435 29.02548409 -0.20724869 C33.51845159 -0.22810237 38.0111142 -0.25637917 42.50390625 -0.30175781 C46.84166323 -0.34529518 51.17912738 -0.3691538 55.51708603 -0.37950897 C57.17007938 -0.38688623 58.82305713 -0.40129247 60.47592545 -0.42292023 C62.79566021 -0.4520602 65.11419299 -0.45595174 67.43408203 -0.45410156 C68.75312531 -0.46298401 70.07216858 -0.47186646 71.43118286 -0.48101807 C76.75153928 0.23607879 79.77750378 2.64534203 83.3125 6.5625 C86.21020668 10.74807632 86.12209516 14.06271265 86.11352539 19.04174805 C86.11364593 19.76569921 86.11376646 20.48965036 86.11389065 21.23553944 C86.1131446 23.57763052 86.10553038 25.91964191 86.09765625 28.26171875 C86.09618588 29.70821087 86.09516575 31.15470353 86.09460449 32.60119629 C86.08936266 37.96330564 86.07540146 43.3254036 86.0625 48.6875 C86.041875 60.670625 86.02125 72.65375 86 85 C125.6 85 165.2 85 206 85 C206.061875 106.965625 206.061875 106.965625 206.125 129.375 C206.14320801 133.98259277 206.16141602 138.59018555 206.18017578 143.33740234 C206.18920898 149.00512695 206.18920898 149.00512695 206.19088745 151.66641235 C206.19393952 153.50764943 206.20093366 155.34888274 206.21115112 157.19009399 C206.22592275 159.99447473 206.22780759 162.79861318 206.22705078 165.60302734 C206.234247 166.41019888 206.24144321 167.21737041 206.2488575 168.04900169 C206.21070522 178.70483667 204.23208695 188.65529213 196.875 196.6875 C189.71899013 203.42710412 181.47112876 206.09948308 171.80786133 206.15771484 C169.96488213 206.17310806 169.96488213 206.17310806 168.08467102 206.18881226 C167.10704017 206.19396914 167.10704017 206.19396914 166.10965919 206.19923019 C164.05231558 206.21110908 161.99517353 206.23058601 159.93791199 206.25234985 C154.09075766 206.31364994 148.2436252 206.36783786 142.39624023 206.40136719 C138.81114713 206.42246993 135.22642528 206.45789577 131.64154625 206.50212479 C129.63113218 206.52292938 127.62057717 206.52830521 125.61006165 206.53329468 C114.76791457 206.6776326 105.2632675 207.93920882 97.1875 215.75390625 C89.32432424 224.12491211 87.91534394 232.78761018 87.82299805 244.10595703 C87.81314125 245.11492287 87.81314125 245.11492287 87.80308533 246.14427185 C87.78353504 248.34878695 87.77172935 250.55323445 87.76171875 252.7578125 C87.75764322 253.51847897 87.7535677 254.27914543 87.74936867 255.0628624 C87.72858297 259.09138457 87.71425054 263.11987348 87.70483398 267.1484375 C87.69380059 271.27361204 87.65941496 275.39824263 87.61966228 279.52322578 C87.59330842 282.72690722 87.58512557 285.93046276 87.58155251 289.13424301 C87.57673285 290.65305112 87.56525388 292.17185542 87.54651451 293.69055557 C87.35991997 309.8180463 90.94465966 323.52457454 102 335.6875 C111.64829356 344.89500858 124.35179912 349.3162337 137.52050781 349.27124023 C138.33145401 349.27646698 139.14240021 349.28169373 139.97792053 349.28707886 C141.72549779 349.29725848 143.47310485 349.30308863 145.22071075 349.30496025 C147.99719589 349.30865235 150.77333281 349.32545739 153.54974365 349.34571838 C161.43918343 349.40085019 169.32867378 349.43172621 177.21826172 349.45629883 C182.05813713 349.47227488 186.89776461 349.50259749 191.73751068 349.54106331 C193.56968278 349.55262467 195.4018994 349.55864287 197.23410797 349.55874443 C214.23412478 349.56002825 230.30628577 351.30628577 243 364 C250.43713192 372.96530971 256.13154926 382.61017672 256.12025452 394.49224854 C256.12231651 396.16649902 256.12231651 396.16649902 256.12442017 397.87457275 C256.12082489 399.09448914 256.11722961 400.31440552 256.11352539 401.57128906 C256.11367142 402.85934448 256.11381744 404.1473999 256.1139679 405.4744873 C256.11425477 409.00307749 256.10837583 412.53163367 256.10139394 416.06021595 C256.09514207 419.74910624 256.09455515 423.43799732 256.09336853 427.12689209 C256.09026063 434.11079515 256.08205451 441.09468255 256.07201904 448.07857871 C256.06084113 456.03015042 256.05534322 463.98172288 256.05032361 471.9333005 C256.03987146 488.28887616 256.02228247 504.64443608 256 521 C239.77891066 521.07027549 223.55787118 521.12307856 207.33666611 521.15543652 C199.80381919 521.17086439 192.27106721 521.19187522 184.73828125 521.22631836 C178.1679249 521.25634637 171.59763736 521.2756046 165.02721429 521.28226548 C161.55253846 521.28615521 158.07805935 521.29520992 154.60344696 521.31719017 C150.71183254 521.34160559 146.8204055 521.34196146 142.92871094 521.34057617 C141.79366119 521.351362 140.65861145 521.36214783 139.48916626 521.3732605 C123.56185403 521.31225429 110.78642838 516.32572314 99.21875 505.34375 C89.78501222 495.37853403 84.86199842 482.81540632 84.84228516 469.18725586 C84.83720444 468.41576202 84.83212372 467.64426819 84.82688904 466.84939575 C84.81621606 465.17869628 84.80758392 463.50798278 84.80076981 461.83726311 C84.78891991 459.18290292 84.7694489 456.52870102 84.74765015 453.87440491 C84.68625867 446.32884077 84.63216009 438.78329237 84.59863281 431.23754883 C84.57754651 426.61507312 84.54212973 421.99288621 84.49787521 417.37057686 C84.48382135 415.61935414 84.47501708 413.86808032 84.47182083 412.11680412 C84.43906095 395.87768539 82.08838308 382.531312 72.8125 368.75 C61.07090947 357.2693337 48.27698178 351.89436144 32.0690918 351.79467773 C31.07349747 351.78477814 30.07790314 351.77487854 29.05213928 351.76467896 C25.76785647 351.73314157 22.48355919 351.70833717 19.19921875 351.68359375 C16.91949593 351.66301753 14.63977688 351.64202088 12.36006165 351.62062073 C6.36452277 351.56546913 0.36894986 351.51602935 -5.62664795 351.46777344 C-11.7465721 351.41750795 -17.86644692 351.36184824 -23.98632812 351.30664062 C-35.99084326 351.19914358 -47.99540125 351.09767983 -60 351 C-60.04683525 336.43935348 -60.08204511 321.87871701 -60.10362434 307.31801033 C-60.11391273 300.55638223 -60.12792613 293.79480108 -60.15087891 287.03320312 C-60.17303241 280.50391696 -60.18458011 273.97466118 -60.18975449 267.4453392 C-60.1934405 264.95836496 -60.2006383 262.47139328 -60.21146011 259.98443985 C-60.22604694 256.49233559 -60.22797492 253.00043076 -60.22705078 249.50830078 C-60.23424133 248.48762009 -60.24143188 247.46693939 -60.24884033 246.41532898 C-60.21306794 233.86531273 -57.79592267 223.34904077 -49.19921875 213.89453125 C-41.32466391 207.11094493 -32.61973057 204.85150677 -22.53466797 204.8581543 C-21.25578453 204.85294266 -21.25578453 204.85294266 -19.95106506 204.84762573 C-18.10081508 204.8402798 -16.25055634 204.83492823 -14.40029526 204.83133507 C-11.46512523 204.82415253 -8.53012072 204.80847099 -5.59500122 204.78999329 C2.75011886 204.73761885 11.0951489 204.68959085 19.44042969 204.67407227 C24.54807452 204.66395249 29.65530315 204.63452493 34.76278305 204.59275246 C36.70266436 204.58049233 38.64260459 204.57531202 40.58252335 204.57755089 C53.33917904 204.5886473 63.79604347 204.1176293 74.1796875 195.8359375 C81.68034281 188.27089888 84.29222621 179.20935677 84.31884766 168.87353516 C84.32889328 167.97533051 84.3389389 167.07712585 84.34928894 166.15170288 C84.38005733 163.19749563 84.39713847 160.24337876 84.4140625 157.2890625 C84.43277924 155.23496731 84.45235303 153.18087976 84.4727478 151.12680054 C84.52402144 145.73134881 84.56367275 140.33587217 84.60089111 134.94030762 C84.6409606 129.43019471 84.69203953 123.92018502 84.7421875 118.41015625 C84.83889036 107.60684339 84.92331325 96.80347219 85 86 C84.07149734 86.00666183 83.14299469 86.01332367 82.18635559 86.02018738 C73.43183486 86.08032336 64.67738361 86.12598711 55.92270374 86.15543652 C51.42193089 86.17108579 46.92132885 86.19231054 42.4206543 86.22631836 C38.07643138 86.25893821 33.73237267 86.27685857 29.38803673 86.28463173 C27.73144636 86.29017053 26.07486488 86.30098652 24.4183445 86.31719017 C22.09616368 86.3389997 19.7746595 86.34196551 17.45239258 86.34057617 C16.76906357 86.351362 16.08573456 86.36214783 15.38169861 86.3732605 C9.81708099 86.33728748 6.81959253 84.61741558 2.75 81 C-0.51559894 77.26788693 -0.13760996 73.37125581 -0.11352539 68.68286133 C-0.11367142 67.94115189 -0.11381744 67.19944244 -0.1139679 66.43525696 C-0.11327134 63.98415195 -0.10549097 61.53312298 -0.09765625 59.08203125 C-0.09579116 57.38238059 -0.09436768 55.68272939 -0.09336853 53.983078 C-0.08955055 49.50980139 -0.07972638 45.03655724 -0.06866455 40.56329346 C-0.05843499 35.99858031 -0.0538676 31.43386193 -0.04882812 26.86914062 C-0.03810349 17.91274615 -0.02103567 8.95637578 0 0 Z " fill="#006CAF" transform="translate(364,76)"/>
<path d="M0 0 C12.6048424 -0.09287235 25.20960277 -0.16385257 37.81471825 -0.20724869 C43.66843162 -0.2280816 49.52191008 -0.25632095 55.37548828 -0.30175781 C61.02947916 -0.34536845 66.68324474 -0.3691694 72.3373909 -0.37950897 C74.48946298 -0.38687303 76.64152339 -0.40125313 78.79349899 -0.42292023 C81.8188166 -0.45215619 84.84321515 -0.45594754 87.86865234 -0.45410156 C89.18928177 -0.47567322 89.18928177 -0.47567322 90.53659058 -0.49768066 C97.96124355 -0.44898213 104.48479444 1.52024019 110.5859375 5.82421875 C111.17632813 6.43910156 111.76671875 7.05398437 112.375 7.6875 C113.28378906 8.59048828 113.28378906 8.59048828 114.2109375 9.51171875 C120.02315687 17.59552604 120.57842388 25.05820813 120.5390625 34.8359375 C120.55708643 36.84595217 120.57512015 38.85596681 120.59370995 40.86597633 C120.61485389 43.66202058 120.61833844 46.45797568 120.62164307 49.25408936 C120.62937421 54.13862451 120.65665999 59.02300794 120.69662476 63.90737915 C120.71606943 66.49958656 120.72561005 69.09189407 120.72354126 71.68417358 C120.79747012 84.34098779 121.89151629 95.09223703 130.6328125 104.81640625 C138.62978812 112.23685572 147.84989023 114.15430717 158.45532227 114.12597656 C159.71497551 114.12877876 159.71497551 114.12877876 161.00007629 114.13163757 C162.81975054 114.13563291 164.63942977 114.13771561 166.45910835 114.13809967 C170.34218502 114.1415316 174.22509672 114.16291912 178.1081152 114.18333054 C185.32934161 114.22123792 192.5503911 114.25262254 199.77172852 114.25048828 C204.80279036 114.24969703 209.83324585 114.27324126 214.86414909 114.3123703 C216.77167974 114.32276999 218.67928089 114.32439924 220.58682442 114.31671906 C234.22048976 114.26732305 245.9283045 115.17480783 256.31640625 125.109375 C264.32338879 134.10097488 266.15292964 144.08363155 266.14526367 155.88793945 C266.15030159 157.02117645 266.15030159 157.02117645 266.15544128 158.17730713 C266.16488068 160.65598225 266.16689087 163.13458931 266.16796875 165.61328125 C266.17118628 167.35052009 266.17455072 169.08775866 266.17805481 170.82499695 C266.18402861 174.46040474 266.18589652 178.09578882 266.18530273 181.73120117 C266.18520123 186.36766691 266.19884913 191.00397911 266.21607494 195.64040852 C266.22724577 199.22741888 266.22922038 202.81439272 266.22869301 206.40141869 C266.22986564 208.10967729 266.23424669 209.81793706 266.24202538 211.52617836 C266.30683318 227.22826219 265.46954914 239.87988834 254.421875 251.8828125 C246.61527528 258.70729161 238.02195558 261.14884943 227.93359375 261.1418457 C227.12323166 261.14532013 226.31286957 261.14879456 225.47795105 261.15237427 C223.71937748 261.15971919 221.96079471 261.1650713 220.20220947 261.16866493 C217.4093077 261.17585382 214.61657924 261.19154122 211.82373047 261.21000671 C203.88300035 261.26234263 195.9423635 261.31037735 188.00146484 261.32592773 C183.14018863 261.33607009 178.27934707 261.36555611 173.41824341 261.40724754 C171.57491358 261.41947839 169.73152212 261.42469343 167.88815308 261.42244911 C154.92818554 261.41055956 142.92555969 261.59683818 133 271 C132.34 271 131.68 271 131 271 C130.62875 271.804375 130.62875 271.804375 130.25 272.625 C129 275 129 275 127.0625 277.5625 C121.94551873 285.18170009 121.55497738 294.64736351 121.56762695 303.5300293 C121.5574353 304.62403549 121.54724365 305.71804169 121.53674316 306.84519958 C121.50681486 310.42159277 121.49737802 313.99771723 121.48828125 317.57421875 C121.47141964 320.06957373 121.45326742 322.56492029 121.43388367 325.06025696 C121.38653877 331.59822967 121.35662907 338.13616824 121.33044434 344.67425537 C121.30214988 351.35777805 121.25405703 358.04118335 121.20898438 364.72460938 C121.12312773 377.81634219 121.0551389 390.90810359 121 404 C121.88425659 403.99333817 122.76851318 403.98667633 123.67956543 403.97981262 C132.03581404 403.91956089 140.39198908 403.87395428 148.74840546 403.84456348 C153.04395355 403.82894512 157.3393213 403.80777734 161.63476562 403.77368164 C165.7844875 403.74095087 169.93403651 403.72311821 174.08387756 403.71536827 C175.6626304 403.70984928 177.24137438 403.69907223 178.8200531 403.68280983 C197.10870787 403.50200224 197.10870787 403.50200224 202.53674316 408.38142395 C207.1221781 413.4753027 207.12480067 417.61720431 207.11352539 424.24707031 C207.11367142 424.96941864 207.11381744 425.69176697 207.1139679 426.43600464 C207.11327284 428.81674228 207.1054995 431.19740108 207.09765625 433.578125 C207.09579063 435.23150591 207.0943674 436.88488738 207.09336853 438.53826904 C207.08955473 442.88494397 207.07973415 447.23158537 207.06866455 451.57824707 C207.05842599 456.01570177 207.05386567 460.45316189 207.04882812 464.890625 C207.03811086 473.59376537 207.02104809 482.29687851 207 491 C197.35948189 491.11611466 187.7192064 491.20482664 178.07814026 491.25906086 C173.6008322 491.28509753 169.12400437 491.32038604 164.64697266 491.37719727 C160.32215693 491.43173028 155.99780161 491.4614651 151.67266846 491.47438622 C150.02688352 491.4835881 148.38112232 491.50155741 146.73553467 491.52865028 C130.64311737 491.78293392 130.64311737 491.78293392 125.44110107 487.56193542 C118.47225539 480.00876158 119.47819136 470.93732131 119.609375 461.25 C119.6168456 459.62476297 119.62253466 457.99951687 119.62652588 456.37426758 C119.64171795 452.11947274 119.68094308 447.86523366 119.7253418 443.61065674 C119.76643424 439.26004553 119.78456657 434.90934355 119.8046875 430.55859375 C119.84744466 422.03880891 119.91561657 413.51947381 120 405 C119.38984826 405.00368717 118.77969652 405.00737434 118.15105534 405.01117325 C103.27680727 405.09966727 88.40258475 405.16577897 73.52813816 405.20724869 C66.33482446 405.22783832 59.14168693 405.25588952 51.94848633 405.30175781 C45.67590665 405.34173645 39.40345462 405.36745896 33.13075107 405.37635398 C29.81201292 405.38155027 26.49372309 405.39581324 23.17508125 405.42292023 C19.46228686 405.45203548 15.75024405 405.45595242 12.03735352 405.45410156 C10.94762238 405.46848267 9.85789124 405.48286377 8.73513794 405.49768066 C-1.25657485 405.44392605 -9.82398115 402.10048181 -17 395 C-22.86843869 387.01059566 -25.30121548 379.75551902 -25.29052734 369.94042969 C-25.29724457 369.04853439 -25.30396179 368.1566391 -25.31088257 367.23771667 C-25.32982717 364.29904556 -25.33378521 361.36060333 -25.3359375 358.421875 C-25.34236866 356.36932279 -25.34909726 354.3167715 -25.35610962 352.26422119 C-25.36807411 347.96372351 -25.37179137 343.66330611 -25.37060547 339.36279297 C-25.37040251 333.87082268 -25.39768482 328.37937117 -25.43214989 322.88752365 C-25.45446548 318.64768136 -25.45844155 314.40796292 -25.45738602 310.16806793 C-25.45973572 308.14440374 -25.46852342 306.12073581 -25.48405075 304.09712982 C-25.62510209 283.81296236 -25.62510209 283.81296236 -21 276 C-20.62201263 275.33466248 -20.24402527 274.66932495 -19.85458374 273.98382568 C-15.55659698 266.83280745 -8.17560117 262.92375117 -0.37940979 260.64456177 C6.46394963 259.33931377 13.44390981 259.5961248 20.38871574 259.61987495 C23.32898918 259.62906772 26.26863602 259.61866879 29.20887756 259.60325623 C37.56168776 259.56338115 45.91444433 259.56195053 54.26733398 259.56420898 C59.39481884 259.56426031 64.52196352 259.54498276 69.64935493 259.51487541 C72.52923968 259.50413233 75.40845247 259.5161299 78.28831482 259.52870178 C91.03177691 259.5027099 101.43853074 258.49162112 111.0546875 249.2890625 C117.3155993 241.92180485 119.14380928 234.33828921 119.17700195 224.91772461 C119.18685875 223.69977203 119.18685875 223.69977203 119.19691467 222.45721436 C119.21660893 219.77225645 119.22830431 217.08735451 119.23828125 214.40234375 C119.24235678 213.4819739 119.2464323 212.56160404 119.25063133 211.61334419 C119.27147988 206.73775585 119.28578444 201.86219551 119.29516602 196.98657227 C119.30620196 191.97220258 119.34057276 186.95828013 119.38033772 181.94406796 C119.40659981 178.07049282 119.41486654 174.19702248 119.41844749 170.32336617 C119.42329207 168.47635454 119.43484465 166.62934693 119.45348549 164.78242302 C119.58108043 151.29759375 118.93849065 139.32970991 109.09765625 129.00390625 C98.02002693 118.39352315 86.35124926 117.87388578 71.7265625 117.82421875 C69.77300792 117.80695837 67.81945322 117.78967408 65.86591148 117.77101612 C61.07795281 117.72570479 56.29011486 117.68770364 51.50195312 117.67407227 C48.80727981 117.66590283 46.11306626 117.64724358 43.41854858 117.61714172 C40.89102404 117.58917697 38.36327797 117.57605478 35.83560181 117.58000183 C25.1649625 117.4280361 16.81390287 114.40177719 9 107 C-0.93694063 95.28699984 -0.415664 82.32185415 -0.29296875 67.7734375 C-0.28736534 65.81475145 -0.28309877 63.85606116 -0.28010559 61.89736938 C-0.26871547 56.77142489 -0.23929913 51.64574016 -0.20599365 46.51989746 C-0.17516632 41.27762362 -0.16157332 36.03530733 -0.14648438 30.79296875 C-0.11442332 20.52853244 -0.06329837 10.26428792 0 0 Z " fill="#00ADE6" transform="translate(632,8)"/>
<path d="M0 0 C16.83 0 33.66 0 51 0 C59.02756899 26.37629812 59.02756899 26.37629812 62.48046875 38.5703125 C62.86422408 39.91883555 63.24820776 41.26729364 63.63240051 42.61569214 C64.62053537 46.08528455 65.60647687 49.55549525 66.59161377 53.02593994 C68.17669474 58.60952282 69.76404315 64.19245772 71.35378456 69.77471542 C71.89774091 71.68671203 72.43989504 73.59922107 72.98197937 75.51174927 C75.21904466 83.37407196 77.5639447 91.19704132 80 99 C80.32128876 97.86296127 80.64257751 96.72592255 80.97360229 95.5544281 C84.00439987 84.82850674 87.0353043 74.10261557 90.06631279 63.37675381 C91.624503 57.86275661 93.18265582 52.34874885 94.74072266 46.8347168 C96.2448976 41.5114146 97.74917147 36.18814036 99.25351334 30.86488533 C99.82685988 28.83597874 100.40017103 26.80706215 100.97344589 24.7781353 C101.77761318 21.9320603 102.58190732 19.08602118 103.38623047 16.23999023 C103.62215912 15.40488922 103.85808777 14.56978821 104.10116577 13.7093811 C104.32268311 12.92565628 104.54420044 12.14193146 104.77243042 11.3344574 C104.96231977 10.66247031 105.15220913 9.99048323 105.34785271 9.2981329 C106.22770979 6.19756262 107.1145757 3.09898505 108 0 C124.83 0 141.66 0 159 0 C159 50.16 159 100.32 159 152 C147.78 152 136.56 152 125 152 C124.505 99.035 124.505 99.035 124 45 C117.02670274 72.35596432 117.02670274 72.35596432 110.06005859 99.71362305 C108.69067383 105.07775879 108.69067383 105.07775879 108.04312134 107.61116028 C107.60394934 109.33162308 107.16592563 111.05237932 106.72891235 112.77339172 C103.38863358 125.92269931 99.77334721 138.96766281 96 152 C85.11 152 74.22 152 63 152 C52.79350695 116.05539404 42.90291717 80.02976248 33 44 C32.67 79.64 32.34 115.28 32 152 C21.44 152 10.88 152 0 152 C0 101.84 0 51.68 0 0 Z " fill="#565658" transform="translate(406,678)"/>
<path d="M0 0 C8.42282415 7.29057566 13.91178979 19.09242637 15.3828125 30.0625 C15.3828125 33.3625 15.3828125 36.6625 15.3828125 40.0625 C3.5028125 40.0625 -8.3771875 40.0625 -20.6171875 40.0625 C-21.6071875 34.1225 -21.6071875 34.1225 -22.6171875 28.0625 C-26.34434563 20.84113111 -32.37406372 16.82709399 -40.04296875 14.24609375 C-53.67325322 11.21478632 -69.57518394 11.3508606 -81.8671875 18.3125 C-91.56594684 24.86307335 -95.99352588 34.98296079 -98.6171875 46.0625 C-101.27768248 61.78694276 -100.87573154 80.89547154 -92.2734375 94.83203125 C-86.06394574 103.19434209 -76.59871965 107.70037826 -66.6171875 110.0625 C-63.7154992 110.37455404 -60.84681508 110.44374653 -57.9296875 110.4375 C-57.14239258 110.43588867 -56.35509766 110.43427734 -55.54394531 110.43261719 C-44.80566859 110.20899444 -35.99282871 106.92617538 -27.9921875 99.6875 C-22.0585235 93.12923979 -21.14405365 89.32767589 -18.6171875 80.0625 C-33.4671875 80.0625 -48.3171875 80.0625 -63.6171875 80.0625 C-63.6171875 71.8125 -63.6171875 63.5625 -63.6171875 55.0625 C-37.5471875 55.0625 -11.4771875 55.0625 15.3828125 55.0625 C15.3828125 82.1225 15.3828125 109.1825 15.3828125 137.0625 C7.4628125 137.0625 -0.4571875 137.0625 -8.6171875 137.0625 C-9.454484 132.03872101 -9.7033828 128.06182751 -9.6171875 123.0625 C-10.41640625 123.58199219 -11.215625 124.10148438 -12.0390625 124.63671875 C-27.7969522 134.64260881 -43.03063616 139.660878 -61.8671875 139.5 C-63.13844482 139.49097656 -64.40970215 139.48195313 -65.71948242 139.47265625 C-84.83491118 139.12184739 -103.49536182 134.25818007 -117.51171875 120.453125 C-125.11808714 111.81658056 -129.21754849 101.90589837 -132.6171875 91.0625 C-132.96007812 89.97195313 -133.30296875 88.88140625 -133.65625 87.7578125 C-139.70833594 63.71915339 -137.49940237 35.27840164 -124.72900391 13.78564453 C-121.87652538 9.36474127 -118.40576225 5.68284319 -114.6171875 2.0625 C-113.69873047 1.11503906 -113.69873047 1.11503906 -112.76171875 0.1484375 C-84.85179234 -26.86884734 -29.2489301 -21.6529393 0 0 Z " fill="#565658" transform="translate(1069.6171875,692.9375)"/>
<path d="M0 0 C2.87462583 -0.00437464 5.74771461 -0.04079281 8.62207031 -0.07861328 C18.977136 -0.14260152 27.8469953 0.30472783 37.51269531 4.37060547 C38.1878418 4.64775391 38.86298828 4.92490234 39.55859375 5.21044922 C55.83711433 12.47417155 66.84165631 25.77341682 73.44238281 42.03076172 C73.9721875 43.68398438 73.9721875 43.68398438 74.51269531 45.37060547 C74.90001831 46.54163818 74.90001831 46.54163818 75.29516602 47.73632812 C77.86773552 56.49573267 78.00462773 65.00847906 77.95874023 74.05957031 C77.95025445 76.60288231 77.9790457 79.14392137 78.01074219 81.68701172 C78.070537 95.29933343 76.34161269 108.46904164 69.88769531 120.68310547 C69.54851074 121.33915771 69.20932617 121.99520996 68.85986328 122.67114258 C60.68471272 137.7610311 47.44202905 146.82483743 31.51269531 152.37060547 C7.01271936 159.20718942 -22.43925247 158.52230114 -44.98730469 145.99560547 C-62.07342766 135.24452674 -70.11499878 119.43478499 -74.72558594 100.19482422 C-79.6134914 75.65503217 -77.79582762 48.08526974 -64.06152344 26.63623047 C-54.61980444 13.04765226 -41.01612231 4.83815441 -24.92480469 1.26513672 C-16.68921382 -0.15264827 -8.33227986 -0.00141754 0 0 Z M-29.48730469 38.37060547 C-42.12766818 53.7217229 -41.94282306 72.90078008 -40.26904297 91.84033203 C-39.00726367 101.23825936 -35.41076634 111.6342644 -28.48730469 118.37060547 C-17.41770336 126.59373788 -5.05992705 128.65450218 8.51269531 127.37060547 C15.53629377 125.89791547 21.88014206 123.87664807 27.51269531 119.37060547 C28.33769531 118.83435547 29.16269531 118.29810547 30.01269531 117.74560547 C39.35659295 108.86890271 43.18813565 94.75588518 43.75097656 82.19091797 C44.11973224 66.60351598 42.36897527 50.56296215 31.70019531 38.28466797 C21.76695633 28.7920162 9.01056321 27.863936 -4.11621094 28.09326172 C-13.57975385 28.50885537 -22.78594188 31.48522355 -29.48730469 38.37060547 Z " fill="#565658" transform="translate(264.4873046875,676.62939453125)"/>
<path d="M0 0 C15.9946875 -0.0928125 15.9946875 -0.0928125 32.3125 -0.1875 C35.63739502 -0.21481201 38.96229004 -0.24212402 42.38793945 -0.27026367 C68.33232471 -0.39457577 96.82481931 -0.26306193 116.7578125 18.76953125 C117.49773437 19.50558594 118.23765625 20.24164062 119 21 C119.55429687 21.51949219 120.10859375 22.03898438 120.6796875 22.57421875 C124.36550433 26.36961392 126.75442777 30.91064752 129.1875 35.5625 C129.52088379 36.18068604 129.85426758 36.79887207 130.19775391 37.43579102 C135.79142321 48.63861286 136.50838855 60.87720146 136.375 73.1875 C136.37067963 73.86020935 136.36635925 74.5329187 136.36190796 75.22601318 C136.21452244 94.87334552 134.80139392 114.78846365 121 130 C120.48953125 130.60199219 119.9790625 131.20398438 119.453125 131.82421875 C108.88060596 143.46969145 93.39132878 149.39560072 78.06274414 151.12060547 C76.96178579 151.24630322 76.96178579 151.24630322 75.83858585 151.37454033 C67.96996528 152.20589249 60.1497992 152.25391092 52.24609375 152.1953125 C50.72339568 152.19156701 49.20069515 152.18872734 47.67799377 152.18673706 C43.73423209 152.17922115 39.79062558 152.15968158 35.84692383 152.1373291 C31.08086604 152.11294103 26.3147554 152.10403214 21.54865265 152.09242249 C14.36566161 152.0732458 7.18300878 152.03484079 0 152 C0 142.43 0 132.86 0 123 C2.0931958 122.98541748 4.1863916 122.97083496 6.34301758 122.95581055 C13.29609559 122.90524047 20.24895491 122.8386074 27.20181751 122.76428509 C31.41308961 122.71975363 35.62426878 122.68046074 39.83569336 122.65356445 C43.9078003 122.62735808 47.97954632 122.58683658 52.05142784 122.53681374 C53.59692548 122.52026123 55.14248537 122.50867523 56.68805885 122.50238609 C68.53254947 122.44936068 79.69465059 122.04240726 89.0625 113.99609375 C98.98482733 103.77369604 99.53104443 88.3783123 99.44604492 74.8762207 C99.43745884 72.80255981 99.46656892 70.73159996 99.49804688 68.65820312 C99.55619135 57.71728402 97.93972929 47.84341128 90.09375 39.71484375 C75.27291493 27.57613741 52.18786938 29.61385248 35 29 C35 55.07 35 81.14 35 108 C23.45 108 11.9 108 0 108 C0 72.36 0 36.72 0 0 Z " fill="#565658" transform="translate(635,678)"/>
<path d="M0 0 C11.22 0 22.44 0 34 0 C34.33 21.45 34.66 42.9 35 65 C43.41174085 56.6435953 43.41174085 56.6435953 51.2578125 47.9609375 C53.89771838 44.98956362 56.74194023 42.23543112 59.59375 39.46875 C61.57361683 37.43745806 63.43933162 35.37511246 65.296875 33.234375 C69.00288628 28.96371394 72.85698662 24.84992551 76.75 20.75 C78.05816751 19.37062176 79.36543786 17.99039221 80.671875 16.609375 C81.71927856 15.54154785 81.71927856 15.54154785 82.7878418 14.45214844 C85.12009768 11.97032895 85.12009768 11.97032895 87.22192383 8.80566406 C90.22546893 4.64216899 93.11099178 0.79221709 98.24493408 -0.61560059 C104.55445138 -1.48376427 110.85092162 -1.0963742 117.1875 -0.75 C119.11246284 -0.68970816 121.03760815 -0.63497263 122.96289062 -0.5859375 C127.64648815 -0.45466282 132.3212039 -0.24824576 137 0 C135.27282462 3.02319613 133.61641101 5.63089935 131.109375 8.05078125 C130.29774902 8.84500488 130.29774902 8.84500488 129.46972656 9.65527344 C128.61846191 10.47560059 128.61846191 10.47560059 127.75 11.3125 C123.53617566 15.44283635 119.49232647 19.60805099 115.671875 24.109375 C112.98857156 27.14376487 110.07003379 29.93766937 107.1875 32.78125 C105.20279658 34.79430632 103.33903084 36.85446403 101.5 39 C98.24835372 42.79358733 94.74286906 46.27392647 91.1875 49.78125 C89.20279658 51.79430632 87.33903084 53.85446403 85.5 56 C82.24835372 59.79358733 78.74286906 63.27392647 75.1875 66.78125 C73.20279658 68.79430632 71.33903084 70.85446403 69.5 73 C66.24835372 76.79358733 62.74286906 80.27392647 59.1875 83.78125 C56.59930547 86.40641873 54.2138996 89.16684107 51.81640625 91.96484375 C49.11574698 94.99074371 46.21797109 97.80494182 43.30859375 100.62890625 C42.54675781 101.41136719 41.78492188 102.19382812 41 103 C40.50181259 103.46720459 40.00362518 103.93440918 39.49034119 104.41577148 C35.47535269 108.50968238 34.30061767 111.49076486 34.16775513 117.19664001 C34.18139603 118.52049461 34.18139603 118.52049461 34.1953125 119.87109375 C34.18160614 120.793423 34.16789978 121.71575226 34.15377808 122.66603088 C34.11661003 125.5903561 34.12018398 128.51297295 34.125 131.4375 C34.10686397 133.42906285 34.08605844 135.42060329 34.0625 137.41210938 C34.00578142 142.27572801 34.00425083 147.13492628 34 152 C22.78 152 11.56 152 0 152 C0 101.84 0 51.68 0 0 Z " fill="#565658" transform="translate(10,678)"/>
<path d="M0 0 C0.68955276 -0.0049649 1.37910553 -0.00992981 2.08955383 -0.01504517 C4.3831989 -0.02971172 6.67677462 -0.03647909 8.97045898 -0.04199219 C10.56412254 -0.04774359 12.15778607 -0.05350132 13.75144958 -0.05926514 C17.10155561 -0.06979036 20.45163756 -0.07562185 23.80175781 -0.07910156 C28.07994962 -0.0845645 32.35781963 -0.10853845 36.63591099 -0.13707352 C39.93290608 -0.15577367 43.22982519 -0.16090959 46.52686882 -0.16243744 C48.10282065 -0.16545205 49.67877152 -0.1734401 51.2546711 -0.18662262 C69.52143027 -0.32841272 69.52143027 -0.32841272 74.94093323 4.54241943 C79.52595772 9.63679119 79.52885385 13.77807527 79.51757812 20.40820312 C79.51772415 21.13055145 79.51787018 21.85289978 79.51802063 22.59713745 C79.51732557 24.97787509 79.50955223 27.35853389 79.50170898 29.73925781 C79.49984336 31.39263873 79.49842014 33.04602019 79.49742126 34.69940186 C79.49360746 39.04607679 79.48378688 43.39271818 79.47271729 47.73937988 C79.46247872 52.17683458 79.4579184 56.6142947 79.45288086 61.05175781 C79.44216359 69.75489818 79.42510082 78.45801132 79.40405273 87.16113281 C69.76353462 87.27724747 60.12325914 87.36595945 50.48219299 87.42019367 C46.00488493 87.44623035 41.52805711 87.48151885 37.05102539 87.53833008 C32.72620966 87.5928631 28.40185434 87.62259791 24.07672119 87.63551903 C22.43093625 87.64472091 20.78517505 87.66269022 19.1395874 87.6897831 C3.04777125 87.94405724 3.04777125 87.94405724 -2.15498352 83.72320557 C-9.10936733 76.18432507 -8.13429757 67.11788858 -8.02172852 57.44628906 C-8.01679936 55.82344464 -8.01350391 54.20059451 -8.01176453 52.57774353 C-8.00415604 49.19283617 -7.98368251 45.80835646 -7.95263672 42.42358398 C-7.91284177 38.07662485 -7.89498913 33.72994175 -7.88532734 29.38282108 C-7.87538372 25.23727285 -7.85549428 21.0917924 -7.83422852 16.94628906 C-7.83083277 16.15275591 -7.82743702 15.35922276 -7.82393837 14.54164314 C-7.81241908 12.31063766 -7.79391272 10.07981121 -7.77294922 7.84887695 C-7.76310501 6.57839005 -7.7532608 5.30790314 -7.74311829 3.99891663 C-7.47037042 -1.26026745 -4.66540454 0.02542894 0 0 Z " fill="#EDBC1B" transform="translate(759.595947265625,411.8388671875)"/>
<path d="M0 0 C9.67509653 -0.09277792 19.35003937 -0.16380435 29.02548409 -0.20724869 C33.51845159 -0.22810237 38.0111142 -0.25637917 42.50390625 -0.30175781 C46.84166323 -0.34529518 51.17912738 -0.3691538 55.51708603 -0.37950897 C57.17007938 -0.38688623 58.82305713 -0.40129247 60.47592545 -0.42292023 C62.79566021 -0.4520602 65.11419299 -0.45595174 67.43408203 -0.45410156 C68.75312531 -0.46298401 70.07216858 -0.47186646 71.43118286 -0.48101807 C76.75153928 0.23607879 79.77750378 2.64534203 83.3125 6.5625 C86.22789174 10.7736214 86.12203176 14.12329211 86.11352539 19.13354492 C86.11367142 19.85574722 86.11381744 20.57794952 86.1139679 21.32203674 C86.11327145 23.70821134 86.1054916 26.09430779 86.09765625 28.48046875 C86.09579112 30.1352789 86.09436766 31.79008961 86.09336853 33.44490051 C86.08955085 37.79981003 86.07972695 42.15468618 86.06866455 46.50958252 C86.05843433 50.95364938 86.05386745 55.39772163 86.04882812 59.84179688 C86.03810402 68.56121323 86.02103657 77.28060246 86 86 C76.17722992 86.06953829 66.3545185 86.12283074 56.53155231 86.15543652 C51.9702465 86.17108639 47.40910922 86.19231226 42.84790039 86.22631836 C38.44532301 86.25893603 34.04290763 86.27685812 29.64021873 86.28463173 C27.96130002 86.29017092 26.28239009 86.30098765 24.60354042 86.31719017 C22.25022915 86.33899677 19.89758565 86.34196562 17.54418945 86.34057617 C16.8515097 86.351362 16.15882996 86.36214783 15.44515991 86.3732605 C9.84616645 86.33753644 6.8454388 84.64039004 2.75 81 C-0.51559894 77.26788693 -0.13760996 73.37125581 -0.11352539 68.68286133 C-0.11367142 67.94115189 -0.11381744 67.19944244 -0.1139679 66.43525696 C-0.11327134 63.98415195 -0.10549097 61.53312298 -0.09765625 59.08203125 C-0.09579116 57.38238059 -0.09436768 55.68272939 -0.09336853 53.983078 C-0.08955055 49.50980139 -0.07972638 45.03655724 -0.06866455 40.56329346 C-0.05843499 35.99858031 -0.0538676 31.43386193 -0.04882812 26.86914062 C-0.03810349 17.91274615 -0.02103567 8.95637578 0 0 Z " fill="#8F171A" transform="translate(364,76)"/>
<path d="M0 0 C11.22 0 22.44 0 34 0 C34 50.16 34 100.32 34 152 C22.78 152 11.56 152 0 152 C0 101.84 0 51.68 0 0 Z " fill="#575759" transform="translate(1154,678)"/>
<path d="M0 0 C11.22 0 22.44 0 34 0 C34 50.16 34 100.32 34 152 C22.78 152 11.56 152 0 152 C0 101.84 0 51.68 0 0 Z " fill="#565658" transform="translate(835,678)"/>
<path d="M0 0 C3.16704431 3.78380336 5.80111754 7.77058571 8.359375 11.9765625 C12.40744036 18.53914905 16.60284859 24.99009028 20.890625 31.3984375 C21.48935425 32.29330872 22.0880835 33.18817993 22.70495605 34.11016846 C24.55154967 36.86629392 26.40036455 39.62091512 28.25 42.375 C30.71631799 46.04762749 33.17939083 49.72240168 35.640625 53.3984375 C36.19075256 54.21533051 36.74088013 55.03222351 37.30767822 55.87387085 C40.06560832 59.99350723 42.77037706 64.14570609 45.39746094 68.35009766 C45.89695251 69.14517731 46.39644409 69.94025696 46.91107178 70.75942993 C48 73 48 73 48 77 C13.89434187 80.45159881 13.89434187 80.45159881 4.97314453 75.22753906 C0.27910648 70.40027089 -2.12369808 64.45238563 -4.57763672 58.26513672 C-7.10066695 52.47334024 -10.67629397 47.33636611 -14.125 42.0625 C-17.87715458 36.1105086 -21.56609342 30.14173838 -25 24 C-21.92501279 20.9002667 -18.84673365 17.80385173 -15.76538086 14.71044922 C-14.71792294 13.65796713 -13.6713649 12.60458865 -12.62573242 11.55029297 C-11.1213454 10.0337565 -9.61373614 8.5204886 -8.10546875 7.0078125 C-7.19949951 6.09660645 -6.29353027 5.18540039 -5.36010742 4.24658203 C-3 2 -3 2 0 0 Z " fill="#565658" transform="translate(100,753)"/>
<path d="M0 0 C2.26171875 -0.48828125 2.26171875 -0.48828125 4.6875 -0.3125 C5.49574219 -0.26738281 6.30398438 -0.22226562 7.13671875 -0.17578125 C7.75160156 -0.11777344 8.36648438 -0.05976562 9 0 C8.72510809 4.03174806 8.46508424 5.56894631 5.4375 8.375 C4.633125 8.91125 3.82875 9.4475 3 10 C3.32355469 10.56847656 3.64710937 11.13695312 3.98046875 11.72265625 C5.64067874 15.43109466 5.45663001 19.01162224 5 23 C3.22862697 27.28858733 1.10358094 28.96475623 -3 31 C-5.75225698 31.61639272 -8.50775501 31.91429428 -11.3125 32.1875 C-12.05306641 32.26935547 -12.79363281 32.35121094 -13.55664062 32.43554688 C-15.36994923 32.63442588 -17.18484969 32.81869827 -19 33 C-19 33.66 -19 34.32 -19 35 C-18.42032471 35.01458252 -17.84064941 35.02916504 -17.2434082 35.04418945 C-14.59912447 35.11898528 -11.95605998 35.21553898 -9.3125 35.3125 C-8.40048828 35.33505859 -7.48847656 35.35761719 -6.54882812 35.38085938 C-0.45873029 35.62446329 3.30553258 36.39844525 7.8125 40.75 C9.55246428 44.04677442 9.44406988 46.32056389 9 50 C7.28873566 53.35914852 6.12070597 55.43701063 2.71679688 57.14697266 C-2.24836072 58.70594647 -7.33662953 58.36909901 -12.5 58.375 C-13.62792969 58.39949219 -14.75585938 58.42398438 -15.91796875 58.44921875 C-24.18857726 58.47858186 -24.18857726 58.47858186 -28.21875 56.1015625 C-30.55239405 53.34827193 -30.96717066 52.34799103 -31.3125 48.6875 C-30.95409018 44.45826408 -29.90381772 42.99456202 -27 40 C-27.66 39.01 -28.32 38.02 -29 37 C-29.37265582 34.01875347 -29.46469615 32.61255402 -27.625 30.1875 C-26 29 -26 29 -24 29 C-24.30035156 28.52691406 -24.60070313 28.05382812 -24.91015625 27.56640625 C-27.60356527 22.88261361 -28.59304656 19.4207526 -27.67578125 14.046875 C-26.31049215 9.91154847 -23.53528004 7.78649434 -19.7734375 5.859375 C-15.27037223 4.464059 -10.83787959 5.12744726 -6.1796875 5.41796875 C-5.13039063 5.28003906 -4.08109375 5.14210938 -3 5 C-1.33946672 2.54675528 -1.33946672 2.54675528 0 0 Z M-17 13 C-19.35639408 14.93889246 -19.35639408 14.93889246 -19.375 18.4375 C-19.32273472 21.93405119 -19.32273472 21.93405119 -17.5 23.9375 C-13.93506006 25.45259948 -10.80567093 25.82495116 -7 25 C-4.27324837 23.02928108 -4.27324837 23.02928108 -3 20 C-2.66449153 16.84627591 -2.66449153 16.84627591 -4 14 C-9.17345721 10.69779327 -11.53822344 10.54220055 -17 13 Z M-21 44 C-21.66 45.32 -22.32 46.64 -23 48 C-22.01 49.485 -22.01 49.485 -21 51 C-18.89062565 51.43152446 -18.89062565 51.43152446 -16.46484375 51.328125 C-15.57345703 51.32296875 -14.68207031 51.3178125 -13.76367188 51.3125 C-12.3647168 51.2815625 -12.3647168 51.2815625 -10.9375 51.25 C-10.00099609 51.24484375 -9.06449219 51.2396875 -8.09960938 51.234375 C-3.71467739 51.57690001 -3.71467739 51.57690001 0 50 C0.16666667 47.5 0.16666667 47.5 0 45 C-0.99483202 43.78356708 -0.99483202 43.78356708 -2.94946289 43.88647461 C-4.1984436 43.89432983 -4.1984436 43.89432983 -5.47265625 43.90234375 C-6.82133789 43.90717773 -6.82133789 43.90717773 -8.19726562 43.91210938 C-9.14279297 43.92048828 -10.08832031 43.92886719 -11.0625 43.9375 C-12.01189453 43.94201172 -12.96128906 43.94652344 -13.93945312 43.95117188 C-16.29303065 43.9629989 -18.64648477 43.97947975 -21 44 Z " fill="#575759" transform="translate(1086,885)"/>
<path d="M0 0 C5.32125 -0.0825 10.6425 -0.165 16.125 -0.25 C17.79320801 -0.28641602 19.46141602 -0.32283203 21.18017578 -0.36035156 C22.51854164 -0.37204587 23.85692184 -0.38223594 25.1953125 -0.390625 C25.877146 -0.41108887 26.55897949 -0.43155273 27.26147461 -0.45263672 C32.31593561 -0.45628747 35.08278106 0.88238433 39 4 C42.24918586 7.25605518 42.43222232 9.84674639 42.4375 14.375 C42.26775784 21.94550015 40.24996427 24.79516436 35 30 C35.27263672 30.49927002 35.54527344 30.99854004 35.82617188 31.51293945 C37.05726849 33.77600018 38.27871213 36.04413199 39.5 38.3125 C39.92925781 39.09818359 40.35851563 39.88386719 40.80078125 40.69335938 C41.20683594 41.45068359 41.61289062 42.20800781 42.03125 42.98828125 C42.59682617 44.03302612 42.59682617 44.03302612 43.17382812 45.09887695 C44 47 44 47 44 50 C40.7 50 37.4 50 34 50 C32.49514966 47.04404397 30.99595081 44.0854552 29.5 41.125 C29.07074219 40.28324219 28.64148438 39.44148437 28.19921875 38.57421875 C27.59013672 37.36572266 27.59013672 37.36572266 26.96875 36.1328125 C26.59169922 35.38918457 26.21464844 34.64555664 25.82617188 33.87939453 C25 32 25 32 25 30 C19.72 30 14.44 30 9 30 C9 36.6 9 43.2 9 50 C6.03 50 3.06 50 0 50 C0 33.5 0 17 0 0 Z M9 8 C9 12.95 9 17.9 9 23 C11.89640118 23.08120751 14.79050912 23.14059421 17.6875 23.1875 C18.50412109 23.21263672 19.32074219 23.23777344 20.16210938 23.26367188 C24.97545043 23.32213351 28.05803722 23.08670459 32 20 C33.87264676 18.12735324 33.23607378 15.50240053 33.328125 13.0078125 C32.89620633 10.36488161 32.09755694 9.63678872 30 8 C27.68228031 7.58766625 27.68228031 7.58766625 25.11328125 7.70703125 C23.7065918 7.7215332 23.7065918 7.7215332 22.27148438 7.73632812 C21.29501953 7.76146484 20.31855469 7.78660156 19.3125 7.8125 C17.83040039 7.83280273 17.83040039 7.83280273 16.31835938 7.85351562 C13.87867383 7.88887339 11.43926837 7.94268038 9 8 Z " fill="#565658" transform="translate(10,961)"/>
<path d="M0 0 C31.96256112 0 31.96256112 0 39.59765625 7.34765625 C44.35758488 12.95615155 45 19.90886099 45 27 C44.28806492 35.37636123 42.27271092 40.72728908 36.25 46.75 C25.80179422 53.98337323 11.79908058 51 0 51 C0 34.17 0 17.34 0 0 Z M9 8 C9 19.55 9 31.1 9 43 C22.88196601 44.11803399 22.88196601 44.11803399 30 40 C34.2933227 35.24253431 35.16940167 32.61726842 35.25 26.25 C35.27578125 25.03828125 35.3015625 23.8265625 35.328125 22.578125 C34.85574433 17.42692626 33.28595683 14.18951007 29.5 10.6875 C22.64854878 6.06277043 18.95354356 8 9 8 Z " fill="#565658" transform="translate(990,879)"/>
<path d="M0 0 C1.640625 1.10546875 1.640625 1.10546875 4.078125 3.10546875 C4.67625 2.63109375 5.274375 2.15671875 5.890625 1.66796875 C10.28335983 -1.46969898 14.87688777 -1.40642806 20.078125 -0.89453125 C22.92560622 0.31716289 24.45573161 1.19487484 26.19482422 3.73925781 C27.43116212 7.05119451 27.32472658 10.23088941 27.2734375 13.71484375 C27.2706076 14.44165344 27.26777771 15.16846313 27.26486206 15.91729736 C27.25370023 18.23019126 27.22860351 20.54269263 27.203125 22.85546875 C27.19309001 24.42707773 27.18396506 25.99869279 27.17578125 27.5703125 C27.15377404 31.41551497 27.11927215 35.26042539 27.078125 39.10546875 C24.438125 39.10546875 21.798125 39.10546875 19.078125 39.10546875 C19.0687793 38.27821289 19.05943359 37.45095703 19.04980469 36.59863281 C18.99612181 32.8503046 18.9124679 29.10322713 18.828125 25.35546875 C18.81394531 24.05351563 18.79976562 22.7515625 18.78515625 21.41015625 C18.75292969 20.15976562 18.72070312 18.909375 18.6875 17.62109375 C18.66655273 16.46899414 18.64560547 15.31689453 18.62402344 14.12988281 C17.97215709 10.51837999 16.98420733 9.2867022 14.078125 7.10546875 C11.47163995 6.94336656 11.47163995 6.94336656 9.078125 8.10546875 C5.90954131 11.36905743 5.67162912 13.94089427 5.56640625 18.40234375 C5.53095703 19.60761719 5.49550781 20.81289063 5.45898438 22.0546875 C5.43642578 23.30894531 5.41386719 24.56320312 5.390625 25.85546875 C5.35646484 27.12519531 5.32230469 28.39492188 5.28710938 29.703125 C5.20463499 32.83715149 5.13548016 35.9708983 5.078125 39.10546875 C2.108125 39.10546875 -0.861875 39.10546875 -3.921875 39.10546875 C-3.93645752 38.20715332 -3.95104004 37.30883789 -3.96606445 36.38330078 C-4.02707197 33.05440285 -4.10121128 29.72633992 -4.18432617 26.39794922 C-4.21760678 24.95665533 -4.24562904 23.51523012 -4.26831055 22.07373047 C-4.3018012 20.00301078 -4.354108 17.93349782 -4.41015625 15.86328125 C-4.43634033 14.61691895 -4.46252441 13.37055664 -4.48950195 12.08642578 C-4.63218506 11.10270996 -4.77486816 10.11899414 -4.921875 9.10546875 C-7.66882025 6.84404617 -7.66882025 6.84404617 -10.421875 7.23046875 C-13.54465269 8.32344094 -14.25492415 9.2715044 -15.921875 12.10546875 C-16.42440645 15.09903735 -16.42440645 15.09903735 -16.43359375 18.40234375 C-16.46904297 19.60761719 -16.50449219 20.81289063 -16.54101562 22.0546875 C-16.57485352 23.93607422 -16.57485352 23.93607422 -16.609375 25.85546875 C-16.64353516 27.12519531 -16.67769531 28.39492188 -16.71289062 29.703125 C-16.79536501 32.83715149 -16.86451984 35.9708983 -16.921875 39.10546875 C-19.891875 39.10546875 -22.861875 39.10546875 -25.921875 39.10546875 C-25.921875 26.23546875 -25.921875 13.36546875 -25.921875 0.10546875 C-23.611875 0.10546875 -21.301875 0.10546875 -18.921875 0.10546875 C-18.261875 1.09546875 -17.601875 2.08546875 -16.921875 3.10546875 C-16.48875 2.63109375 -16.055625 2.15671875 -15.609375 1.66796875 C-11.7288468 -1.92511291 -4.70355633 -2.18925691 0 0 Z " fill="#565658" transform="translate(560.921875,890.89453125)"/>
<path d="M0 0 C1.640625 1.10546875 1.640625 1.10546875 4.078125 3.10546875 C5.0475 2.44546875 6.016875 1.78546875 7.015625 1.10546875 C11.3382963 -1.35836621 15.20003001 -1.65415955 20.078125 -0.89453125 C22.92560622 0.31716289 24.45573161 1.19487484 26.19482422 3.73925781 C27.43116212 7.05119451 27.32472658 10.23088941 27.2734375 13.71484375 C27.2706076 14.44165344 27.26777771 15.16846313 27.26486206 15.91729736 C27.25370023 18.23019126 27.22860351 20.54269263 27.203125 22.85546875 C27.19309001 24.42707773 27.18396506 25.99869279 27.17578125 27.5703125 C27.15377404 31.41551497 27.11927215 35.26042539 27.078125 39.10546875 C24.438125 39.10546875 21.798125 39.10546875 19.078125 39.10546875 C19.05306885 38.27297607 19.0280127 37.4404834 19.00219727 36.58276367 C18.90699806 33.49084042 18.80776828 30.39908023 18.70581055 27.30737305 C18.64125494 25.31243556 18.5813467 23.31734946 18.52148438 21.32226562 C18.47958984 20.06865234 18.43769531 18.81503906 18.39453125 17.5234375 C18.33954468 15.78743286 18.33954468 15.78743286 18.28344727 14.01635742 C18.19483991 11.04112415 18.19483991 11.04112415 17.078125 8.10546875 C12.80109674 6.97192796 12.80109674 6.97192796 8.765625 8.35546875 C5.7090252 11.52527595 5.90504834 14.88842821 5.76171875 19.0859375 C5.71982422 20.24931641 5.67792969 21.41269531 5.63476562 22.61132812 C5.59544922 23.82626953 5.55613281 25.04121094 5.515625 26.29296875 C5.47244141 27.51951172 5.42925781 28.74605469 5.38476562 30.00976562 C5.2785941 33.04155256 5.17654548 36.0734219 5.078125 39.10546875 C2.438125 39.10546875 -0.201875 39.10546875 -2.921875 39.10546875 C-2.94169434 38.34403564 -2.96151367 37.58260254 -2.98193359 36.7980957 C-3.07737422 33.33771403 -3.18697712 29.8779202 -3.296875 26.41796875 C-3.3278125 25.21978516 -3.35875 24.02160156 -3.390625 22.78710938 C-3.42929688 21.63017578 -3.46796875 20.47324219 -3.5078125 19.28125 C-3.55494385 17.6866394 -3.55494385 17.6866394 -3.60302734 16.05981445 C-3.92973984 13.03259553 -4.53628271 10.81103275 -5.921875 8.10546875 C-8.20945067 6.76439514 -8.20945067 6.76439514 -10.921875 7.10546875 C-13.52808213 8.7431004 -14.48836369 9.46501338 -15.921875 12.10546875 C-16.69628688 16.70237156 -16.71270661 21.2640804 -16.734375 25.91796875 C-16.75951172 27.18318359 -16.78464844 28.44839844 -16.81054688 29.75195312 C-16.86937991 32.87010418 -16.90569006 35.98685242 -16.921875 39.10546875 C-19.891875 39.10546875 -22.861875 39.10546875 -25.921875 39.10546875 C-25.921875 26.23546875 -25.921875 13.36546875 -25.921875 0.10546875 C-23.611875 0.10546875 -21.301875 0.10546875 -18.921875 0.10546875 C-18.261875 1.09546875 -17.601875 2.08546875 -16.921875 3.10546875 C-16.48875 2.63109375 -16.055625 2.15671875 -15.609375 1.66796875 C-11.7288468 -1.92511291 -4.70355633 -2.18925691 0 0 Z " fill="#565658" transform="translate(123.921875,890.89453125)"/>
<path d="M0 0 C2.97 0 5.94 0 9 0 C9.33 7.92 9.66 15.84 10 24 C12.95645961 21.06651805 15.91130591 18.13157887 18.86230469 15.19262695 C19.86628378 14.19367099 20.87115932 13.19561513 21.87695312 12.19848633 C23.32399338 10.76360007 24.76775991 9.32548866 26.2109375 7.88671875 C27.08024902 7.02264404 27.94956055 6.15856934 28.84521484 5.26831055 C31.12463379 2.99818208 31.12463379 2.99818208 33 0 C35.6015625 -0.29296875 35.6015625 -0.29296875 38.625 -0.1875 C40.12933594 -0.14689453 40.12933594 -0.14689453 41.6640625 -0.10546875 C42.43492187 -0.07066406 43.20578125 -0.03585937 44 0 C42.59205918 3.16018158 40.90337795 5.38967063 38.5234375 7.890625 C37.51796875 8.95410156 37.51796875 8.95410156 36.4921875 10.0390625 C35.79351562 10.76867187 35.09484375 11.49828125 34.375 12.25 C33.66859375 12.99507812 32.9621875 13.74015625 32.234375 14.5078125 C30.49372207 16.34255477 28.74884777 18.173073 27 20 C28.42271253 23.96959378 30.32092068 27.18987612 32.6953125 30.66796875 C33.76845703 32.25448242 33.76845703 32.25448242 34.86328125 33.87304688 C35.61665664 34.97822664 36.37056916 36.08304044 37.125 37.1875 C38.61207112 39.36501956 40.09286657 41.54636017 41.5703125 43.73046875 C42.22789551 44.69364014 42.88547852 45.65681152 43.56298828 46.64916992 C45 49 45 49 45 51 C41.14326992 51.69825814 37.83574864 51.89847514 34 51 C30.5886657 47.83099273 28.53810642 44.05743253 26.3125 40 C25.69439453 38.95070313 25.07628906 37.90140625 24.43945312 36.8203125 C22.92197204 34.23236026 21.44553962 31.62860051 20 29 C14.23723101 31.57384527 14.23723101 31.57384527 10 36 C9.17167184 41.0127214 9.01276367 45.92644165 9 51 C6.03 51 3.06 51 0 51 C0 34.17 0 17.34 0 0 Z " fill="#565658" transform="translate(445,879)"/>
<path d="M0 0 C2.97 0 5.94 0 9 0 C9.33 7.92 9.66 15.84 10 24 C12.124375 21.710625 14.24875 19.42125 16.4375 17.0625 C17.73308125 15.68628091 19.02970204 14.31103834 20.328125 12.9375 C22.46783194 10.66501369 24.52520972 8.38134806 26.546875 6 C31.59359156 0.25337384 31.59359156 0.25337384 35.9921875 -0.5390625 C38.72972143 -0.55995971 41.29605347 -0.40938256 44 0 C38.80029729 7.51068169 32.52800875 13.66212743 26 20 C27.42271253 23.96959378 29.32092068 27.18987612 31.6953125 30.66796875 C32.76845703 32.25448242 32.76845703 32.25448242 33.86328125 33.87304688 C34.61665664 34.97822664 35.37056916 36.08304044 36.125 37.1875 C37.61207112 39.36501956 39.09286657 41.54636017 40.5703125 43.73046875 C41.22789551 44.69364014 41.88547852 45.65681152 42.56298828 46.64916992 C44 49 44 49 44 51 C40.46290781 51.71756583 37.5188384 51.88600223 34 51 C30.59249721 47.80433131 28.37239557 43.99819874 26 40 C24.71340048 37.93433529 23.42199805 35.87165154 22.125 33.8125 C21.57070313 32.89082031 21.01640625 31.96914063 20.4453125 31.01953125 C19.96835937 30.35308594 19.49140625 29.68664062 19 29 C16.31500521 29 15.49055623 29.85233416 13.4375 31.5625 C8.80209449 36.19790551 9.05851622 41.80226388 8.97265625 47.96484375 C8.98167969 48.96644531 8.99070312 49.96804688 9 51 C6.03 51 3.06 51 0 51 C0 34.17 0 17.34 0 0 Z " fill="#565658" transform="translate(10,879)"/>
<path d="M0 0 C2.97 0 5.94 0 9 0 C9 17.49 9 34.98 9 53 C6.69 53 4.38 53 2 53 C1.34 52.01 0.68 51.02 0 50 C-0.56074219 50.47695313 -1.12148438 50.95390625 -1.69921875 51.4453125 C-5.51655749 54.02477059 -9.4758918 54.10456336 -14 54 C-18.27367429 53.16788572 -20.64446033 51.44910274 -23.375 48 C-27.33658188 40.68631038 -27.31599777 30.30911099 -25.31640625 22.2421875 C-23.24061174 17.71161525 -20.50444117 15.00197386 -16 13 C-9.67281484 12.1164284 -6.61535865 12.63078481 -1 16 C-0.67 10.72 -0.34 5.44 0 0 Z M-16 23 C-18.33254554 29.04341343 -18.46192026 34.68667028 -17 41 C-15.66983836 44.22838773 -15.66983836 44.22838773 -13 46 C-10.19827914 46.63858525 -7.80172086 46.63858525 -5 46 C-2.56880377 44.12984906 -1.35930827 42.71861655 0 40 C0.86280136 31.35711277 0.86280136 31.35711277 -1.5625 23.25 C-6.12788573 19.03579779 -11.41537429 18.67735291 -16 23 Z " fill="#565659" transform="translate(871,877)"/>
<path d="M0 0 C2.97 0 5.94 0 9 0 C9.33 5.28 9.66 10.56 10 16 C11.155 15.484375 12.31 14.96875 13.5 14.4375 C19.04999125 12.3648484 23.3388442 12.81726409 28.8125 15.25 C32.44169226 18.15335381 34.15364136 21.49616298 35 26 C35.14594876 28.61865761 35.23065443 31.1935938 35.25 33.8125 C35.270625 34.49892578 35.29125 35.18535156 35.3125 35.89257812 C35.35853571 41.97504608 34.00416935 46.6200489 30 51.375 C25.65907381 54.90200253 20.32595674 54.49543784 15 54 C11.375 52.5 11.375 52.5 9 51 C8.34 51.66 7.68 52.32 7 53 C4.69 53 2.38 53 0 53 C0 35.51 0 18.02 0 0 Z M11.5625 22.8125 C8.96762306 26.44532772 8.81512419 29.52253338 8.75 33.875 C8.72421875 34.90367187 8.6984375 35.93234375 8.671875 36.9921875 C9.04792142 40.4392797 9.93898486 42.23592829 12 45 C15.63088271 47.42058848 17.005299 47.18976016 21.12890625 46.5390625 C23.17729376 46.09706651 23.17729376 46.09706651 24.9375 44.25 C27.28738597 39.27377088 28.05446126 33.38933977 26.3984375 28.06640625 C25.24317056 25.25992444 24.15679886 23.15679886 22 21 C16.36560957 20.343163 16.36560957 20.343163 11.5625 22.8125 Z " fill="#565658" transform="translate(183,958)"/>
<path d="M0 0 C5.6677101 6.34243749 6.12980714 12.51005411 5.91015625 20.7421875 C5.38129915 26.66828482 4.38627423 31.21918367 0.0625 35.4375 C-3.50385671 37.63218105 -5.49882671 38.11948365 -9.6875 38.1875 C-10.63238281 38.21328125 -11.57726562 38.2390625 -12.55078125 38.265625 C-15.375 37.9375 -15.375 37.9375 -20.375 34.9375 C-20.705 39.8875 -21.035 44.8375 -21.375 49.9375 C-24.015 49.9375 -26.655 49.9375 -29.375 49.9375 C-29.375 32.7775 -29.375 15.6175 -29.375 -2.0625 C-27.065 -2.0625 -24.755 -2.0625 -22.375 -2.0625 C-22.375 -0.7425 -22.375 0.5775 -22.375 1.9375 C-21.4675 1.298125 -20.56 0.65875 -19.625 0 C-13.14835995 -4.11017541 -6.55740893 -4.00730546 0 0 Z M-19.375 7.9375 C-21.67110512 13.46811842 -21.79851939 19.29278522 -20.1953125 25.015625 C-18.8548034 28.15624631 -17.42247698 29.44762237 -14.375 30.9375 C-10.76068571 30.87518424 -8.40489607 30.72708699 -5.5 28.5 C-3.02290432 25.05958934 -3.17778287 22.32563666 -3.125 18.125 C-3.09921875 16.90167969 -3.0734375 15.67835938 -3.046875 14.41796875 C-3.39626454 10.71194397 -4.13930881 8.87320129 -6.375 5.9375 C-11.1205613 3.56471935 -15.64274251 4.3777418 -19.375 7.9375 Z " fill="#565658" transform="translate(130.375,974.0625)"/>
<path d="M0 0 C2.64 0 5.28 0 8 0 C8 17.49 8 34.98 8 53 C5.69 53 3.38 53 1 53 C0.67 52.01 0.34 51.02 0 50 C-0.433125 50.474375 -0.86625 50.94875 -1.3125 51.4375 C-4.80973689 54.67568231 -8.99973365 54.28166404 -13.49609375 54.203125 C-17.07567766 53.91273754 -19.13230174 53.18491296 -22 51 C-26.88422029 44.59240553 -27.36106265 36.84855561 -26.78125 29.0625 C-25.9163477 22.94165295 -24.66660607 19.13630992 -20 15 C-15.0795728 12.42795851 -10.2918605 12.806926 -5 14 C-3.68 14.66 -2.36 15.32 -1 16 C-0.67 10.72 -0.34 5.44 0 0 Z M-15.4375 22.75 C-18.80954457 27.60574418 -18.36124395 33.29419819 -18 39 C-17.20074307 42.13042299 -16.4731678 43.50993335 -14.25 45.8125 C-11.19070075 47.42713016 -9.41702282 47.55788128 -6 47 C-2.89835231 44.44975635 -1.27433584 42.82300753 0 39 C0.54080383 32.95755725 0.39809157 28.22783319 -3 23 C-4.98959408 20.58660109 -4.98959408 20.58660109 -8.875 20.625 C-11.97234974 20.70369854 -12.82861687 20.8769557 -15.4375 22.75 Z " fill="#565658" transform="translate(401,958)"/>
<path d="M0 0 C3.27165692 1.8934129 4.99658598 3.77505524 6.5 7.3125 C7.5 11.3125 7.5 11.3125 7.5 21.3125 C-1.41 21.3125 -10.32 21.3125 -19.5 21.3125 C-17.41029027 28.70391692 -17.41029027 28.70391692 -14.8125 30.875 C-11.22588099 31.55354954 -7.92311561 31.57477388 -4.5 30.3125 C-3.84 29.301875 -3.18 28.29125 -2.5 27.25 C-0.5 24.3125 -0.5 24.3125 1.515625 23.91796875 C3.75 23.9375 3.75 23.9375 7.5 24.3125 C7.08781909 29.56780665 6.43037356 32.68446287 2.5 36.3125 C-3.98933382 39.89530293 -9.98460899 39.96791188 -17.1875 38.625 C-22.2936882 36.60179336 -25.1190322 33.66616179 -27.3125 28.6875 C-29.75362073 21.28044225 -29.23455498 13.4282901 -26.48046875 6.1875 C-21.67779559 -2.99689489 -8.52141678 -3.89055442 0 0 Z M-18.5 9.3125 C-18.83 10.9625 -19.16 12.6125 -19.5 14.3125 C-13.56 14.3125 -7.62 14.3125 -1.5 14.3125 C-1.9040194 8.67070953 -1.9040194 8.67070953 -4.125 6.4375 C-9.79991946 3.74938025 -14.32205944 4.76591763 -18.5 9.3125 Z " fill="#575759" transform="translate(84.5,891.6875)"/>
<path d="M0 0 C3.90263667 2.92697751 5.96910212 6.28230637 7.5 10.875 C7.5 14.505 7.5 18.135 7.5 21.875 C-1.41 21.875 -10.32 21.875 -19.5 21.875 C-18.51 24.845 -17.52 27.815 -16.5 30.875 C-9.21520952 32.23810101 -9.21520952 32.23810101 -2.5 29.875 C-1.13921965 27.35127099 -1.13921965 27.35127099 -0.5 24.875 C2.14 24.875 4.78 24.875 7.5 24.875 C7.25623722 32.06600204 7.25623722 32.06600204 3.8125 35.75 C-3.09719227 40.18263278 -9.27589257 40.66254545 -17.1875 39.1875 C-21.53834336 37.46358093 -24.14428883 35.08592682 -26.58984375 31.09765625 C-29.56531165 23.83138485 -29.30979004 14.17434586 -26.5 6.875 C-24.28151775 3.09536357 -21.83657429 0.94565443 -17.69140625 -0.62109375 C-11.77977916 -1.98045185 -5.75717946 -1.85052197 0 0 Z M-18.5 10.875 C-18.83 12.195 -19.16 13.515 -19.5 14.875 C-13.56 14.875 -7.62 14.875 -1.5 14.875 C-1.9040194 9.23320953 -1.9040194 9.23320953 -4.125 7 C-10.38739729 4.03360128 -14.41426417 5.58757716 -18.5 10.875 Z " fill="#565658" transform="translate(185.5,891.125)"/>
<path d="M0 0 C3.1720364 2.69142483 4.84950858 5.38509903 5.49487305 9.52075195 C5.52105713 10.50003662 5.54724121 11.47932129 5.57421875 12.48828125 C5.60966797 13.55498047 5.64511719 14.62167969 5.68164062 15.72070312 C5.71547852 17.37489258 5.71547852 17.37489258 5.75 19.0625 C5.78416016 20.18462891 5.81832031 21.30675781 5.85351562 22.46289062 C5.93579601 25.22516062 6.00501281 27.98712113 6.0625 30.75 C7.3825 31.08 8.7025 31.41 10.0625 31.75 C10.10504356 33.74954746 10.10330783 35.75041636 10.0625 37.75 C9.0625 38.75 9.0625 38.75 5.1875 39 C1.35924306 38.9725573 1.35924306 38.9725573 -0.9375 37.25 C-1.2675 36.755 -1.5975 36.26 -1.9375 35.75 C-2.700625 36.059375 -3.46375 36.36875 -4.25 36.6875 C-10.10290057 39.00143743 -16.89542124 40.39966851 -22.95703125 37.92578125 C-25.20041785 36.45748199 -26.7303847 35.1642306 -27.9375 32.75 C-28.44070917 28.08912817 -28.58240534 24.06785004 -26.5 19.8125 C-19.78513761 14.40785466 -12.24500668 14.33074265 -3.9375 14.75 C-4.0792301 10.003662 -4.0792301 10.003662 -6.5625 6.25 C-9.86114413 5.5555486 -12.65500369 6.11875071 -15.9375 6.75 C-16.5975 8.4 -17.2575 10.05 -17.9375 11.75 C-20.5775 11.75 -23.2175 11.75 -25.9375 11.75 C-26.34987494 7.54377564 -26.42771302 5.43936206 -23.9375 1.9375 C-16.83061963 -3.24460027 -7.98217924 -3.39667202 0 0 Z M-18.9375 24.75 C-19.27083333 27.25 -19.27083333 27.25 -18.9375 29.75 C-17.00877924 32.11401384 -17.00877924 32.11401384 -13.5625 32 C-10.26300892 31.77244889 -8.58957228 31.61627309 -5.9375 29.75 C-3.64736347 26.3147952 -3.75907027 24.764669 -3.9375 20.75 C-9.37772738 20.48462305 -14.92667213 20.73917213 -18.9375 24.75 Z " fill="#565658" transform="translate(619.9375,973.25)"/>
<path d="M0 0 C4.27887529 3.10218459 6.21482778 5.67181114 7.5 10.8125 C7.5 14.4425 7.5 18.0725 7.5 21.8125 C-1.41 21.8125 -10.32 21.8125 -19.5 21.8125 C-16.5 29.8125 -16.5 29.8125 -11.5 31.8125 C-6.74802025 31.57846271 -6.74802025 31.57846271 -2.625 29.4375 C-1.30416667 27.69166667 -1.30416667 27.69166667 -0.5 24.8125 C2.14 24.8125 4.78 24.8125 7.5 24.8125 C7.97762932 28.82458627 7.67851586 30.52799035 5.5 34 C1.46393211 38.33166723 -3.68386453 39.91326179 -9.5 40.1875 C-15.40618638 39.90901577 -19.87052274 38.19401333 -24.375 34.375 C-28.48200902 28.79723775 -28.82103265 20.76851031 -28.4375 14.0625 C-27.67752684 9.25807199 -25.74885647 5.42611059 -22.5 1.8125 C-15.88421316 -2.50801385 -7.37259522 -2.50141624 0 0 Z M-18.5 10.8125 C-18.5 12.1325 -18.5 13.4525 -18.5 14.8125 C-12.89 14.8125 -7.28 14.8125 -1.5 14.8125 C-0.94532096 9.91797306 -0.94532096 9.91797306 -3.5625 7.5 C-9.85721311 3.88388821 -14.22537608 5.11300144 -18.5 10.8125 Z " fill="#565658" transform="translate(287.5,891.1875)"/>
<path d="M0 0 C2.78061616 2.43216802 3.4649622 5.54963311 3.87744141 9.1340332 C3.9088623 10.11331787 3.9402832 11.09260254 3.97265625 12.1015625 C4.03066406 13.70161133 4.03066406 13.70161133 4.08984375 15.33398438 C4.12078125 16.43677734 4.15171875 17.53957031 4.18359375 18.67578125 C4.24160156 20.35897461 4.24160156 20.35897461 4.30078125 22.07617188 C4.39481386 24.83837977 4.48046716 27.60058525 4.55859375 30.36328125 C5.87859375 30.69328125 7.19859375 31.02328125 8.55859375 31.36328125 C8.55859375 33.34328125 8.55859375 35.32328125 8.55859375 37.36328125 C2.32811516 38.70710997 2.32811516 38.70710997 -1.37890625 37.05078125 C-2.05953125 36.49390625 -2.74015625 35.93703125 -3.44140625 35.36328125 C-3.44140625 34.70328125 -3.44140625 34.04328125 -3.44140625 33.36328125 C-4.34890625 34.00265625 -5.25640625 34.64203125 -6.19140625 35.30078125 C-11.09231058 38.41097054 -14.62073086 38.75790331 -20.44140625 38.36328125 C-23.73450551 37.46033468 -26.69570164 36.51506263 -28.625 33.53515625 C-29.51638068 31.16382775 -29.70870977 29.38959463 -29.69140625 26.86328125 C-29.6965625 26.11046875 -29.70171875 25.35765625 -29.70703125 24.58203125 C-29.28467083 21.05407947 -28.1915799 18.97279734 -25.44140625 16.73828125 C-19.09046834 13.82743471 -12.36794611 13.06212734 -5.44140625 13.36328125 C-5.69701948 11.02015995 -6.03411397 8.68484722 -6.44140625 6.36328125 C-9.62332844 4.77232016 -12.99669981 4.69009538 -16.44140625 5.36328125 C-16.93640625 6.18828125 -17.43140625 7.01328125 -17.94140625 7.86328125 C-18.43640625 8.68828125 -18.93140625 9.51328125 -19.44140625 10.36328125 C-22.22910239 10.83813931 -24.59089 10.59693012 -27.44140625 10.36328125 C-27.81640625 7.17578125 -27.81640625 7.17578125 -27.44140625 3.36328125 C-20.03772671 -4.37692918 -9.34319549 -4.72015905 0 0 Z M-20.44140625 23.36328125 C-21.59047745 25.28874565 -21.59047745 25.28874565 -21.44140625 27.36328125 C-19.70607577 30.66579883 -19.70607577 30.66579883 -16.19140625 31.30078125 C-11.51679281 31.37869147 -9.81265363 30.57399304 -6.44140625 27.36328125 C-5.46789847 23.72670815 -5.46789847 23.72670815 -5.44140625 20.36328125 C-11.14699712 20.0209458 -15.56550089 19.9501475 -20.44140625 23.36328125 Z " fill="#565658" transform="translate(915.44140625,892.63671875)"/>
<path d="M0 0 C3.50582044 2.60689212 5.191934 5.23885316 5.86987305 9.58325195 C5.89605713 10.56253662 5.92224121 11.54182129 5.94921875 12.55078125 C5.98466797 13.61748047 6.02011719 14.68417969 6.05664062 15.78320312 C6.09047852 17.43739258 6.09047852 17.43739258 6.125 19.125 C6.15916016 20.24712891 6.19332031 21.36925781 6.22851562 22.52539062 C6.31079601 25.28766062 6.38001281 28.04962113 6.4375 30.8125 C7.7575 31.4725 9.0775 32.1325 10.4375 32.8125 C10.4375 34.7925 10.4375 36.7725 10.4375 38.8125 C6.03991521 39.83519414 3.46620334 39.9387601 -0.5625 37.8125 C-1.2225 37.1525 -1.8825 36.4925 -2.5625 35.8125 C-3.18125 36.286875 -3.8 36.76125 -4.4375 37.25 C-9.23679468 39.64964734 -14.35196553 40.48210868 -19.66015625 39.375 C-22.59886826 38.27688256 -24.46115166 36.93019484 -26.5 34.5625 C-28.23158516 30.08075018 -28.28551374 26.48684761 -26.375 22.0625 C-22.24760049 16.93883164 -16.83131036 15.71545778 -10.5625 14.8125 C-7.86775834 14.67419372 -5.26342036 14.71428471 -2.5625 14.8125 C-3.16111742 12.46078869 -3.83174352 10.1265622 -4.5625 7.8125 C-7.61233996 6.28758002 -10.2048369 6.57687452 -13.5625 6.8125 C-15.66608381 8.35512813 -16.40304159 9.49358317 -17.5625 11.8125 C-20.2025 11.8125 -22.8425 11.8125 -25.5625 11.8125 C-25.875 9.125 -25.875 9.125 -25.5625 5.8125 C-19.16427595 -2.23098166 -9.41216886 -3.13738962 0 0 Z M-18.5625 25.8125 C-18.47138062 28.35201544 -18.47138062 28.35201544 -17.5625 30.8125 C-14.68601775 33.15234442 -14.68601775 33.15234442 -11.125 32.6875 C-7.21285821 31.72662307 -5.857483 31.07843734 -3.5625 27.8125 C-2.75934346 24.66768209 -2.75934346 24.66768209 -2.5625 21.8125 C-11.32132352 21.37754024 -11.32132352 21.37754024 -18.5625 25.8125 Z " fill="#565658" transform="translate(1162.5625,891.1875)"/>
<path d="M0 0 C3.50582044 2.60689212 5.191934 5.23885316 5.86987305 9.58325195 C5.89605713 10.56253662 5.92224121 11.54182129 5.94921875 12.55078125 C5.98466797 13.61748047 6.02011719 14.68417969 6.05664062 15.78320312 C6.09047852 17.43739258 6.09047852 17.43739258 6.125 19.125 C6.15916016 20.24712891 6.19332031 21.36925781 6.22851562 22.52539062 C6.31079601 25.28766062 6.38001281 28.04962113 6.4375 30.8125 C7.7575 31.4725 9.0775 32.1325 10.4375 32.8125 C10.4375 34.7925 10.4375 36.7725 10.4375 38.8125 C6.03991521 39.83519414 3.46620334 39.9387601 -0.5625 37.8125 C-1.2225 37.1525 -1.8825 36.4925 -2.5625 35.8125 C-3.18125 36.286875 -3.8 36.76125 -4.4375 37.25 C-9.23679468 39.64964734 -14.35196553 40.48210868 -19.66015625 39.375 C-22.59886826 38.27688256 -24.46115166 36.93019484 -26.5 34.5625 C-28.23158516 30.08075018 -28.28551374 26.48684761 -26.375 22.0625 C-22.24760049 16.93883164 -16.83131036 15.71545778 -10.5625 14.8125 C-7.86775834 14.67419372 -5.26342036 14.71428471 -2.5625 14.8125 C-3.16111742 12.46078869 -3.83174352 10.1265622 -4.5625 7.8125 C-7.61233996 6.28758002 -10.2048369 6.57687452 -13.5625 6.8125 C-15.66608381 8.35512813 -16.40304159 9.49358317 -17.5625 11.8125 C-20.2025 11.8125 -22.8425 11.8125 -25.5625 11.8125 C-25.875 9.125 -25.875 9.125 -25.5625 5.8125 C-19.16427595 -2.23098166 -9.41216886 -3.13738962 0 0 Z M-18.5625 25.8125 C-18.47138062 28.35201544 -18.47138062 28.35201544 -17.5625 30.8125 C-14.69539692 33.12451886 -14.69539692 33.12451886 -11.1875 32.8125 C-6.34255136 31.47596244 -5.26470372 29.98863303 -2.5625 25.8125 C-2.5625 24.4925 -2.5625 23.1725 -2.5625 21.8125 C-11.32132352 21.37754024 -11.32132352 21.37754024 -18.5625 25.8125 Z " fill="#565658" transform="translate(368.5625,891.1875)"/>
<path d="M0 0 C7.02315555 6.16667317 5.7968668 10.29676835 6.5625 20.25 C-2.3475 20.25 -11.2575 20.25 -20.4375 20.25 C-19.10143155 26.72558107 -19.10143155 26.72558107 -16.8125 29.1875 C-12.43188473 31.14724894 -7.96640421 30.75963474 -3.4375 29.25 C-3.1075 27.27 -2.7775 25.29 -2.4375 23.25 C0.5325 23.25 3.5025 23.25 6.5625 23.25 C5.22321429 32.22321429 5.22321429 32.22321429 1.625 35.25 C-4.37560973 39.16876554 -10.47006222 38.73051295 -17.4375 38.25 C-21.70574211 36.75237119 -24.60795428 34.78693215 -27.4375 31.25 C-30.48782584 23.6733842 -30.83202916 14.42976995 -28.25 6.625 C-25.52663644 1.55390922 -23.13941495 -0.14423366 -17.75 -2.0625 C-11.50264632 -3.3733814 -5.69137846 -2.89742903 0 0 Z M-18.4375 7.25 C-20.24685423 9.88178797 -20.4375 11.0111766 -20.4375 14.25 C-14.4975 14.25 -8.5575 14.25 -2.4375 14.25 C-2.94128619 8.74176833 -2.94128619 8.74176833 -4.625 6.4375 C-9.62536485 3.16139889 -13.65755237 4.09957997 -18.4375 7.25 Z " fill="#565658" transform="translate(88.4375,973.75)"/>
<path d="M0 0 C3.95302215 3.37169536 5.87375513 6.80752052 7.125 11.8125 C7.125 14.7825 7.125 17.7525 7.125 20.8125 C-1.785 20.8125 -10.695 20.8125 -19.875 20.8125 C-17.84884121 28.58527038 -17.84884121 28.58527038 -13.875 30.8125 C-10.33234377 31.36246881 -6.99834137 31.53723637 -3.9375 29.5625 C-2.60112328 27.55613103 -2.60112328 27.55613103 -1.875 23.8125 C1.095 23.8125 4.065 23.8125 7.125 23.8125 C6.75515313 29.97661455 5.42261357 32.61255946 1.125 36.8125 C-4.60854522 39.71381204 -10.60282428 39.3180658 -16.875 38.8125 C-21.66784104 37.21488632 -24.12753005 35.03182884 -26.875 30.8125 C-30.12026976 24.159697 -30.01514287 15.34470336 -27.6875 8.375 C-24.99954972 3.09178738 -22.79444867 0.52822662 -17.1875 -1.5625 C-11.34932018 -2.72350167 -5.49879851 -2.27124286 0 0 Z M-17.875 7.8125 C-19.68435423 10.44428797 -19.875 11.5736766 -19.875 14.8125 C-13.935 14.8125 -7.995 14.8125 -1.875 14.8125 C-2.37878619 9.30426833 -2.37878619 9.30426833 -4.0625 7 C-9.06286485 3.72389889 -13.09505237 4.66207997 -17.875 7.8125 Z " fill="#565658" transform="translate(526.875,973.1875)"/>
<path d="M0 0 C2.50773201 1.80042298 3.82777649 3.1337 5.4375 5.75 C5.85400391 8.37548828 5.85400391 8.37548828 5.9140625 11.3203125 C5.945 12.38121094 5.9759375 13.44210937 6.0078125 14.53515625 C6.02585937 15.63730469 6.04390625 16.73945312 6.0625 17.875 C6.11337563 20.06519603 6.16787795 22.25531179 6.2265625 24.4453125 C6.24412598 25.41484863 6.26168945 26.38438477 6.27978516 27.38330078 C6.28548539 29.76826406 6.28548539 29.76826406 7.4375 31.75 C9.46213255 32.40213292 9.46213255 32.40213292 11.4375 32.75 C11.4375 34.73 11.4375 36.71 11.4375 38.75 C6.74274633 39.67053993 3.70942062 40.06904262 -0.5625 37.75 C-1.2225 37.09 -1.8825 36.43 -2.5625 35.75 C-3.14 36.224375 -3.7175 36.69875 -4.3125 37.1875 C-8.52451257 40.11250873 -12.49637983 40.09346577 -17.5625 39.75 C-22.10827775 38.46202964 -24.00403888 37.59615322 -26.625 33.625 C-27.79732387 28.77939466 -27.61983036 25.30614792 -25.5625 20.75 C-20.28824673 15.60760306 -12.58941902 14.65401387 -5.4375 14.625 C-4.48875 14.66625 -3.54 14.7075 -2.5625 14.75 C-3.4229139 10.41770285 -3.4229139 10.41770285 -5.5625 6.75 C-10.73985677 6.37947661 -10.73985677 6.37947661 -15.5625 7.75 C-15.8925 9.07 -16.2225 10.39 -16.5625 11.75 C-19.5325 11.75 -22.5025 11.75 -25.5625 11.75 C-25.07626147 5.42889908 -25.07626147 5.42889908 -22.8125 2.4375 C-16.21229667 -2.5126525 -7.60999018 -2.67017199 0 0 Z M-17.5625 24.75 C-18.53156827 27.33414426 -18.53156827 27.33414426 -18.5625 29.75 C-16.9837319 31.4589129 -16.9837319 31.4589129 -14.5625 32.75 C-11.02239354 32.62356763 -8.38973108 32.1418463 -5.1875 30.625 C-2.81807618 27.89104944 -2.82864175 25.27637821 -2.5625 21.75 C-8.23226598 21.40981404 -12.76458273 21.27150998 -17.5625 24.75 Z " fill="#565658" transform="translate(757.5625,891.25)"/>
<path d="M0 0 C2.97 0 5.94 0 9 0 C9.33 9.57 9.66 19.14 10 29 C11.93875 26.525 13.8775 24.05 15.875 21.5 C21.71212116 14.41518218 21.71212116 14.41518218 26.08984375 13.00390625 C28.55873469 13.05703877 30.6417758 13.2813538 33 14 C31.38462556 17.89917968 28.72075127 20.71293772 25.875 23.75 C25.40707031 24.25660156 24.93914062 24.76320313 24.45703125 25.28515625 C23.30873459 26.52719141 22.15491328 27.76411494 21 29 C24.74955604 35.97719585 28.63522621 42.85325972 32.6796875 49.6640625 C34 52 34 52 34 53 C30.33640359 54.03253761 27.62037279 54.28043698 24 53 C20.9026268 49.55783995 18.91656345 45.37126938 16.8125 41.28125 C16.214375 40.1984375 15.61625 39.115625 15 38 C12.95018858 37.80816886 12.95018858 37.80816886 11.41796875 39.11328125 C9.42710457 41.76228234 9.48874879 43.90927242 9.3125 47.1875 C9.24675781 48.27417969 9.18101562 49.36085938 9.11328125 50.48046875 C9.07589844 51.31191406 9.03851563 52.14335938 9 53 C6.03 53 3.06 53 0 53 C0 35.51 0 18.02 0 0 Z " fill="#515153" transform="translate(258,958)"/>
<path d="M0 0 C2.64 0 5.28 0 8 0 C8.33 9.57 8.66 19.14 9 29 C12.9046269 24.43800888 12.9046269 24.43800888 16.80834961 19.87524414 C17.53550171 19.02627563 17.53550171 19.02627563 18.27734375 18.16015625 C19.02359009 17.28822632 19.02359009 17.28822632 19.78491211 16.39868164 C20.4986683 15.57708043 21.23042985 14.76957015 22 14 C23.68608966 13.92794489 25.37500659 13.91613932 27.0625 13.9375 C27.98160156 13.94652344 28.90070312 13.95554687 29.84765625 13.96484375 C30.55792969 13.97644531 31.26820313 13.98804688 32 14 C30.00777062 18.75493422 26.35854896 21.93280231 22.80078125 25.5625 C20.73960193 27.75936933 20.73960193 27.75936933 21.26269531 29.92016602 C22.0045373 32.01279908 22.88080771 33.796812 23.99609375 35.71484375 C24.38990234 36.40126953 24.78371094 37.08769531 25.18945312 37.79492188 C25.60130859 38.50197266 26.01316406 39.20902344 26.4375 39.9375 C31.36100376 48.42334929 31.36100376 48.42334929 33 53 C29.7 53 26.4 53 23 53 C20.03 47.72 17.06 42.44 14 37 C8.84049211 40.28347607 8.84049211 40.28347607 8.29296875 44.015625 C8.25816406 45.08296875 8.22335937 46.1503125 8.1875 47.25 C8.11595703 48.86648438 8.11595703 48.86648438 8.04296875 50.515625 C8.02169922 51.74539063 8.02169922 51.74539063 8 53 C5.36 53 2.72 53 0 53 C0 35.51 0 18.02 0 0 Z " fill="#565658" transform="translate(696,877)"/>
<path d="M0 0 C5.05725954 4.2910081 7.6944465 8.59809827 8.28515625 15.26171875 C8.49994092 21.95739752 8.25131738 29.1081266 3.6328125 34.3828125 C-1.78528572 39.10006219 -6.74788973 39.10386772 -13.6328125 39.01953125 C-18.98611337 38.58291451 -22.60137134 37.2192414 -26.30859375 33.30078125 C-29.33892293 28.63470345 -29.31043956 23.51752584 -29.375 18.125 C-29.3853125 17.39643799 -29.395625 16.66787598 -29.40625 15.91723633 C-29.30977167 10.03406825 -27.95939505 5.77189505 -23.6875 1.5 C-16.43033511 -3.11819584 -7.86913795 -3.34856934 0 0 Z M-19.9375 10.75 C-21.81233959 14.93233447 -21.57058089 20.36198163 -20.40625 24.75390625 C-19.39496343 27.38654901 -18.3833276 29.38378447 -16.1875 31.1875 C-12.92126521 32.0040587 -10.29411242 32.10332762 -6.9375 31.75 C-3.54810444 29.61320715 -2.21167443 28.5725233 -0.9375 24.75 C-0.7927037 22.79524991 -0.71682498 20.8348862 -0.6875 18.875 C-0.66171875 17.84632813 -0.6359375 16.81765625 -0.609375 15.7578125 C-1.08603578 11.38842202 -2.8746613 8.8128387 -5.9375 5.75 C-12.18695989 4.58359786 -16.07151125 5.43426547 -19.9375 10.75 Z " fill="#565658" transform="translate(444.9375,973.25)"/>
<path d="M0 0 C3.81125452 2.93035135 5.77805969 6.64447177 6.65625 11.2734375 C7.17699085 18.8442083 7.23833781 25.47982269 3.65625 32.2734375 C-0.83713301 37.0164529 -5.91873624 38.08097609 -12.28125 38.5859375 C-17.95501196 38.40966528 -22.67534759 36.94183991 -26.71875 32.8984375 C-31.37916087 25.37008147 -31.56974337 16.49612654 -29.87890625 7.9140625 C-28.18910159 3.39458495 -25.18614941 0.93959219 -21.34375 -1.7265625 C-14.32668282 -4.03616323 -6.40846687 -3.70325339 0 0 Z M-20.34375 8.2734375 C-22.83184322 13.92819481 -22.70890366 19.34104182 -21.34375 25.2734375 C-19.92704289 28.42193356 -19.92704289 28.42193356 -17.34375 30.2734375 C-13.23821399 31.48989261 -11.0705275 31.53398038 -7.03125 30.0859375 C-4.14915325 28.14219783 -3.52230285 27.44147407 -2.34375 24.2734375 C-1.98963065 21.16661429 -1.98963065 21.16661429 -2.03125 17.8359375 C-2.01449219 16.72347656 -1.99773438 15.61101563 -1.98046875 14.46484375 C-2.38022613 10.95299667 -3.26856646 9.10138369 -5.34375 6.2734375 C-10.68570783 2.40512321 -16.05485923 3.62713916 -20.34375 8.2734375 Z " fill="#565658" transform="translate(522.34375,892.7265625)"/>
<path d="M0 0 C2.95561085 2.03835231 3.00141785 3.00760483 3.6875 6.6875 C3.790625 7.780625 3.89375 8.87375 4 10 C0.95120475 10.28762219 -1.96424977 10.46409851 -5 10 C-6.03013277 8.35178756 -7.03114628 6.68496298 -8 5 C-10.78694486 4.52431664 -13.15038679 4.76642515 -16 5 C-16.66 6.32 -17.32 7.64 -18 9 C-13.13426176 11.70318791 -8.14016665 13.27178308 -2.8046875 14.83984375 C0.29760962 16.12310593 1.89055234 17.40825368 4 20 C5.19138291 24.20955294 5.13656621 26.54477929 3.875 30.75 C1.44201626 34.96717181 -0.72265369 36.3229511 -5.3125 37.6875 C-12.89158127 38.56878852 -19.59940658 38.5323568 -25.9375 33.8125 C-28.50584625 30.31020966 -28.41640144 28.24729473 -28 24 C-25.36 24 -22.72 24 -20 24 C-19.67 25.65 -19.34 27.3 -19 29 C-17.41870971 29.22331199 -15.83478911 29.42804644 -14.25 29.625 C-13.36828125 29.74101563 -12.4865625 29.85703125 -11.578125 29.9765625 C-8.77140122 30.00207817 -7.36615134 29.44843844 -5 28 C-5.14936747 26.04770238 -5.14936747 26.04770238 -6 24 C-8.03128143 22.74164227 -8.03128143 22.74164227 -10.5625 21.9375 C-11.46226562 21.6075 -12.36203125 21.2775 -13.2890625 20.9375 C-14.18367187 20.628125 -15.07828125 20.31875 -16 20 C-24.43124811 17.06739196 -24.43124811 17.06739196 -27 14 C-28.32802721 9.40298272 -28.06380912 6.31523726 -26 2 C-19.19788447 -4.62311249 -7.89204084 -5.32712757 0 0 Z " fill="#565658" transform="translate(799,893)"/>
<path d="M0 0 C2.29518219 2.3743264 2.96098229 3.42774033 3.1875 6.75 C3.0946875 7.86375 3.0946875 7.86375 3 9 C-2.36791988 9.35199475 -2.36791988 9.35199475 -5 9 C-6.625 7.0625 -6.625 7.0625 -8 5 C-11.64684786 3.9912974 -14.40923823 3.757044 -18 5 C-18.33 6.65 -18.66 8.3 -19 10 C-17.37191406 10.34611328 -17.37191406 10.34611328 -15.7109375 10.69921875 C-14.26542007 11.02774544 -12.82011859 11.35722333 -11.375 11.6875 C-10.66214844 11.83638672 -9.94929687 11.98527344 -9.21484375 12.13867188 C-3.93676567 13.37345161 -0.88669681 15.20299619 3 19 C4.60055535 22.20111071 4.35481231 25.51882263 4 29 C2.63343603 32.61737521 1.39918655 33.74833891 -1.875 35.8125 C-8.34631369 38.22716929 -16.0966928 37.96776907 -22.5625 35.8125 C-25.35649911 33.73491092 -27.19242972 31.98944316 -29 29 C-29.25 25.6875 -29.25 25.6875 -29 23 C-26.36 23 -23.72 23 -21 23 C-20.71125 23.804375 -20.4225 24.60875 -20.125 25.4375 C-19.26737432 28.1326468 -19.26737432 28.1326468 -17 29 C-15.50243129 29.09499503 -14.00057068 29.12987198 -12.5 29.125 C-11.7059375 29.12757813 -10.911875 29.13015625 -10.09375 29.1328125 C-7.94081466 29.13277996 -7.94081466 29.13277996 -6 28 C-6.495 25.525 -6.495 25.525 -7 23 C-8.02480469 22.68546875 -9.04960938 22.3709375 -10.10546875 22.046875 C-11.46632713 21.61515441 -12.82699427 21.18283066 -14.1875 20.75 C-14.86103516 20.54503906 -15.53457031 20.34007812 -16.22851562 20.12890625 C-20.52760072 18.74481056 -23.64926383 17.1551188 -27 14 C-28.60306924 10.79386153 -28.48740461 7.47860003 -28 4 C-25.18070174 -0.63170428 -22.44490264 -2.37455979 -17.3125 -3.6875 C-11.04489349 -4.27878363 -5.09331051 -4.04468776 0 0 Z " fill="#565658" transform="translate(567,975)"/>
<path d="M0 0 C3.24044458 2.56535196 4.69560167 4.086805 6 8 C6.08397157 10.35680213 6.10728187 12.71594081 6.09765625 15.07421875 C6.0962413 15.7580513 6.09482635 16.44188385 6.09336853 17.1464386 C6.08777876 19.32683722 6.07522822 21.50713251 6.0625 23.6875 C6.05748367 25.16731622 6.052921 26.64713406 6.04882812 28.12695312 C6.03781271 31.75133557 6.02055512 35.3756577 6 39 C3.03 39 0.06 39 -3 39 C-3.495 23.655 -3.495 23.655 -4 8 C-12.23320978 7.19468676 -12.23320978 7.19468676 -15.52441406 9.60644531 C-17.40815023 12.66206235 -17.54179874 14.71533341 -17.609375 18.296875 C-17.64160156 19.50214844 -17.67382812 20.70742188 -17.70703125 21.94921875 C-17.72830078 23.83060547 -17.72830078 23.83060547 -17.75 25.75 C-17.77964844 27.01972656 -17.80929687 28.28945313 -17.83984375 29.59765625 C-17.91053951 32.73183485 -17.96324012 35.86526956 -18 39 C-20.97 39 -23.94 39 -27 39 C-27 26.13 -27 13.26 -27 0 C-24.69 0 -22.38 0 -20 0 C-19.34 0.99 -18.68 1.98 -18 3 C-17.2575 2.525625 -16.515 2.05125 -15.75 1.5625 C-10.55110076 -1.39142002 -5.74896076 -1.51665988 0 0 Z " fill="#575758" transform="translate(486,972)"/>
<path d="M0 0 C3.51788921 2.89708523 5.00845785 4.5580119 5.46557617 9.23339844 C5.46510423 10.60881543 5.44833368 11.98429315 5.41796875 13.359375 C5.41372391 14.08618469 5.40947906 14.81299438 5.40510559 15.56182861 C5.3883613 17.87493504 5.35071885 20.18715855 5.3125 22.5 C5.29744758 24.07160197 5.28376015 25.64321764 5.27148438 27.21484375 C5.23847195 31.06023415 5.18672056 34.90496756 5.125 38.75 C2.485 38.75 -0.155 38.75 -2.875 38.75 C-2.8843457 37.92274414 -2.89369141 37.09548828 -2.90332031 36.24316406 C-2.95700319 32.49483585 -3.0406571 28.74775838 -3.125 25 C-3.13917969 23.69804688 -3.15335938 22.39609375 -3.16796875 21.0546875 C-3.20019531 19.80429687 -3.23242188 18.55390625 -3.265625 17.265625 C-3.28657227 16.11352539 -3.30751953 14.96142578 -3.32910156 13.77441406 C-3.98250462 10.15439748 -4.94071846 8.91511386 -7.875 6.75 C-11.17051822 6.81725547 -13.08722936 7.12521639 -15.6875 9.1875 C-18.08148087 12.33747483 -18.05870012 14.72746069 -18.19140625 18.6328125 C-18.23330078 19.79941406 -18.27519531 20.96601562 -18.31835938 22.16796875 C-18.37733398 24.00294922 -18.37733398 24.00294922 -18.4375 25.875 C-18.48068359 27.10605469 -18.52386719 28.33710937 -18.56835938 29.60546875 C-18.67468704 32.65352853 -18.77671781 35.7016719 -18.875 38.75 C-21.845 38.75 -24.815 38.75 -27.875 38.75 C-27.875 25.88 -27.875 13.01 -27.875 -0.25 C-25.235 -0.25 -22.595 -0.25 -19.875 -0.25 C-19.545 0.74 -19.215 1.73 -18.875 2.75 C-18.276875 2.275625 -17.67875 1.80125 -17.0625 1.3125 C-12.07118279 -2.25272658 -5.53166678 -2.40507251 0 0 Z " fill="#575758" transform="translate(226.875,891.25)"/>
<path d="M0 0 C2.64 0 5.28 0 8 0 C8.01981934 0.76143311 8.03963867 1.52286621 8.06005859 2.30737305 C8.15549922 5.76775472 8.26510212 9.22754855 8.375 12.6875 C8.4059375 13.88568359 8.436875 15.08386719 8.46875 16.31835938 C8.50742188 17.47529297 8.54609375 18.63222656 8.5859375 19.82421875 C8.6173584 20.88729248 8.6487793 21.95036621 8.68115234 23.0456543 C9.00360513 26.03340405 9.74793584 28.28280111 11 31 C14.25639659 31.94271002 14.25639659 31.94271002 18 32 C20.70415748 30.36492803 21.58318213 29.72475284 23 27 C23.76748445 22.40157481 23.79082919 17.84190786 23.8125 13.1875 C23.83763672 11.92228516 23.86277344 10.65707031 23.88867188 9.35351562 C23.94750491 6.23536457 23.98381506 3.11861633 24 0 C26.97 0 29.94 0 33 0 C33 12.87 33 25.74 33 39 C30.69 39 28.38 39 26 39 C25.67 38.34 25.34 37.68 25 37 C24.401875 37.309375 23.80375 37.61875 23.1875 37.9375 C17.91781779 40.49705993 12.76080006 40.74783567 7 40 C3.32564826 38.1592706 1.31666174 35.94998521 0 32 C-0.0845387 29.5589224 -0.11605786 27.14740787 -0.09765625 24.70703125 C-0.0962413 24.00100266 -0.09482635 23.29497406 -0.09336853 22.56755066 C-0.08777764 20.31582374 -0.07522688 18.06419679 -0.0625 15.8125 C-0.05748382 14.28450665 -0.05292112 12.75651173 -0.04882812 11.22851562 C-0.0378112 7.48563865 -0.02055287 3.74283627 0 0 Z " fill="#565658" transform="translate(142,972)"/>
<path d="M0 0 C2.97 0 5.94 0 9 0 C9.33 10.23 9.66 20.46 10 31 C18.30023514 31.88045136 18.30023514 31.88045136 21.5 29.1875 C23.93242961 25.64020682 24.16106684 22.65119523 24.31640625 18.45703125 C24.35830078 17.38388672 24.40019531 16.31074219 24.44335938 15.20507812 C24.48267578 14.08552734 24.52199219 12.96597656 24.5625 11.8125 C24.60568359 10.68134766 24.64886719 9.55019531 24.69335938 8.38476562 C24.79949099 5.58996646 24.90154385 2.79507838 25 0 C27.64 0 30.28 0 33 0 C33 12.87 33 25.74 33 39 C30.69 39 28.38 39 26 39 C26 37.68 26 36.36 26 35 C25.0925 35.639375 24.185 36.27875 23.25 36.9375 C18.35574718 40.04346814 14.81540346 40.40106231 9 40 C4.81837352 38.6329298 3.39878414 37.7640664 1.34643555 33.83178711 C-0.14594955 30.09307572 -0.34497053 26.79271097 -0.29296875 22.75390625 C-0.28872391 22.09792953 -0.28447906 21.44195282 -0.28010559 20.76609802 C-0.26348779 18.69779089 -0.22587238 16.63050599 -0.1875 14.5625 C-0.17243111 13.14910275 -0.15874659 11.73569002 -0.14648438 10.32226562 C-0.11364104 6.88118565 -0.06198015 3.44069281 0 0 Z " fill="#565658" transform="translate(596,891)"/>
<path d="M0 0 C3.63353699 3.20606205 5.0027866 6.60941233 5.46557617 11.40185547 C5.4420105 13.30281982 5.4420105 13.30281982 5.41796875 15.2421875 C5.41372391 15.92177521 5.40947906 16.60136292 5.40510559 17.30154419 C5.38844266 19.45144924 5.35081716 21.60038299 5.3125 23.75 C5.297437 25.2161322 5.28375143 26.68227924 5.27148438 28.1484375 C5.2385808 31.72426875 5.18688663 35.29953941 5.125 38.875 C2.485 38.875 -0.155 38.875 -2.875 38.875 C-2.89481934 38.11356689 -2.91463867 37.35213379 -2.93505859 36.56762695 C-3.03049922 33.10724528 -3.14010212 29.64745145 -3.25 26.1875 C-3.2809375 24.98931641 -3.311875 23.79113281 -3.34375 22.55664062 C-3.38242187 21.39970703 -3.42109375 20.24277344 -3.4609375 19.05078125 C-3.50806885 17.45617065 -3.50806885 17.45617065 -3.55615234 15.8293457 C-3.88395145 12.79205861 -4.44902956 10.5740502 -5.875 7.875 C-9.51081529 6.58226568 -11.17586262 6.54873589 -14.6875 8.1875 C-16.96415626 9.69078588 -16.96415626 9.69078588 -17.875 11.875 C-18.02911106 13.9057477 -18.12482453 15.94106421 -18.19140625 17.9765625 C-18.23330078 19.18828125 -18.27519531 20.4 -18.31835938 21.6484375 C-18.35767578 22.91945313 -18.39699219 24.19046875 -18.4375 25.5 C-18.48068359 26.77875 -18.52386719 28.0575 -18.56835938 29.375 C-18.67469886 32.54155348 -18.77672833 35.70818753 -18.875 38.875 C-21.845 38.875 -24.815 38.875 -27.875 38.875 C-27.875 26.005 -27.875 13.135 -27.875 -0.125 C-25.565 -0.125 -23.255 -0.125 -20.875 -0.125 C-20.215 0.865 -19.555 1.855 -18.875 2.875 C-18.276875 2.400625 -17.67875 1.92625 -17.0625 1.4375 C-12.06040648 -2.13542394 -5.60831208 -2.1945569 0 0 Z " fill="#575759" transform="translate(955.875,891.125)"/>
<path d="M0 0 C2.81721409 1.92395109 3.43050356 2.60635831 4.5625 5.75 C4.73036322 8.32534673 4.79567374 10.78754393 4.7578125 13.359375 C4.7549826 14.08618469 4.75215271 14.81299438 4.74923706 15.56182861 C4.73807523 17.87472251 4.71297851 20.18722388 4.6875 22.5 C4.67746501 24.07160898 4.66834006 25.64322404 4.66015625 27.21484375 C4.63814904 31.06004622 4.60364715 34.90495664 4.5625 38.75 C1.9225 38.75 -0.7175 38.75 -3.4375 38.75 C-3.9325 23.405 -3.9325 23.405 -4.4375 7.75 C-11.05418966 6.47142856 -11.05418966 6.47142856 -16.4375 8.75 C-18.59241943 12.05199962 -18.73720177 14.93986004 -18.8515625 18.828125 C-18.90957031 20.56835938 -18.90957031 20.56835938 -18.96875 22.34375 C-18.9996875 23.5503125 -19.030625 24.756875 -19.0625 26 C-19.12050781 27.83304688 -19.12050781 27.83304688 -19.1796875 29.703125 C-19.27392108 32.7185994 -19.35953455 35.73406828 -19.4375 38.75 C-22.0775 38.75 -24.7175 38.75 -27.4375 38.75 C-27.4375 25.88 -27.4375 13.01 -27.4375 -0.25 C-25.1275 -0.25 -22.8175 -0.25 -20.4375 -0.25 C-20.1075 0.74 -19.7775 1.73 -19.4375 2.75 C-18.839375 2.275625 -18.24125 1.80125 -17.625 1.3125 C-12.34675931 -2.45767192 -5.88635149 -2.14049145 0 0 Z " fill="#565658" transform="translate(665.4375,891.25)"/>
<path d="M0 0 C2.81721409 1.92395109 3.43050356 2.60635831 4.5625 5.75 C4.73036322 8.32534673 4.79567374 10.78754393 4.7578125 13.359375 C4.7549826 14.08618469 4.75215271 14.81299438 4.74923706 15.56182861 C4.73807523 17.87472251 4.71297851 20.18722388 4.6875 22.5 C4.67746501 24.07160898 4.66834006 25.64322404 4.66015625 27.21484375 C4.63814904 31.06004622 4.60364715 34.90495664 4.5625 38.75 C1.9225 38.75 -0.7175 38.75 -3.4375 38.75 C-3.4468457 37.88721436 -3.45619141 37.02442871 -3.46582031 36.13549805 C-3.50985722 32.9313816 -3.57147894 29.72822272 -3.64501953 26.5246582 C-3.67322797 25.13871604 -3.69444333 23.75261304 -3.70849609 22.36645508 C-3.72992421 20.37292596 -3.77867014 18.37974954 -3.828125 16.38671875 C-3.84907227 15.18748779 -3.87001953 13.98825684 -3.89160156 12.75268555 C-4.16461954 9.67970187 -4.16461954 9.67970187 -6.28417969 7.82739258 C-9.36535613 6.28575634 -11.18839136 6.7821804 -14.4375 7.75 C-16.43051736 9.33066894 -17.30293351 10.48086702 -18.4375 12.75 C-18.59128852 14.70774069 -18.68721463 16.67017352 -18.75390625 18.6328125 C-18.79580078 19.79941406 -18.83769531 20.96601562 -18.88085938 22.16796875 C-18.93983398 24.00294922 -18.93983398 24.00294922 -19 25.875 C-19.04318359 27.10605469 -19.08636719 28.33710937 -19.13085938 29.60546875 C-19.23718704 32.65352853 -19.33921781 35.7016719 -19.4375 38.75 C-22.0775 38.75 -24.7175 38.75 -27.4375 38.75 C-27.4375 25.88 -27.4375 13.01 -27.4375 -0.25 C-25.1275 -0.25 -22.8175 -0.25 -20.4375 -0.25 C-20.1075 0.74 -19.7775 1.73 -19.4375 2.75 C-18.839375 2.275625 -18.24125 1.80125 -17.625 1.3125 C-12.34675931 -2.45767192 -5.88635149 -2.14049145 0 0 Z " fill="#565658" transform="translate(411.4375,891.25)"/>
<path d="M0 0 C3.50374216 3.6132341 3.13236914 6.69119535 3.09765625 11.4765625 C3.0962413 12.20620209 3.09482635 12.93584167 3.09336853 13.68759155 C3.08776531 16.02093585 3.07521235 18.35418464 3.0625 20.6875 C3.05748541 22.26822778 3.05292243 23.84895707 3.04882812 25.4296875 C3.03779484 29.30732854 3.02052811 33.18489807 3 37.0625 C0.36 37.0625 -2.28 37.0625 -5 37.0625 C-5.01981934 36.23000732 -5.03963867 35.39751465 -5.06005859 34.53979492 C-5.13820742 31.447735 -5.22490206 28.35606617 -5.31738281 25.2644043 C-5.37444092 23.2695464 -5.42164442 21.2744146 -5.46875 19.27929688 C-5.50742187 18.02568359 -5.54609375 16.77207031 -5.5859375 15.48046875 C-5.63306885 13.74446411 -5.63306885 13.74446411 -5.68115234 11.97338867 C-5.79471033 8.87122972 -5.79471033 8.87122972 -8 6.0625 C-12.0446231 5.45199085 -14.19850843 5.55426555 -17.6796875 7.76171875 C-21.76630425 12.12585542 -20.78544538 18.78671701 -20.8125 24.375 C-20.83763672 25.59251953 -20.86277344 26.81003906 -20.88867188 28.06445312 C-20.94748901 31.06412687 -20.98381039 34.06234298 -21 37.0625 C-23.64 37.0625 -26.28 37.0625 -29 37.0625 C-29 24.1925 -29 11.3225 -29 -1.9375 C-26.69 -1.9375 -24.38 -1.9375 -22 -1.9375 C-21.67 -0.9475 -21.34 0.0425 -21 1.0625 C-20.2575 0.588125 -19.515 0.11375 -18.75 -0.375 C-12.64550088 -3.84346541 -5.94053835 -3.83659769 0 0 Z " fill="#565658" transform="translate(365,973.9375)"/>
<path d="M0 0 C2.31 0 4.62 0 7 0 C7 3.63 7 7.26 7 11 C8.98 11 10.96 11 13 11 C13 13.31 13 15.62 13 18 C11.02 18 9.04 18 7 18 C7.33 25.92 7.66 33.84 8 42 C9.65 42.66 11.3 43.32 13 44 C13 45.98 13 47.96 13 50 C5.88402916 51.32670643 5.88402916 51.32670643 2.125 49.9375 C-1.21522498 46.89200075 -1.90037416 43.74003832 -2.15673828 39.26245117 C-2.19676248 36.04759602 -2.17422397 32.83970388 -2.125 29.625 C-2.11597656 28.50738281 -2.10695312 27.38976562 -2.09765625 26.23828125 C-2.07418346 23.49196538 -2.04134728 20.74609528 -2 18 C-3.32 18 -4.64 18 -6 18 C-6 15.69 -6 13.38 -6 11 C-4.35 11 -2.7 11 -1 11 C-1.020625 9.9275 -1.04125 8.855 -1.0625 7.75 C-1.0142016 4.85209576 -0.86844115 2.71387859 0 0 Z " fill="#575759" transform="translate(243,880)"/>
<path d="M0 0 C2.31 0 4.62 0 7 0 C7 3.63 7 7.26 7 11 C8.98 11 10.96 11 13 11 C13 13.31 13 15.62 13 18 C11.02 18 9.04 18 7 18 C7 26.25 7 34.5 7 43 C8.98 43.33 10.96 43.66 13 44 C13 45.98 13 47.96 13 50 C5.85076531 51.33290816 5.85076531 51.33290816 2.125 49.875 C-1.04225132 47.08036648 -1.89567574 44.31527091 -2.22705078 40.13745117 C-2.21657715 39.11627197 -2.20610352 38.09509277 -2.1953125 37.04296875 C-2.18886719 35.93115234 -2.18242188 34.81933594 -2.17578125 33.67382812 C-2.15902344 32.52333984 -2.14226562 31.37285156 -2.125 30.1875 C-2.11597656 29.01767578 -2.10695313 27.84785156 -2.09765625 26.64257812 C-2.07413732 23.76150947 -2.04126852 20.88086011 -2 18 C-3.32 18 -4.64 18 -6 18 C-6 15.69 -6 13.38 -6 11 C-4.35 11 -2.7 11 -1 11 C-1.020625 9.9275 -1.04125 8.855 -1.0625 7.75 C-1.0142016 4.85209576 -0.86844115 2.71387859 0 0 Z " fill="#575759" transform="translate(1119,880)"/>
<path d="M0 0 C2.97 0 5.94 0 9 0 C9 16.5 9 33 9 50 C6.03 50 3.06 50 0 50 C0 33.5 0 17 0 0 Z " fill="#575758" transform="translate(317,961)"/>
<path d="M0 0 C2.64 0 5.28 0 8 0 C8 17.49 8 34.98 8 53 C5.36 53 2.72 53 0 53 C0 35.51 0 18.02 0 0 Z " fill="#575758" transform="translate(225,958)"/>
<path d="M0 0 C2.64 0 5.28 0 8 0 C8 17.49 8 34.98 8 53 C5.36 53 2.72 53 0 53 C0 35.51 0 18.02 0 0 Z " fill="#575759" transform="translate(1178,877)"/>
<path d="M0 0 C0 2.97 0 5.94 0 9 C-3.41796875 9.5859375 -3.41796875 9.5859375 -6.8359375 10.171875 C-9.10178382 10.79761286 -9.10178382 10.79761286 -10.109375 12.68554688 C-11.19366352 15.50327034 -11.32170404 17.84233183 -11.4140625 20.859375 C-11.47207031 22.53193359 -11.47207031 22.53193359 -11.53125 24.23828125 C-11.57765625 25.97658203 -11.57765625 25.97658203 -11.625 27.75 C-11.68300781 29.51150391 -11.68300781 29.51150391 -11.7421875 31.30859375 C-11.8363982 34.20557268 -11.92201602 37.10254626 -12 40 C-14.64 40 -17.28 40 -20 40 C-20 27.13 -20 14.26 -20 1 C-17.69 1 -15.38 1 -13 1 C-12.67 1.99 -12.34 2.98 -12 4 C-11.505 3.34 -11.01 2.68 -10.5 2 C-6.89659788 -0.8827217 -4.53014958 -0.30200997 0 0 Z " fill="#565659" transform="translate(322,890)"/>
<path d="M0 0 C2.97 0 5.94 0 9 0 C9 12.87 9 25.74 9 39 C6.03 39 3.06 39 0 39 C0 26.13 0 13.26 0 0 Z " fill="#565659" transform="translate(577,972)"/>
<path d="M0 0 C2.97 0 5.94 0 9 0 C9 12.87 9 25.74 9 39 C6.03 39 3.06 39 0 39 C0 26.13 0 13.26 0 0 Z " fill="#575758" transform="translate(1041,891)"/>
<path d="M0 0 C2.64 0 5.28 0 8 0 C8 12.87 8 25.74 8 39 C5.36 39 2.72 39 0 39 C0 26.13 0 13.26 0 0 Z " fill="#575759" transform="translate(242,972)"/>
<path d="M0 0 C2.64 0 5.28 0 8 0 C8 12.87 8 25.74 8 39 C5.36 39 2.72 39 0 39 C0 26.13 0 13.26 0 0 Z " fill="#565658" transform="translate(1100,891)"/>
<path d="M0 0 C2.64 0 5.28 0 8 0 C8 12.87 8 25.74 8 39 C5.36 39 2.72 39 0 39 C0 26.13 0 13.26 0 0 Z " fill="#575759" transform="translate(810,891)"/>
<path d="M0 0 C2.64 0 5.28 0 8 0 C8 12.87 8 25.74 8 39 C5.36 39 2.72 39 0 39 C0 26.13 0 13.26 0 0 Z " fill="#575759" transform="translate(679,891)"/>
<path d="M0 0 C2.64 0 5.28 0 8 0 C8 12.87 8 25.74 8 39 C5.36 39 2.72 39 0 39 C0 26.13 0 13.26 0 0 Z " fill="#565659" transform="translate(327,891)"/>
<path d="M0 0 C2.97 0 5.94 0 9 0 C9 2.97 9 5.94 9 9 C6.03 9 3.06 9 0 9 C0 6.03 0 3.06 0 0 Z " fill="#565659" transform="translate(577,958)"/>
<path d="M0 0 C2.64 0 5.28 0 8 0 C8 2.97 8 5.94 8 9 C5.36 9 2.72 9 0 9 C0 6.03 0 3.06 0 0 Z " fill="#575759" transform="translate(242,958)"/>
<path d="M0 0 C2.97 0 5.94 0 9 0 C9 2.64 9 5.28 9 8 C6.03 8 3.06 8 0 8 C0 5.36 0 2.72 0 0 Z " fill="#575758" transform="translate(1041,877)"/>
<path d="M0 0 C2.64 0 5.28 0 8 0 C8 2.64 8 5.28 8 8 C5.36 8 2.72 8 0 8 C0 5.36 0 2.72 0 0 Z " fill="#565658" transform="translate(1100,877)"/>
<path d="M0 0 C2.64 0 5.28 0 8 0 C8 2.64 8 5.28 8 8 C5.36 8 2.72 8 0 8 C0 5.36 0 2.72 0 0 Z " fill="#575758" transform="translate(810,877)"/>
<path d="M0 0 C2.64 0 5.28 0 8 0 C8 2.64 8 5.28 8 8 C5.36 8 2.72 8 0 8 C0 5.36 0 2.72 0 0 Z " fill="#575759" transform="translate(679,877)"/>
<path d="M0 0 C2.64 0 5.28 0 8 0 C8 2.64 8 5.28 8 8 C5.36 8 2.72 8 0 8 C0 5.36 0 2.72 0 0 Z " fill="#565659" transform="translate(327,877)"/>
</svg>
